G04 EAGLE Gerber RS-274X export*
G75*
%MOMM*%
%FSLAX34Y34*%
%LPD*%
%INTop Copper*%
%IPPOS*%
%AMOC8*
5,1,8,0,0,1.08239X$1,22.5*%
G01*
G04 Define Apertures*
%ADD10R,1.800000X1.150000*%
%ADD11R,0.600000X0.600000*%
%ADD12R,0.450000X0.400000*%
%ADD13R,0.400000X0.450000*%
%ADD14R,0.600000X0.600000*%
%ADD15R,1.200000X0.600000*%
%ADD16R,1.150000X0.800000*%
%ADD17C,0.200000*%
%ADD18C,0.216000*%
%ADD19R,0.300000X0.350000*%
%ADD20R,0.350000X0.300000*%
%ADD21C,0.250000*%
%ADD22C,0.783000*%
%ADD23R,0.300000X1.150000*%
%ADD24R,0.600000X1.150000*%
%ADD25C,1.170000*%
%ADD26R,0.700000X0.300000*%
%ADD27R,1.000000X0.300000*%
%ADD28R,2.200000X1.200000*%
%ADD29R,0.500000X0.600000*%
%ADD30R,1.200000X2.200000*%
%ADD31R,1.050000X0.500000*%
%ADD32R,0.800000X0.900000*%
%ADD33R,0.250000X0.350000*%
%ADD34R,0.350000X0.250000*%
%ADD35R,1.168400X1.600200*%
%ADD36R,0.711200X1.092200*%
%ADD37R,1.066800X1.066800*%
%ADD38R,1.397000X1.092200*%
%ADD39C,2.000000*%
%ADD40C,0.067500*%
%ADD41R,0.900000X1.300000*%
%ADD42R,4.850000X4.850000*%
%ADD43C,0.808000*%
%ADD44R,0.950000X0.850000*%
%ADD45R,1.000000X1.800000*%
%ADD46C,0.127000*%
%ADD47C,0.452400*%
%ADD48C,0.352400*%
%ADD49C,0.502400*%
G36*
X-152919Y-63272D02*
X-153214Y-63342D01*
X-153513Y-63291D01*
X-153768Y-63128D01*
X-153940Y-62877D01*
X-154000Y-62580D01*
X-154000Y71912D01*
X-154025Y72017D01*
X-154044Y72044D01*
X-155938Y73938D01*
X-156030Y73995D01*
X-156062Y74000D01*
X-223912Y74000D01*
X-224064Y73964D01*
X-224513Y73995D01*
X-224768Y74159D01*
X-224940Y74409D01*
X-225000Y74706D01*
X-225000Y115684D01*
X-224944Y115970D01*
X-224777Y116223D01*
X-212091Y128909D01*
X-211871Y129062D01*
X-211576Y129132D01*
X-211277Y129081D01*
X-211022Y128918D01*
X-210850Y128668D01*
X-210790Y128370D01*
X-210790Y120948D01*
X-209302Y119460D01*
X-195698Y119460D01*
X-194210Y120948D01*
X-194210Y131052D01*
X-195698Y132540D01*
X-206620Y132540D01*
X-206884Y132587D01*
X-207142Y132746D01*
X-207317Y132994D01*
X-207382Y133290D01*
X-207327Y133588D01*
X-207159Y133841D01*
X-170666Y170334D01*
X-170501Y170459D01*
X-170213Y170552D01*
X-166165Y171008D01*
X-165958Y171003D01*
X-165939Y171000D01*
X-112182Y171000D01*
X-111918Y170953D01*
X-111660Y170794D01*
X-111485Y170546D01*
X-111420Y170250D01*
X-111475Y169952D01*
X-111643Y169699D01*
X-112290Y169052D01*
X-112290Y167512D01*
X-107238Y167512D01*
X-107238Y165988D01*
X-112290Y165988D01*
X-112290Y164406D01*
X-112223Y164308D01*
X-112158Y164012D01*
X-112213Y163714D01*
X-112290Y163598D01*
X-112290Y158948D01*
X-110802Y157460D01*
X-107950Y157460D01*
X-107686Y157413D01*
X-107428Y157254D01*
X-107253Y157006D01*
X-107188Y156710D01*
X-107243Y156412D01*
X-107411Y156159D01*
X-111409Y152161D01*
X-111629Y152008D01*
X-111924Y151938D01*
X-112223Y151989D01*
X-112478Y152152D01*
X-112650Y152403D01*
X-112710Y152700D01*
X-112710Y156052D01*
X-114198Y157540D01*
X-126802Y157540D01*
X-128290Y156052D01*
X-128290Y150836D01*
X-128346Y150550D01*
X-128513Y150297D01*
X-132409Y146401D01*
X-132629Y146248D01*
X-132924Y146178D01*
X-133223Y146229D01*
X-133478Y146392D01*
X-133650Y146643D01*
X-133710Y146940D01*
X-133710Y149552D01*
X-135198Y151040D01*
X-147802Y151040D01*
X-149290Y149552D01*
X-149290Y148717D01*
X-149341Y148442D01*
X-149505Y148187D01*
X-149755Y148015D01*
X-149868Y147992D01*
X-165097Y132763D01*
X-165339Y132600D01*
X-165636Y132540D01*
X-174302Y132540D01*
X-175790Y131052D01*
X-175790Y120948D01*
X-174302Y119460D01*
X-164906Y119460D01*
X-164620Y119404D01*
X-164367Y119237D01*
X-158338Y113208D01*
X-158175Y112966D01*
X-158115Y112669D01*
X-158115Y110612D01*
X-158171Y110326D01*
X-158338Y110073D01*
X-159742Y108669D01*
X-159742Y104691D01*
X-157944Y102893D01*
X-157786Y102663D01*
X-157721Y102367D01*
X-157777Y102069D01*
X-157944Y101816D01*
X-162382Y97378D01*
X-162624Y97215D01*
X-162921Y97155D01*
X-183236Y97155D01*
X-183511Y97206D01*
X-183766Y97370D01*
X-183938Y97620D01*
X-183998Y97917D01*
X-183998Y102053D01*
X-185486Y103541D01*
X-199274Y103541D01*
X-199461Y103354D01*
X-199692Y103196D01*
X-199988Y103131D01*
X-200286Y103186D01*
X-200539Y103354D01*
X-200726Y103541D01*
X-206858Y103541D01*
X-206858Y82459D01*
X-200726Y82459D01*
X-200539Y82646D01*
X-200308Y82804D01*
X-200012Y82869D01*
X-199714Y82814D01*
X-199461Y82646D01*
X-199274Y82459D01*
X-185486Y82459D01*
X-183998Y83947D01*
X-183998Y90043D01*
X-183947Y90318D01*
X-183783Y90573D01*
X-183533Y90745D01*
X-183236Y90805D01*
X-159975Y90805D01*
X-140335Y110445D01*
X-140335Y117199D01*
X-140332Y117216D01*
X-140334Y117264D01*
X-140335Y117297D01*
X-140335Y117753D01*
X-140332Y117768D01*
X-140335Y119377D01*
X-140335Y120323D01*
X-140325Y120449D01*
X-140162Y121424D01*
X-140193Y121468D01*
X-140275Y121614D01*
X-140335Y121911D01*
X-140335Y125369D01*
X-140279Y125655D01*
X-140112Y125908D01*
X-129591Y136429D01*
X-129371Y136582D01*
X-129076Y136652D01*
X-128777Y136601D01*
X-128522Y136438D01*
X-128350Y136187D01*
X-128305Y135963D01*
X-126802Y134460D01*
X-124587Y134460D01*
X-124312Y134409D01*
X-124057Y134245D01*
X-123885Y133995D01*
X-123825Y133698D01*
X-123825Y60174D01*
X-123876Y59899D01*
X-124040Y59644D01*
X-124290Y59472D01*
X-124587Y59412D01*
X-127719Y59412D01*
X-130532Y56599D01*
X-130532Y52621D01*
X-127719Y49808D01*
X-125734Y49808D01*
X-125448Y49752D01*
X-125195Y49585D01*
X-121013Y45403D01*
X-120850Y45161D01*
X-120790Y44864D01*
X-120790Y23262D01*
X-108710Y23262D01*
X-108710Y35074D01*
X-108654Y35360D01*
X-108487Y35613D01*
X-108128Y35972D01*
X-107886Y36135D01*
X-107589Y36195D01*
X-101302Y36195D01*
X-101027Y36144D01*
X-100772Y35980D01*
X-100600Y35730D01*
X-100544Y35452D01*
X-99631Y34539D01*
X-99473Y34308D01*
X-99408Y34012D01*
X-99463Y33714D01*
X-99631Y33461D01*
X-100540Y32552D01*
X-100540Y29262D01*
X-89460Y29262D01*
X-89460Y32552D01*
X-90369Y33461D01*
X-90527Y33692D01*
X-90592Y33988D01*
X-90537Y34286D01*
X-90369Y34539D01*
X-89460Y35448D01*
X-89460Y43552D01*
X-90369Y44461D01*
X-90527Y44692D01*
X-90592Y44988D01*
X-90537Y45286D01*
X-90369Y45539D01*
X-89460Y46448D01*
X-89460Y54552D01*
X-90369Y55461D01*
X-90527Y55692D01*
X-90592Y55988D01*
X-90537Y56286D01*
X-90369Y56539D01*
X-89460Y57448D01*
X-89460Y60738D01*
X-100540Y60738D01*
X-100540Y57448D01*
X-99631Y56539D01*
X-99473Y56308D01*
X-99408Y56012D01*
X-99463Y55714D01*
X-99631Y55461D01*
X-100540Y54552D01*
X-100540Y53467D01*
X-100591Y53192D01*
X-100755Y52937D01*
X-101005Y52765D01*
X-101302Y52705D01*
X-105455Y52705D01*
X-107409Y50751D01*
X-107629Y50598D01*
X-107924Y50528D01*
X-108223Y50579D01*
X-108478Y50742D01*
X-108650Y50993D01*
X-108710Y51290D01*
X-108710Y60052D01*
X-110198Y61540D01*
X-116713Y61540D01*
X-116988Y61591D01*
X-117243Y61755D01*
X-117415Y62005D01*
X-117475Y62302D01*
X-117475Y133698D01*
X-117424Y133973D01*
X-117260Y134228D01*
X-117010Y134400D01*
X-116713Y134460D01*
X-114198Y134460D01*
X-112668Y135990D01*
X-112659Y136038D01*
X-112495Y136293D01*
X-112245Y136465D01*
X-111948Y136525D01*
X-107905Y136525D01*
X-86995Y157435D01*
X-86995Y168955D01*
X-87739Y169699D01*
X-87892Y169919D01*
X-87962Y170214D01*
X-87911Y170513D01*
X-87748Y170768D01*
X-87497Y170940D01*
X-87200Y171000D01*
X-50949Y171000D01*
X-50644Y170936D01*
X-50396Y170762D01*
X-50235Y170504D01*
X-50188Y170205D01*
X-50261Y169910D01*
X-50313Y169801D01*
X-50381Y169628D01*
X-50763Y168534D01*
X-50826Y168330D01*
X-50869Y168136D01*
X-50897Y167951D01*
X-51025Y166809D01*
X-51044Y166481D01*
X-51044Y165639D01*
X-51102Y165348D01*
X-51590Y164169D01*
X-51590Y163262D01*
X-34810Y163262D01*
X-34810Y164169D01*
X-35298Y165348D01*
X-35356Y165639D01*
X-35356Y166481D01*
X-35375Y166809D01*
X-35503Y167950D01*
X-35535Y168160D01*
X-35580Y168354D01*
X-35636Y168532D01*
X-36019Y169626D01*
X-36097Y169824D01*
X-36136Y169904D01*
X-36212Y170214D01*
X-36162Y170513D01*
X-35998Y170768D01*
X-35748Y170940D01*
X-35451Y171000D01*
X35451Y171000D01*
X35756Y170936D01*
X36004Y170762D01*
X36165Y170504D01*
X36212Y170205D01*
X36139Y169910D01*
X36087Y169801D01*
X36019Y169628D01*
X35637Y168534D01*
X35574Y168330D01*
X35531Y168136D01*
X35503Y167951D01*
X35375Y166809D01*
X35356Y166481D01*
X35356Y165639D01*
X35298Y165348D01*
X34810Y164169D01*
X34810Y163262D01*
X51590Y163262D01*
X51590Y164169D01*
X51102Y165348D01*
X51044Y165639D01*
X51044Y166481D01*
X51025Y166809D01*
X50897Y167950D01*
X50865Y168160D01*
X50820Y168354D01*
X50764Y168532D01*
X50381Y169626D01*
X50303Y169824D01*
X50264Y169904D01*
X50188Y170214D01*
X50238Y170513D01*
X50402Y170768D01*
X50652Y170940D01*
X50949Y171000D01*
X59648Y171000D01*
X59923Y170949D01*
X60178Y170785D01*
X60350Y170535D01*
X60410Y170238D01*
X60410Y163698D01*
X61372Y162736D01*
X61535Y162495D01*
X61595Y162197D01*
X61595Y160302D01*
X61544Y160027D01*
X61380Y159772D01*
X61130Y159600D01*
X60833Y159540D01*
X58668Y159540D01*
X57180Y158052D01*
X57180Y133948D01*
X58668Y132460D01*
X60833Y132460D01*
X61108Y132409D01*
X61363Y132245D01*
X61535Y131995D01*
X61595Y131698D01*
X61595Y126091D01*
X61539Y125805D01*
X61372Y125552D01*
X52345Y116525D01*
X52125Y116372D01*
X51830Y116302D01*
X51531Y116353D01*
X51276Y116516D01*
X51104Y116766D01*
X51044Y117064D01*
X51044Y117861D01*
X51102Y118152D01*
X51590Y119331D01*
X51590Y120238D01*
X42438Y120238D01*
X42438Y134274D01*
X41750Y134197D01*
X41540Y134165D01*
X41346Y134120D01*
X41168Y134064D01*
X40074Y133681D01*
X39876Y133603D01*
X39697Y133516D01*
X39535Y133422D01*
X38555Y132806D01*
X38379Y132686D01*
X38224Y132561D01*
X38087Y132433D01*
X37268Y131614D01*
X37124Y131458D01*
X37000Y131301D01*
X36895Y131147D01*
X36279Y130166D01*
X36173Y129981D01*
X36087Y129801D01*
X36019Y129628D01*
X35724Y128784D01*
X35565Y128519D01*
X35319Y128342D01*
X35023Y128274D01*
X34725Y128327D01*
X34470Y128493D01*
X34301Y128744D01*
X34020Y129421D01*
X32321Y131120D01*
X30101Y132040D01*
X27699Y132040D01*
X25479Y131120D01*
X23780Y129421D01*
X23065Y127696D01*
X22916Y127466D01*
X22669Y127290D01*
X22373Y127225D01*
X22075Y127281D01*
X21822Y127448D01*
X15185Y134085D01*
X15022Y134327D01*
X14962Y134624D01*
X14962Y136609D01*
X13164Y138407D01*
X13006Y138637D01*
X12941Y138933D01*
X12997Y139231D01*
X13164Y139484D01*
X13792Y140112D01*
X14034Y140275D01*
X14331Y140335D01*
X34168Y140335D01*
X34454Y140279D01*
X34707Y140112D01*
X36111Y138708D01*
X40089Y138708D01*
X42902Y141521D01*
X42902Y145499D01*
X40089Y148312D01*
X36111Y148312D01*
X34707Y146908D01*
X34466Y146745D01*
X34168Y146685D01*
X11385Y146685D01*
X-3175Y132125D01*
X-3175Y127127D01*
X-3226Y126852D01*
X-3390Y126597D01*
X-3640Y126425D01*
X-3937Y126365D01*
X-6395Y126365D01*
X-8997Y123763D01*
X-9239Y123600D01*
X-9536Y123540D01*
X-11303Y123540D01*
X-11578Y123591D01*
X-11833Y123755D01*
X-12005Y124005D01*
X-12065Y124302D01*
X-12065Y132125D01*
X-17735Y137795D01*
X-28849Y137795D01*
X-29135Y137851D01*
X-29388Y138018D01*
X-41153Y149783D01*
X-41325Y150048D01*
X-41376Y150347D01*
X-41306Y150642D01*
X-41127Y150886D01*
X-40866Y151042D01*
X-40074Y151319D01*
X-39876Y151397D01*
X-39697Y151484D01*
X-39535Y151578D01*
X-38555Y152194D01*
X-38379Y152314D01*
X-38224Y152439D01*
X-38087Y152567D01*
X-37268Y153386D01*
X-37124Y153542D01*
X-37000Y153699D01*
X-36895Y153853D01*
X-36279Y154834D01*
X-36173Y155019D01*
X-36087Y155199D01*
X-36019Y155372D01*
X-35637Y156466D01*
X-35574Y156670D01*
X-35531Y156864D01*
X-35503Y157049D01*
X-35375Y158191D01*
X-35356Y158519D01*
X-35356Y159361D01*
X-35298Y159652D01*
X-34810Y160831D01*
X-34810Y161738D01*
X-51673Y161738D01*
X-51796Y161538D01*
X-52044Y161363D01*
X-52340Y161298D01*
X-52638Y161353D01*
X-52891Y161521D01*
X-58375Y167005D01*
X-66698Y167005D01*
X-66973Y167056D01*
X-67228Y167220D01*
X-67400Y167470D01*
X-67460Y167767D01*
X-67460Y167802D01*
X-68948Y169290D01*
X-73594Y169290D01*
X-73692Y169223D01*
X-73988Y169158D01*
X-74286Y169213D01*
X-74402Y169290D01*
X-75988Y169290D01*
X-75988Y160710D01*
X-74406Y160710D01*
X-74308Y160777D01*
X-74012Y160842D01*
X-73714Y160787D01*
X-73598Y160710D01*
X-72806Y160710D01*
X-72523Y160655D01*
X-72501Y160655D01*
X-72295Y160627D01*
X-72100Y160527D01*
X-70986Y160650D01*
X-70902Y160655D01*
X-61321Y160655D01*
X-61035Y160599D01*
X-60782Y160432D01*
X-32435Y132085D01*
X-32277Y131854D01*
X-32212Y131558D01*
X-32267Y131260D01*
X-32435Y131007D01*
X-34020Y129421D01*
X-34301Y128744D01*
X-34475Y128488D01*
X-34730Y128325D01*
X-35029Y128274D01*
X-35325Y128344D01*
X-35569Y128524D01*
X-35724Y128784D01*
X-36019Y129626D01*
X-36097Y129824D01*
X-36184Y130003D01*
X-36278Y130165D01*
X-36894Y131145D01*
X-37014Y131321D01*
X-37139Y131476D01*
X-37267Y131613D01*
X-38086Y132432D01*
X-38242Y132577D01*
X-38399Y132700D01*
X-38553Y132805D01*
X-39534Y133421D01*
X-39719Y133527D01*
X-39899Y133613D01*
X-40072Y133681D01*
X-41166Y134063D01*
X-41370Y134126D01*
X-41564Y134169D01*
X-41749Y134197D01*
X-42438Y134274D01*
X-42438Y120238D01*
X-51590Y120238D01*
X-51590Y119331D01*
X-51102Y118152D01*
X-51044Y117861D01*
X-51044Y115519D01*
X-51025Y115191D01*
X-50897Y114050D01*
X-50865Y113840D01*
X-50820Y113646D01*
X-50764Y113468D01*
X-50381Y112374D01*
X-50300Y112166D01*
X-50247Y111911D01*
X-50298Y111612D01*
X-50461Y111357D01*
X-50711Y111185D01*
X-51008Y111125D01*
X-51709Y111125D01*
X-51995Y111181D01*
X-52248Y111348D01*
X-63957Y123057D01*
X-64120Y123299D01*
X-64180Y123596D01*
X-64180Y139052D01*
X-65668Y140540D01*
X-79772Y140540D01*
X-81260Y139052D01*
X-81260Y114948D01*
X-79772Y113460D01*
X-65668Y113460D01*
X-65043Y114085D01*
X-64812Y114243D01*
X-64516Y114308D01*
X-64218Y114253D01*
X-63965Y114085D01*
X-54655Y104775D01*
X-38461Y104775D01*
X-38175Y104719D01*
X-37922Y104552D01*
X-33461Y100091D01*
X-33308Y99871D01*
X-33238Y99576D01*
X-33289Y99277D01*
X-33452Y99022D01*
X-33703Y98850D01*
X-34000Y98790D01*
X-35288Y98790D01*
X-35288Y93238D01*
X-40590Y93238D01*
X-40590Y90638D01*
X-40575Y90616D01*
X-40505Y90321D01*
X-40556Y90022D01*
X-40719Y89767D01*
X-40970Y89595D01*
X-41267Y89535D01*
X-65313Y89535D01*
X-65577Y89582D01*
X-65835Y89741D01*
X-66010Y89989D01*
X-66075Y90285D01*
X-66020Y90583D01*
X-65852Y90836D01*
X-65460Y91228D01*
X-65460Y105332D01*
X-66948Y106820D01*
X-82964Y106820D01*
X-83250Y106876D01*
X-83503Y107043D01*
X-88619Y112159D01*
X-88772Y112379D01*
X-88842Y112674D01*
X-88791Y112973D01*
X-88628Y113228D01*
X-88377Y113400D01*
X-88080Y113460D01*
X-86228Y113460D01*
X-84740Y114948D01*
X-84740Y139052D01*
X-86228Y140540D01*
X-100332Y140540D01*
X-101820Y139052D01*
X-101820Y114948D01*
X-100332Y113460D01*
X-96647Y113460D01*
X-96372Y113409D01*
X-96117Y113245D01*
X-95945Y112995D01*
X-95885Y112698D01*
X-95885Y110445D01*
X-92195Y106755D01*
X-92037Y106524D01*
X-91972Y106228D01*
X-92027Y105930D01*
X-92195Y105677D01*
X-92540Y105332D01*
X-92540Y91228D01*
X-91705Y90393D01*
X-91547Y90162D01*
X-91482Y89866D01*
X-91537Y89568D01*
X-91705Y89315D01*
X-93568Y87452D01*
X-95885Y85135D01*
X-95885Y69805D01*
X-94421Y68341D01*
X-94268Y68121D01*
X-94198Y67826D01*
X-94249Y67527D01*
X-94317Y67421D01*
X-94238Y67421D01*
X-94238Y62262D01*
X-89079Y62262D01*
X-89079Y62186D01*
X-89006Y62237D01*
X-88710Y62302D01*
X-88412Y62247D01*
X-88159Y62079D01*
X-55925Y29845D01*
X-51284Y29845D01*
X-51009Y29794D01*
X-50754Y29630D01*
X-50582Y29380D01*
X-50522Y29083D01*
X-50522Y25951D01*
X-48097Y23526D01*
X-47944Y23306D01*
X-47874Y23011D01*
X-47925Y22712D01*
X-48088Y22457D01*
X-48338Y22285D01*
X-48636Y22225D01*
X-80055Y22225D01*
X-91656Y10624D01*
X-91886Y10466D01*
X-92182Y10401D01*
X-92481Y10457D01*
X-92733Y10624D01*
X-94531Y12422D01*
X-98509Y12422D01*
X-99913Y11018D01*
X-100154Y10855D01*
X-100452Y10795D01*
X-107948Y10795D01*
X-108223Y10846D01*
X-108478Y11010D01*
X-108650Y11260D01*
X-108710Y11557D01*
X-108710Y21738D01*
X-120790Y21738D01*
X-120790Y19906D01*
X-120846Y19620D01*
X-121013Y19367D01*
X-146685Y-6305D01*
X-146685Y-56789D01*
X-146741Y-57075D01*
X-146908Y-57328D01*
X-152699Y-63119D01*
X-152919Y-63272D01*
G37*
%LPC*%
G36*
X-80540Y165762D02*
X-77512Y165762D01*
X-77512Y169290D01*
X-79052Y169290D01*
X-80540Y167802D01*
X-80540Y165762D01*
G37*
G36*
X-79052Y160710D02*
X-77512Y160710D01*
X-77512Y164238D01*
X-80540Y164238D01*
X-80540Y162198D01*
X-79052Y160710D01*
G37*
G36*
X43962Y161738D02*
X43962Y150726D01*
X44650Y150803D01*
X44860Y150835D01*
X45054Y150880D01*
X45232Y150936D01*
X46326Y151319D01*
X46524Y151397D01*
X46703Y151484D01*
X46865Y151578D01*
X47845Y152194D01*
X48021Y152314D01*
X48176Y152439D01*
X48313Y152567D01*
X49132Y153386D01*
X49277Y153542D01*
X49400Y153699D01*
X49505Y153853D01*
X50121Y154834D01*
X50227Y155019D01*
X50313Y155199D01*
X50381Y155372D01*
X50763Y156466D01*
X50826Y156670D01*
X50869Y156864D01*
X50897Y157049D01*
X51025Y158191D01*
X51044Y158519D01*
X51044Y159361D01*
X51102Y159652D01*
X51590Y160831D01*
X51590Y161738D01*
X43962Y161738D01*
G37*
G36*
X41749Y150803D02*
X42438Y150726D01*
X42438Y161738D01*
X34810Y161738D01*
X34810Y160831D01*
X35298Y159652D01*
X35356Y159361D01*
X35356Y158519D01*
X35375Y158191D01*
X35503Y157050D01*
X35535Y156840D01*
X35580Y156646D01*
X35636Y156468D01*
X36019Y155374D01*
X36097Y155176D01*
X36184Y154997D01*
X36278Y154835D01*
X36894Y153855D01*
X37014Y153679D01*
X37139Y153524D01*
X37267Y153387D01*
X38086Y152568D01*
X38242Y152424D01*
X38399Y152300D01*
X38553Y152195D01*
X39534Y151579D01*
X39719Y151473D01*
X39899Y151387D01*
X40072Y151319D01*
X41166Y150937D01*
X41370Y150874D01*
X41564Y150831D01*
X41749Y150803D01*
G37*
G36*
X43962Y121762D02*
X51590Y121762D01*
X51590Y122669D01*
X51102Y123848D01*
X51044Y124139D01*
X51044Y126481D01*
X51025Y126809D01*
X50897Y127950D01*
X50865Y128160D01*
X50820Y128354D01*
X50764Y128532D01*
X50381Y129626D01*
X50303Y129824D01*
X50216Y130003D01*
X50122Y130165D01*
X49506Y131145D01*
X49386Y131321D01*
X49261Y131476D01*
X49133Y131613D01*
X48314Y132432D01*
X48158Y132577D01*
X48001Y132700D01*
X47847Y132805D01*
X46866Y133421D01*
X46681Y133527D01*
X46501Y133613D01*
X46328Y133681D01*
X45234Y134063D01*
X45030Y134126D01*
X44836Y134169D01*
X44651Y134197D01*
X43962Y134274D01*
X43962Y121762D01*
G37*
G36*
X-51590Y121762D02*
X-43962Y121762D01*
X-43962Y134274D01*
X-44650Y134197D01*
X-44860Y134165D01*
X-45054Y134120D01*
X-45232Y134064D01*
X-46326Y133681D01*
X-46524Y133603D01*
X-46703Y133516D01*
X-46865Y133422D01*
X-47845Y132806D01*
X-48021Y132686D01*
X-48176Y132561D01*
X-48313Y132433D01*
X-49132Y131614D01*
X-49277Y131458D01*
X-49400Y131301D01*
X-49505Y131147D01*
X-50121Y130166D01*
X-50227Y129981D01*
X-50313Y129801D01*
X-50381Y129628D01*
X-50763Y128534D01*
X-50826Y128330D01*
X-50869Y128136D01*
X-50897Y127951D01*
X-51025Y126809D01*
X-51044Y126481D01*
X-51044Y124139D01*
X-51102Y123848D01*
X-51590Y122669D01*
X-51590Y121762D01*
G37*
G36*
X-216002Y93762D02*
X-208382Y93762D01*
X-208382Y103541D01*
X-214514Y103541D01*
X-216002Y102053D01*
X-216002Y93762D01*
G37*
G36*
X-40590Y94762D02*
X-36812Y94762D01*
X-36812Y98790D01*
X-39102Y98790D01*
X-40590Y97302D01*
X-40590Y94762D01*
G37*
G36*
X-214514Y82459D02*
X-208382Y82459D01*
X-208382Y92238D01*
X-216002Y92238D01*
X-216002Y83947D01*
X-214514Y82459D01*
G37*
G36*
X-140488Y66162D02*
X-133710Y66162D01*
X-133710Y67952D01*
X-135198Y69440D01*
X-140488Y69440D01*
X-140488Y66162D01*
G37*
G36*
X-148790Y66162D02*
X-142012Y66162D01*
X-142012Y69440D01*
X-147302Y69440D01*
X-148790Y67952D01*
X-148790Y66162D01*
G37*
G36*
X-100540Y62262D02*
X-95762Y62262D01*
X-95762Y67040D01*
X-99052Y67040D01*
X-100540Y65552D01*
X-100540Y62262D01*
G37*
G36*
X-140488Y61360D02*
X-135198Y61360D01*
X-133710Y62848D01*
X-133710Y64638D01*
X-140488Y64638D01*
X-140488Y61360D01*
G37*
G36*
X-147302Y61360D02*
X-142012Y61360D01*
X-142012Y64638D01*
X-148790Y64638D01*
X-148790Y62848D01*
X-147302Y61360D01*
G37*
G36*
X-94238Y22960D02*
X-90948Y22960D01*
X-89460Y24448D01*
X-89460Y27738D01*
X-94238Y27738D01*
X-94238Y22960D01*
G37*
G36*
X-99052Y22960D02*
X-95762Y22960D01*
X-95762Y27738D01*
X-100540Y27738D01*
X-100540Y24448D01*
X-99052Y22960D01*
G37*
%LPD*%
G36*
X187762Y-24410D02*
X187762Y-29712D01*
X186238Y-29712D01*
X186238Y-24410D01*
X183698Y-24410D01*
X183039Y-25069D01*
X182808Y-25227D01*
X182512Y-25292D01*
X182214Y-25237D01*
X181961Y-25069D01*
X181300Y-24408D01*
X181046Y-24363D01*
X180788Y-24204D01*
X180613Y-23956D01*
X180548Y-23660D01*
X180603Y-23362D01*
X180771Y-23109D01*
X187325Y-16555D01*
X187325Y1082D01*
X187372Y1345D01*
X187531Y1603D01*
X187779Y1779D01*
X188075Y1844D01*
X188373Y1788D01*
X188626Y1621D01*
X192019Y-1773D01*
X197457Y-4025D01*
X203343Y-4025D01*
X208781Y-1773D01*
X212943Y2389D01*
X215195Y7827D01*
X215195Y13713D01*
X212943Y19151D01*
X208781Y23313D01*
X203343Y25565D01*
X197457Y25565D01*
X192019Y23313D01*
X188330Y19624D01*
X188117Y19473D01*
X187822Y19401D01*
X187523Y19450D01*
X187266Y19611D01*
X187092Y19860D01*
X187030Y20157D01*
X187088Y20454D01*
X187805Y22186D01*
X187805Y24754D01*
X186822Y27126D01*
X185006Y28942D01*
X184587Y29116D01*
X184362Y29260D01*
X184184Y29506D01*
X184117Y29802D01*
X184170Y30100D01*
X184336Y30355D01*
X184587Y30524D01*
X185006Y30698D01*
X186822Y32514D01*
X187165Y33341D01*
X187314Y33571D01*
X187561Y33747D01*
X187857Y33812D01*
X188155Y33756D01*
X188408Y33589D01*
X192019Y29977D01*
X197457Y27725D01*
X203343Y27725D01*
X208781Y29977D01*
X212943Y34139D01*
X215195Y39577D01*
X215195Y45463D01*
X212943Y50901D01*
X208781Y55063D01*
X203343Y57315D01*
X197457Y57315D01*
X192019Y55063D01*
X188411Y51454D01*
X188186Y51299D01*
X187890Y51231D01*
X187592Y51285D01*
X187338Y51450D01*
X187168Y51701D01*
X186822Y52536D01*
X186781Y52577D01*
X186626Y52802D01*
X186558Y53098D01*
X186612Y53397D01*
X186777Y53651D01*
X187029Y53820D01*
X189621Y54894D01*
X191836Y57109D01*
X193035Y60004D01*
X193035Y63136D01*
X191836Y66031D01*
X189621Y68246D01*
X186726Y69445D01*
X183594Y69445D01*
X180699Y68246D01*
X178484Y66031D01*
X177285Y63136D01*
X177285Y60004D01*
X178484Y57109D01*
X179395Y56198D01*
X179551Y55973D01*
X179618Y55677D01*
X179565Y55379D01*
X179400Y55124D01*
X179148Y54955D01*
X177694Y54352D01*
X175878Y52536D01*
X175704Y52117D01*
X175560Y51892D01*
X175314Y51714D01*
X175018Y51647D01*
X174720Y51700D01*
X174466Y51866D01*
X174296Y52117D01*
X174122Y52536D01*
X172306Y54352D01*
X170852Y54955D01*
X170622Y55103D01*
X170447Y55351D01*
X170382Y55647D01*
X170437Y55945D01*
X170605Y56198D01*
X171516Y57109D01*
X172715Y60004D01*
X172715Y63136D01*
X171516Y66031D01*
X169301Y68246D01*
X166406Y69445D01*
X163274Y69445D01*
X160379Y68246D01*
X158164Y66031D01*
X156965Y63136D01*
X156965Y62357D01*
X156914Y62082D01*
X156750Y61827D01*
X156500Y61655D01*
X156203Y61595D01*
X142195Y61595D01*
X127666Y47066D01*
X127446Y46913D01*
X127151Y46843D01*
X126852Y46894D01*
X126597Y47057D01*
X126425Y47308D01*
X126365Y47605D01*
X126365Y48305D01*
X123763Y50907D01*
X123600Y51149D01*
X123540Y51446D01*
X123540Y56552D01*
X123031Y57061D01*
X122873Y57292D01*
X122808Y57588D01*
X122863Y57886D01*
X123031Y58139D01*
X124590Y59698D01*
X124590Y62238D01*
X119288Y62238D01*
X119288Y63762D01*
X124590Y63762D01*
X124590Y66302D01*
X123531Y67361D01*
X123373Y67592D01*
X123308Y67888D01*
X123363Y68186D01*
X123531Y68439D01*
X125040Y69948D01*
X125040Y73238D01*
X118738Y73238D01*
X118738Y74762D01*
X125040Y74762D01*
X125040Y78052D01*
X123552Y79540D01*
X123272Y79540D01*
X123008Y79587D01*
X122750Y79746D01*
X122575Y79994D01*
X122510Y80290D01*
X122565Y80588D01*
X122733Y80841D01*
X122790Y80898D01*
X122790Y89288D01*
X113210Y89288D01*
X113210Y84996D01*
X113154Y84710D01*
X112987Y84457D01*
X111125Y82595D01*
X111125Y80302D01*
X111074Y80027D01*
X110910Y79772D01*
X110660Y79600D01*
X110363Y79540D01*
X104448Y79540D01*
X102960Y78052D01*
X102960Y73476D01*
X102904Y73190D01*
X102737Y72937D01*
X67488Y37688D01*
X67246Y37525D01*
X66949Y37465D01*
X53824Y37465D01*
X53549Y37516D01*
X53294Y37680D01*
X53122Y37930D01*
X53062Y38227D01*
X53062Y41359D01*
X51658Y42763D01*
X51495Y43004D01*
X51435Y43302D01*
X51435Y59329D01*
X51491Y59615D01*
X51658Y59868D01*
X78205Y86415D01*
X78447Y86578D01*
X78744Y86638D01*
X79459Y86638D01*
X82272Y89451D01*
X82272Y90166D01*
X82328Y90452D01*
X82495Y90705D01*
X83977Y92187D01*
X84219Y92350D01*
X84516Y92410D01*
X85302Y92410D01*
X86800Y93908D01*
X86841Y94128D01*
X87005Y94383D01*
X87255Y94555D01*
X87552Y94615D01*
X94177Y94615D01*
X94463Y94559D01*
X94716Y94392D01*
X94898Y94210D01*
X103288Y94210D01*
X103288Y103790D01*
X101727Y103790D01*
X101452Y103841D01*
X101197Y104005D01*
X101025Y104255D01*
X100965Y104552D01*
X100965Y107103D01*
X101012Y107367D01*
X101171Y107625D01*
X101419Y107800D01*
X101715Y107865D01*
X102013Y107810D01*
X102266Y107642D01*
X102448Y107460D01*
X105738Y107460D01*
X105738Y118540D01*
X102448Y118540D01*
X101539Y117631D01*
X101308Y117473D01*
X101012Y117408D01*
X100714Y117463D01*
X100461Y117631D01*
X99552Y118540D01*
X91448Y118540D01*
X89960Y117052D01*
X89960Y108948D01*
X91448Y107460D01*
X93853Y107460D01*
X94128Y107409D01*
X94383Y107245D01*
X94555Y106995D01*
X94615Y106698D01*
X94615Y103823D01*
X94559Y103537D01*
X94392Y103284D01*
X93410Y102302D01*
X93410Y101727D01*
X93359Y101452D01*
X93195Y101197D01*
X92945Y101025D01*
X92648Y100965D01*
X87552Y100965D01*
X87277Y101016D01*
X87022Y101180D01*
X86850Y101430D01*
X86790Y101727D01*
X86790Y102288D01*
X77210Y102288D01*
X77210Y97004D01*
X77159Y96729D01*
X76995Y96474D01*
X76745Y96302D01*
X76448Y96242D01*
X75481Y96242D01*
X73091Y93852D01*
X72871Y93699D01*
X72576Y93629D01*
X72277Y93680D01*
X72022Y93843D01*
X71850Y94093D01*
X71790Y94391D01*
X71790Y96102D01*
X70302Y97590D01*
X63636Y97590D01*
X63621Y97580D01*
X63326Y97510D01*
X63027Y97561D01*
X62772Y97724D01*
X62600Y97975D01*
X62596Y97996D01*
X61052Y99540D01*
X49448Y99540D01*
X48539Y98631D01*
X48308Y98473D01*
X48012Y98408D01*
X47714Y98463D01*
X47461Y98631D01*
X46935Y99157D01*
X46772Y99399D01*
X46712Y99696D01*
X46712Y101596D01*
X46768Y101882D01*
X46935Y102135D01*
X67945Y123145D01*
X67945Y131698D01*
X67996Y131973D01*
X68160Y132228D01*
X68410Y132400D01*
X68707Y132460D01*
X72772Y132460D01*
X74260Y133948D01*
X74260Y158052D01*
X72772Y159540D01*
X68707Y159540D01*
X68432Y159591D01*
X68177Y159755D01*
X68005Y160005D01*
X67945Y160302D01*
X67945Y161448D01*
X67996Y161723D01*
X68160Y161978D01*
X68410Y162150D01*
X68707Y162210D01*
X70288Y162210D01*
X70288Y167762D01*
X75590Y167762D01*
X75590Y170238D01*
X75641Y170513D01*
X75805Y170768D01*
X76055Y170940D01*
X76352Y171000D01*
X79648Y171000D01*
X79923Y170949D01*
X80178Y170785D01*
X80350Y170535D01*
X80410Y170238D01*
X80410Y168762D01*
X85712Y168762D01*
X85712Y163210D01*
X86233Y163210D01*
X86508Y163159D01*
X86763Y162995D01*
X86935Y162745D01*
X86995Y162448D01*
X86995Y160302D01*
X86944Y160027D01*
X86780Y159772D01*
X86530Y159600D01*
X86233Y159540D01*
X79228Y159540D01*
X77740Y158052D01*
X77740Y133948D01*
X79228Y132460D01*
X93332Y132460D01*
X94820Y133948D01*
X94820Y140248D01*
X94867Y140512D01*
X95026Y140770D01*
X95274Y140945D01*
X95570Y141010D01*
X95868Y140955D01*
X96121Y140787D01*
X97448Y139460D01*
X101116Y139460D01*
X101391Y139409D01*
X101646Y139245D01*
X101818Y138995D01*
X101878Y138698D01*
X101878Y136441D01*
X104691Y133628D01*
X108669Y133628D01*
X111482Y136441D01*
X111482Y138698D01*
X111533Y138973D01*
X111697Y139228D01*
X111947Y139400D01*
X112244Y139460D01*
X116552Y139460D01*
X118040Y140948D01*
X118040Y142113D01*
X118091Y142388D01*
X118255Y142643D01*
X118505Y142815D01*
X118802Y142875D01*
X137033Y142875D01*
X137308Y142824D01*
X137563Y142660D01*
X137735Y142410D01*
X137795Y142113D01*
X137795Y137802D01*
X137744Y137527D01*
X137580Y137272D01*
X137330Y137100D01*
X137033Y137040D01*
X125448Y137040D01*
X123960Y135552D01*
X123960Y130036D01*
X123904Y129750D01*
X123737Y129497D01*
X122455Y128215D01*
X122213Y128052D01*
X121916Y127992D01*
X119931Y127992D01*
X117118Y125179D01*
X117118Y122653D01*
X117071Y122389D01*
X116912Y122131D01*
X116664Y121956D01*
X116368Y121891D01*
X116070Y121946D01*
X115817Y122114D01*
X115019Y122912D01*
X111041Y122912D01*
X108228Y120099D01*
X108228Y119302D01*
X108177Y119027D01*
X108013Y118772D01*
X107763Y118600D01*
X107466Y118540D01*
X107262Y118540D01*
X107262Y107460D01*
X110552Y107460D01*
X112040Y108948D01*
X112040Y112546D01*
X112091Y112821D01*
X112255Y113076D01*
X112505Y113248D01*
X112802Y113308D01*
X115019Y113308D01*
X116423Y114712D01*
X116664Y114875D01*
X116962Y114935D01*
X122829Y114935D01*
X123115Y114879D01*
X123368Y114712D01*
X123737Y114343D01*
X123900Y114101D01*
X123960Y113804D01*
X123960Y108448D01*
X125448Y106960D01*
X139552Y106960D01*
X141040Y108448D01*
X141040Y110679D01*
X141087Y110943D01*
X141246Y111201D01*
X141494Y111376D01*
X141790Y111441D01*
X142088Y111386D01*
X142341Y111218D01*
X145331Y108228D01*
X148864Y108228D01*
X149150Y108172D01*
X149403Y108005D01*
X150448Y106960D01*
X164552Y106960D01*
X166040Y108448D01*
X166040Y116552D01*
X165881Y116711D01*
X165723Y116942D01*
X165658Y117238D01*
X165713Y117536D01*
X165881Y117789D01*
X166040Y117948D01*
X166040Y121238D01*
X148960Y121238D01*
X148960Y118594D01*
X148909Y118319D01*
X148745Y118064D01*
X148495Y117892D01*
X148198Y117832D01*
X145331Y117832D01*
X142341Y114842D01*
X142121Y114689D01*
X141826Y114619D01*
X141527Y114670D01*
X141272Y114833D01*
X141100Y115083D01*
X141040Y115381D01*
X141040Y116552D01*
X140881Y116711D01*
X140723Y116942D01*
X140658Y117238D01*
X140713Y117536D01*
X140881Y117789D01*
X141040Y117948D01*
X141040Y123534D01*
X141096Y123820D01*
X141263Y124073D01*
X144361Y127171D01*
X144591Y127329D01*
X144887Y127394D01*
X145186Y127338D01*
X145276Y127278D01*
X148346Y127278D01*
X148610Y127231D01*
X148868Y127072D01*
X149043Y126824D01*
X149108Y126528D01*
X149053Y126230D01*
X148960Y126090D01*
X148960Y122762D01*
X166040Y122762D01*
X166040Y126052D01*
X165881Y126211D01*
X165723Y126442D01*
X165658Y126738D01*
X165713Y127036D01*
X165881Y127289D01*
X166040Y127448D01*
X166040Y135552D01*
X164552Y137040D01*
X150448Y137040D01*
X150338Y136930D01*
X150108Y136772D01*
X149812Y136707D01*
X149514Y136763D01*
X149334Y136882D01*
X145281Y136882D01*
X145226Y136844D01*
X144931Y136774D01*
X144632Y136825D01*
X144377Y136988D01*
X144205Y137238D01*
X144145Y137536D01*
X144145Y140648D01*
X144196Y140923D01*
X144360Y141178D01*
X144610Y141350D01*
X144907Y141410D01*
X151302Y141410D01*
X152790Y142898D01*
X152790Y151288D01*
X143210Y151288D01*
X143210Y149987D01*
X143159Y149712D01*
X142995Y149457D01*
X142745Y149285D01*
X142448Y149225D01*
X118183Y149225D01*
X117897Y149281D01*
X117644Y149448D01*
X116428Y150664D01*
X116265Y150906D01*
X116205Y151203D01*
X116205Y152797D01*
X116261Y153083D01*
X116428Y153336D01*
X118040Y154948D01*
X118040Y162433D01*
X118091Y162708D01*
X118255Y162963D01*
X118505Y163135D01*
X118802Y163195D01*
X131648Y163195D01*
X131923Y163144D01*
X132178Y162980D01*
X132289Y162819D01*
X133898Y161210D01*
X142288Y161210D01*
X142288Y166762D01*
X143812Y166762D01*
X143812Y161210D01*
X146102Y161210D01*
X147777Y162885D01*
X148008Y163043D01*
X148304Y163108D01*
X148602Y163053D01*
X148855Y162885D01*
X167595Y144145D01*
X173698Y144145D01*
X173973Y144094D01*
X174228Y143930D01*
X174400Y143680D01*
X174460Y143383D01*
X174460Y140198D01*
X175948Y138710D01*
X196052Y138710D01*
X197540Y140198D01*
X197540Y153802D01*
X196052Y155290D01*
X175948Y155290D01*
X174460Y153802D01*
X174460Y151257D01*
X174409Y150982D01*
X174245Y150727D01*
X173995Y150555D01*
X173698Y150495D01*
X170541Y150495D01*
X170255Y150551D01*
X170002Y150718D01*
X151021Y169699D01*
X150868Y169919D01*
X150798Y170214D01*
X150849Y170513D01*
X151012Y170768D01*
X151263Y170940D01*
X151560Y171000D01*
X166195Y171000D01*
X166280Y170995D01*
X174757Y170040D01*
X174924Y170002D01*
X188718Y165175D01*
X189005Y164995D01*
X217777Y136223D01*
X217940Y135982D01*
X218000Y135684D01*
X218000Y-21068D01*
X217953Y-21332D01*
X217794Y-21590D01*
X217546Y-21765D01*
X217250Y-21830D01*
X216952Y-21775D01*
X216699Y-21607D01*
X216552Y-21460D01*
X208448Y-21460D01*
X206911Y-22997D01*
X206909Y-23008D01*
X206745Y-23263D01*
X206495Y-23435D01*
X206198Y-23495D01*
X205703Y-23495D01*
X205417Y-23439D01*
X205164Y-23272D01*
X204102Y-22210D01*
X195712Y-22210D01*
X195712Y-27762D01*
X194188Y-27762D01*
X194188Y-22210D01*
X191898Y-22210D01*
X190399Y-23709D01*
X190359Y-23923D01*
X190195Y-24178D01*
X189945Y-24350D01*
X189648Y-24410D01*
X187762Y-24410D01*
G37*
%LPC*%
G36*
X81898Y163210D02*
X84188Y163210D01*
X84188Y167238D01*
X80410Y167238D01*
X80410Y164698D01*
X81898Y163210D01*
G37*
G36*
X71812Y162210D02*
X74102Y162210D01*
X75590Y163698D01*
X75590Y166238D01*
X71812Y166238D01*
X71812Y162210D01*
G37*
G36*
X148762Y152812D02*
X152790Y152812D01*
X152790Y155102D01*
X151302Y156590D01*
X148762Y156590D01*
X148762Y152812D01*
G37*
G36*
X143210Y152812D02*
X147238Y152812D01*
X147238Y156590D01*
X144698Y156590D01*
X143210Y155102D01*
X143210Y152812D01*
G37*
G36*
X175948Y108710D02*
X196052Y108710D01*
X197540Y110198D01*
X197540Y123802D01*
X196052Y125290D01*
X175948Y125290D01*
X174460Y123802D01*
X174460Y110198D01*
X175948Y108710D01*
G37*
G36*
X77210Y103812D02*
X81238Y103812D01*
X81238Y107590D01*
X78698Y107590D01*
X77210Y106102D01*
X77210Y103812D01*
G37*
G36*
X82762Y103812D02*
X86790Y103812D01*
X86790Y106102D01*
X85302Y107590D01*
X82762Y107590D01*
X82762Y103812D01*
G37*
G36*
X104812Y99762D02*
X108590Y99762D01*
X108590Y102302D01*
X107102Y103790D01*
X104812Y103790D01*
X104812Y99762D01*
G37*
G36*
X104812Y94210D02*
X107102Y94210D01*
X108590Y95698D01*
X108590Y98238D01*
X104812Y98238D01*
X104812Y94210D01*
G37*
G36*
X113210Y90812D02*
X117238Y90812D01*
X117238Y94590D01*
X114698Y94590D01*
X113210Y93102D01*
X113210Y90812D01*
G37*
G36*
X118762Y90812D02*
X122790Y90812D01*
X122790Y93102D01*
X121302Y94590D01*
X118762Y94590D01*
X118762Y90812D01*
G37*
%LPD*%
G36*
X-102629Y168628D02*
X-102924Y168558D01*
X-103223Y168609D01*
X-103478Y168772D01*
X-103583Y168925D01*
X-104357Y169699D01*
X-104510Y169919D01*
X-104580Y170214D01*
X-104529Y170513D01*
X-104366Y170768D01*
X-104116Y170940D01*
X-103818Y171000D01*
X-102030Y171000D01*
X-101766Y170953D01*
X-101508Y170794D01*
X-101333Y170546D01*
X-101268Y170250D01*
X-101323Y169952D01*
X-101491Y169699D01*
X-102409Y168781D01*
X-102629Y168628D01*
G37*
G36*
X102262Y150540D02*
X102262Y144238D01*
X100738Y144238D01*
X100738Y150540D01*
X97448Y150540D01*
X96121Y149213D01*
X95901Y149060D01*
X95606Y148990D01*
X95307Y149041D01*
X95052Y149204D01*
X94880Y149455D01*
X94820Y149752D01*
X94820Y154248D01*
X94867Y154512D01*
X95026Y154770D01*
X95274Y154945D01*
X95570Y155010D01*
X95868Y154955D01*
X96121Y154787D01*
X97448Y153460D01*
X100738Y153460D01*
X100738Y158238D01*
X95758Y158238D01*
X95754Y158230D01*
X95506Y158055D01*
X95210Y157990D01*
X94912Y158045D01*
X94659Y158213D01*
X93568Y159304D01*
X93405Y159546D01*
X93345Y159843D01*
X93345Y162448D01*
X93396Y162723D01*
X93560Y162978D01*
X93810Y163150D01*
X94101Y163209D01*
X94659Y163767D01*
X94879Y163920D01*
X95174Y163990D01*
X95473Y163939D01*
X95728Y163776D01*
X95900Y163526D01*
X95960Y163228D01*
X95960Y159762D01*
X102262Y159762D01*
X102262Y153460D01*
X105552Y153460D01*
X106461Y154369D01*
X106692Y154527D01*
X106988Y154592D01*
X107286Y154537D01*
X107539Y154369D01*
X108448Y153460D01*
X109093Y153460D01*
X109368Y153409D01*
X109623Y153245D01*
X109795Y152995D01*
X109855Y152698D01*
X109855Y151302D01*
X109804Y151027D01*
X109640Y150772D01*
X109390Y150600D01*
X109093Y150540D01*
X108448Y150540D01*
X107539Y149631D01*
X107308Y149473D01*
X107012Y149408D01*
X106714Y149463D01*
X106461Y149631D01*
X105552Y150540D01*
X102262Y150540D01*
G37*
G36*
X31812Y70790D02*
X31812Y65238D01*
X30288Y65238D01*
X30288Y70790D01*
X21808Y70790D01*
X21535Y70841D01*
X21279Y71004D01*
X21107Y71254D01*
X21046Y71551D01*
X21022Y85087D01*
X19532Y86572D01*
X16638Y86567D01*
X16362Y86619D01*
X16107Y86782D01*
X15935Y87032D01*
X15875Y87329D01*
X15875Y94448D01*
X15926Y94723D01*
X16090Y94978D01*
X16188Y95046D01*
X16188Y100762D01*
X17712Y100762D01*
X17712Y95210D01*
X24478Y95210D01*
X24742Y95163D01*
X25000Y95004D01*
X25175Y94756D01*
X25240Y94460D01*
X25185Y94162D01*
X25017Y93909D01*
X24210Y93102D01*
X24210Y90812D01*
X28238Y90812D01*
X28238Y94590D01*
X27322Y94590D01*
X27058Y94637D01*
X26800Y94796D01*
X26625Y95044D01*
X26560Y95340D01*
X26615Y95638D01*
X26783Y95891D01*
X27590Y96698D01*
X27590Y103302D01*
X26102Y104790D01*
X24476Y104790D01*
X24190Y104846D01*
X23937Y105013D01*
X23291Y105659D01*
X23138Y105879D01*
X23068Y106174D01*
X23119Y106473D01*
X23282Y106728D01*
X23533Y106900D01*
X23830Y106960D01*
X31238Y106960D01*
X31238Y116012D01*
X32762Y116012D01*
X32762Y106960D01*
X36052Y106960D01*
X37540Y108448D01*
X37540Y108453D01*
X37644Y108838D01*
X37846Y109064D01*
X38121Y109193D01*
X38424Y109205D01*
X38707Y109098D01*
X39534Y108579D01*
X39719Y108473D01*
X39899Y108387D01*
X40072Y108319D01*
X41166Y107937D01*
X41310Y107893D01*
X41599Y107728D01*
X41778Y107483D01*
X41848Y107188D01*
X41797Y106889D01*
X41634Y106634D01*
X41383Y106462D01*
X41086Y106402D01*
X39921Y106402D01*
X37108Y103589D01*
X37108Y100302D01*
X37057Y100027D01*
X36893Y99772D01*
X36643Y99600D01*
X36346Y99540D01*
X34948Y99540D01*
X33460Y98052D01*
X33460Y95272D01*
X33413Y95008D01*
X33254Y94750D01*
X33006Y94575D01*
X32710Y94510D01*
X32412Y94565D01*
X32375Y94590D01*
X29762Y94590D01*
X29762Y89288D01*
X24210Y89288D01*
X24210Y80898D01*
X25698Y79410D01*
X32364Y79410D01*
X32379Y79420D01*
X32674Y79490D01*
X32973Y79439D01*
X33228Y79276D01*
X33400Y79026D01*
X33460Y78728D01*
X33460Y75948D01*
X34948Y74460D01*
X36703Y74460D01*
X36978Y74409D01*
X37233Y74245D01*
X37405Y73995D01*
X37465Y73698D01*
X37465Y70211D01*
X37409Y69925D01*
X37242Y69672D01*
X36770Y69200D01*
X36539Y69042D01*
X36243Y68977D01*
X35945Y69032D01*
X35692Y69200D01*
X34102Y70790D01*
X31812Y70790D01*
G37*
G36*
X-2870Y70027D02*
X-3165Y69957D01*
X-3464Y70007D01*
X-3720Y70170D01*
X-3892Y70420D01*
X-3953Y70717D01*
X-3978Y85043D01*
X-5468Y86529D01*
X-5715Y86528D01*
X-6002Y86584D01*
X-6255Y86751D01*
X-6356Y86903D01*
X-6448Y86759D01*
X-6698Y86587D01*
X-6995Y86526D01*
X-10032Y86521D01*
X-10308Y86572D01*
X-10563Y86735D01*
X-10735Y86986D01*
X-10795Y87283D01*
X-10795Y87383D01*
X-10735Y87680D01*
X-10563Y87931D01*
X-10308Y88094D01*
X-10009Y88145D01*
X-9864Y88141D01*
X-9563Y97716D01*
X-12167Y97798D01*
X-17949Y97979D01*
X-19579Y96449D01*
X-19803Y96302D01*
X-20100Y96242D01*
X-21463Y96242D01*
X-21738Y96293D01*
X-21993Y96457D01*
X-22165Y96707D01*
X-22225Y97004D01*
X-22225Y97835D01*
X-30049Y105659D01*
X-30202Y105879D01*
X-30272Y106174D01*
X-30221Y106473D01*
X-30058Y106728D01*
X-29807Y106900D01*
X-29510Y106960D01*
X-5086Y106960D01*
X-4800Y106904D01*
X-4547Y106737D01*
X-1315Y103505D01*
X-677Y103505D01*
X-413Y103458D01*
X-155Y103299D01*
X20Y103051D01*
X85Y102755D01*
X30Y102457D01*
X-138Y102204D01*
X-290Y102052D01*
X-290Y100512D01*
X4762Y100512D01*
X4762Y98988D01*
X-290Y98988D01*
X-290Y97406D01*
X-223Y97308D01*
X-158Y97012D01*
X-213Y96714D01*
X-290Y96598D01*
X-290Y91948D01*
X1198Y90460D01*
X6802Y90460D01*
X8224Y91882D01*
X8444Y92035D01*
X8739Y92105D01*
X9038Y92054D01*
X9293Y91891D01*
X9465Y91641D01*
X9525Y91343D01*
X9525Y87316D01*
X9474Y87042D01*
X9311Y86786D01*
X9061Y86614D01*
X8764Y86554D01*
X7428Y86551D01*
X5942Y85061D01*
X5964Y73001D01*
X5908Y72713D01*
X5740Y72460D01*
X4864Y71584D01*
X4634Y71426D01*
X4338Y71361D01*
X4040Y71417D01*
X3787Y71584D01*
X3259Y72112D01*
X-719Y72112D01*
X-2652Y70179D01*
X-2870Y70027D01*
G37*
%LPC*%
G36*
X-8166Y93642D02*
X-4390Y93523D01*
X-4310Y96062D01*
X-5750Y97596D01*
X-8039Y97668D01*
X-8166Y93642D01*
G37*
G36*
X-6485Y87853D02*
X-6356Y87679D01*
X-6238Y87846D01*
X-4518Y89461D01*
X-4438Y92000D01*
X-8214Y92119D01*
X-8340Y88093D01*
X-6972Y88050D01*
X-6745Y88008D01*
X-6485Y87853D01*
G37*
%LPD*%
G36*
X43626Y41594D02*
X43331Y41524D01*
X43032Y41575D01*
X42777Y41738D01*
X42605Y41988D01*
X42545Y42286D01*
X42545Y61869D01*
X42601Y62155D01*
X42768Y62408D01*
X51435Y71075D01*
X51435Y73698D01*
X51486Y73973D01*
X51650Y74228D01*
X51900Y74400D01*
X52197Y74460D01*
X54488Y74460D01*
X54488Y82012D01*
X62600Y82012D01*
X62746Y82250D01*
X62994Y82425D01*
X63290Y82490D01*
X63588Y82435D01*
X63841Y82267D01*
X63920Y82188D01*
X64078Y81957D01*
X64143Y81661D01*
X64088Y81363D01*
X63920Y81110D01*
X63841Y81031D01*
X63621Y80878D01*
X63326Y80808D01*
X63027Y80859D01*
X62921Y80927D01*
X62921Y80488D01*
X56012Y80488D01*
X56012Y74169D01*
X56127Y74006D01*
X56192Y73710D01*
X56137Y73412D01*
X55969Y73159D01*
X45085Y62275D01*
X45085Y43302D01*
X45029Y43016D01*
X44862Y42763D01*
X43846Y41747D01*
X43626Y41594D01*
G37*
G36*
X-8444Y44629D02*
X-8739Y44559D01*
X-9038Y44610D01*
X-9293Y44774D01*
X-9465Y45024D01*
X-9525Y45321D01*
X-9525Y52115D01*
X-14776Y57366D01*
X-14934Y57596D01*
X-14999Y57892D01*
X-14943Y58191D01*
X-14776Y58443D01*
X-12978Y60241D01*
X-12978Y62675D01*
X-12927Y62948D01*
X-12764Y63204D01*
X-12514Y63376D01*
X-12217Y63437D01*
X-5428Y63449D01*
X-4086Y64795D01*
X-3854Y64954D01*
X-3558Y65019D01*
X-3260Y64964D01*
X-3007Y64796D01*
X-719Y62508D01*
X3259Y62508D01*
X4663Y63912D01*
X4904Y64075D01*
X5202Y64135D01*
X6487Y64135D01*
X6772Y64080D01*
X7025Y63913D01*
X7468Y63471D01*
X16516Y63487D01*
X16781Y63440D01*
X17039Y63281D01*
X17214Y63033D01*
X17279Y62737D01*
X17224Y62439D01*
X17056Y62186D01*
X15875Y61005D01*
X15875Y46802D01*
X15824Y46527D01*
X15660Y46272D01*
X15410Y46100D01*
X15113Y46040D01*
X13034Y46040D01*
X12539Y45545D01*
X12308Y45387D01*
X12012Y45322D01*
X11714Y45378D01*
X11461Y45545D01*
X10966Y46040D01*
X8034Y46040D01*
X7539Y45545D01*
X7308Y45387D01*
X7012Y45322D01*
X6714Y45378D01*
X6461Y45545D01*
X5966Y46040D01*
X5756Y46040D01*
X5470Y46096D01*
X5217Y46263D01*
X3755Y47725D01*
X3592Y47967D01*
X3532Y48264D01*
X3532Y50249D01*
X719Y53062D01*
X-3259Y53062D01*
X-6072Y50249D01*
X-6072Y46802D01*
X-6123Y46527D01*
X-6287Y46272D01*
X-6537Y46100D01*
X-6834Y46040D01*
X-6966Y46040D01*
X-8224Y44782D01*
X-8444Y44629D01*
G37*
G36*
X111995Y38795D02*
X111698Y38735D01*
X95865Y38735D01*
X95601Y38782D01*
X95343Y38941D01*
X95168Y39189D01*
X95103Y39485D01*
X95158Y39783D01*
X95326Y40036D01*
X111159Y55869D01*
X111379Y56022D01*
X111674Y56092D01*
X111973Y56041D01*
X112228Y55878D01*
X112400Y55627D01*
X112460Y55330D01*
X112460Y48448D01*
X113369Y47539D01*
X113527Y47308D01*
X113592Y47012D01*
X113537Y46714D01*
X113369Y46461D01*
X112460Y45552D01*
X112460Y42262D01*
X118762Y42262D01*
X118762Y40738D01*
X112460Y40738D01*
X112460Y39497D01*
X112409Y39222D01*
X112245Y38967D01*
X111995Y38795D01*
G37*
G36*
X35515Y8600D02*
X35218Y8540D01*
X34552Y8540D01*
X34277Y8591D01*
X34022Y8755D01*
X33850Y9005D01*
X33803Y9238D01*
X6238Y9238D01*
X6238Y10762D01*
X33790Y10762D01*
X33790Y15698D01*
X33841Y15973D01*
X34005Y16228D01*
X34255Y16400D01*
X34552Y16460D01*
X35218Y16460D01*
X35504Y16404D01*
X35757Y16237D01*
X35823Y16171D01*
X36018Y15835D01*
X36032Y15644D01*
X36037Y15637D01*
X36135Y15470D01*
X36194Y15177D01*
X36311Y15006D01*
X36376Y14710D01*
X36320Y14412D01*
X36153Y14159D01*
X35960Y13966D01*
X35960Y11034D01*
X36455Y10539D01*
X36613Y10308D01*
X36678Y10012D01*
X36622Y9714D01*
X36455Y9461D01*
X35757Y8763D01*
X35515Y8600D01*
G37*
G36*
X-126255Y-101015D02*
X-126552Y-101075D01*
X-143448Y-101075D01*
X-143723Y-101024D01*
X-143978Y-100860D01*
X-144150Y-100610D01*
X-144210Y-100313D01*
X-144210Y-96948D01*
X-145698Y-95460D01*
X-155004Y-95460D01*
X-155290Y-95404D01*
X-155543Y-95237D01*
X-161245Y-89535D01*
X-167448Y-89535D01*
X-167723Y-89484D01*
X-167978Y-89320D01*
X-168150Y-89070D01*
X-168210Y-88773D01*
X-168210Y-86948D01*
X-169698Y-85460D01*
X-176920Y-85460D01*
X-177184Y-85413D01*
X-177442Y-85254D01*
X-177617Y-85006D01*
X-177682Y-84710D01*
X-177627Y-84412D01*
X-177459Y-84159D01*
X-170358Y-77058D01*
X-170116Y-76895D01*
X-169819Y-76835D01*
X-157435Y-76835D01*
X-155823Y-75223D01*
X-155581Y-75060D01*
X-155284Y-75000D01*
X-154052Y-75000D01*
X-154012Y-74994D01*
X-154009Y-74993D01*
X-154000Y-74938D01*
X-154000Y-73716D01*
X-153944Y-73430D01*
X-153777Y-73177D01*
X-149210Y-68610D01*
X-148979Y-68452D01*
X-148683Y-68387D01*
X-148385Y-68442D01*
X-148132Y-68610D01*
X-147302Y-69440D01*
X-142012Y-69440D01*
X-142012Y-64638D01*
X-133710Y-64638D01*
X-133710Y-62848D01*
X-135198Y-61360D01*
X-140120Y-61360D01*
X-140384Y-61313D01*
X-140642Y-61154D01*
X-140817Y-60906D01*
X-140882Y-60610D01*
X-140827Y-60312D01*
X-140659Y-60059D01*
X-140335Y-59735D01*
X-140335Y-9251D01*
X-140279Y-8965D01*
X-140112Y-8712D01*
X-122091Y9309D01*
X-121871Y9462D01*
X-121576Y9532D01*
X-121277Y9481D01*
X-121022Y9318D01*
X-120850Y9067D01*
X-120790Y8770D01*
X-120790Y-21738D01*
X-113988Y-21738D01*
X-113988Y-23262D01*
X-120790Y-23262D01*
X-120790Y-49944D01*
X-120846Y-50230D01*
X-121013Y-50483D01*
X-123825Y-53295D01*
X-123825Y-62275D01*
X-99105Y-86995D01*
X-90125Y-86995D01*
X-86893Y-83763D01*
X-86651Y-83600D01*
X-86354Y-83540D01*
X-84262Y-83540D01*
X-84262Y-77238D01*
X-82738Y-77238D01*
X-82738Y-83540D01*
X-79448Y-83540D01*
X-78539Y-82631D01*
X-78308Y-82473D01*
X-78012Y-82408D01*
X-77714Y-82463D01*
X-77598Y-82540D01*
X-74170Y-82540D01*
X-73906Y-82587D01*
X-73648Y-82746D01*
X-73473Y-82994D01*
X-73408Y-83290D01*
X-73463Y-83588D01*
X-73631Y-83841D01*
X-90642Y-100852D01*
X-90884Y-101015D01*
X-91181Y-101075D01*
X-108448Y-101075D01*
X-108723Y-101024D01*
X-108978Y-100860D01*
X-109150Y-100610D01*
X-109210Y-100313D01*
X-109210Y-96948D01*
X-110698Y-95460D01*
X-124302Y-95460D01*
X-125790Y-96948D01*
X-125790Y-100313D01*
X-125841Y-100588D01*
X-126005Y-100843D01*
X-126255Y-101015D01*
G37*
%LPC*%
G36*
X-140488Y-69440D02*
X-135198Y-69440D01*
X-133710Y-67952D01*
X-133710Y-66162D01*
X-140488Y-66162D01*
X-140488Y-69440D01*
G37*
%LPD*%
G36*
X-105234Y-33595D02*
X-105532Y-33655D01*
X-107948Y-33655D01*
X-108223Y-33604D01*
X-108478Y-33440D01*
X-108650Y-33190D01*
X-108710Y-32893D01*
X-108710Y-29696D01*
X-108654Y-29410D01*
X-108487Y-29157D01*
X-104318Y-24988D01*
X-104076Y-24825D01*
X-103779Y-24765D01*
X-101643Y-24765D01*
X-101357Y-24821D01*
X-101104Y-24988D01*
X-100131Y-25961D01*
X-99973Y-26192D01*
X-99908Y-26488D01*
X-99963Y-26786D01*
X-100040Y-26902D01*
X-100040Y-30238D01*
X-93738Y-30238D01*
X-93738Y-31762D01*
X-100233Y-31762D01*
X-100255Y-31796D01*
X-100505Y-31968D01*
X-100802Y-32028D01*
X-103589Y-32028D01*
X-104993Y-33432D01*
X-105234Y-33595D01*
G37*
G36*
X-58866Y-91134D02*
X-59162Y-91199D01*
X-59461Y-91143D01*
X-59713Y-90976D01*
X-61511Y-89178D01*
X-61563Y-89178D01*
X-61838Y-89127D01*
X-62093Y-88963D01*
X-62265Y-88713D01*
X-62325Y-88416D01*
X-62325Y-84631D01*
X-62269Y-84345D01*
X-62102Y-84092D01*
X-60773Y-82763D01*
X-60531Y-82600D01*
X-60234Y-82540D01*
X-58448Y-82540D01*
X-56960Y-81052D01*
X-56960Y-72948D01*
X-58448Y-71460D01*
X-60050Y-71460D01*
X-60314Y-71413D01*
X-60572Y-71254D01*
X-60747Y-71006D01*
X-60812Y-70710D01*
X-60757Y-70412D01*
X-60589Y-70159D01*
X-43815Y-53385D01*
X-43815Y-45675D01*
X-46914Y-42576D01*
X-47067Y-42356D01*
X-47137Y-42061D01*
X-47086Y-41762D01*
X-46923Y-41507D01*
X-46672Y-41335D01*
X-46375Y-41275D01*
X-15195Y-41275D01*
X-5841Y-31921D01*
X-5621Y-31768D01*
X-5326Y-31698D01*
X-5027Y-31749D01*
X-4772Y-31912D01*
X-4600Y-32163D01*
X-4540Y-32460D01*
X-4540Y-35552D01*
X-3631Y-36461D01*
X-3473Y-36692D01*
X-3408Y-36988D01*
X-3463Y-37286D01*
X-3631Y-37539D01*
X-4247Y-38155D01*
X-4489Y-38318D01*
X-4786Y-38378D01*
X-8339Y-38378D01*
X-11152Y-41191D01*
X-11152Y-45169D01*
X-8339Y-47982D01*
X-4361Y-47982D01*
X-4274Y-47895D01*
X-4044Y-47737D01*
X-3748Y-47672D01*
X-3450Y-47728D01*
X-3197Y-47895D01*
X-3052Y-48040D01*
X-1030Y-48040D01*
X-766Y-48087D01*
X-508Y-48246D01*
X-333Y-48494D01*
X-268Y-48790D01*
X-323Y-49088D01*
X-491Y-49341D01*
X-41732Y-90582D01*
X-41974Y-90745D01*
X-42271Y-90805D01*
X-58465Y-90805D01*
X-58636Y-90976D01*
X-58866Y-91134D01*
G37*
G36*
X185606Y-100737D02*
X184083Y-100793D01*
X183902Y-95863D01*
X184109Y-95856D01*
X184041Y-95760D01*
X183976Y-95463D01*
X184031Y-95165D01*
X184199Y-94912D01*
X185142Y-93969D01*
X185142Y-89991D01*
X182329Y-87178D01*
X178552Y-87178D01*
X178277Y-87127D01*
X178022Y-86963D01*
X177850Y-86713D01*
X177790Y-86416D01*
X177790Y-77712D01*
X172238Y-77712D01*
X172238Y-72410D01*
X169698Y-72410D01*
X168288Y-73820D01*
X168057Y-73978D01*
X167761Y-74043D01*
X167463Y-73988D01*
X167210Y-73820D01*
X156525Y-63135D01*
X153543Y-63135D01*
X153257Y-63079D01*
X153004Y-62912D01*
X151988Y-61896D01*
X151825Y-61655D01*
X151765Y-61357D01*
X151765Y-60915D01*
X150444Y-59594D01*
X150286Y-59363D01*
X150221Y-59067D01*
X150276Y-58769D01*
X150444Y-58516D01*
X171909Y-37051D01*
X172129Y-36898D01*
X172424Y-36828D01*
X172723Y-36879D01*
X172978Y-37042D01*
X173150Y-37293D01*
X173210Y-37590D01*
X173210Y-38102D01*
X174698Y-39590D01*
X181302Y-39590D01*
X181961Y-38931D01*
X182192Y-38773D01*
X182488Y-38708D01*
X182786Y-38763D01*
X183039Y-38931D01*
X183698Y-39590D01*
X190302Y-39590D01*
X191819Y-38073D01*
X191841Y-37952D01*
X192005Y-37697D01*
X192255Y-37525D01*
X192552Y-37465D01*
X193617Y-37465D01*
X193836Y-37497D01*
X194104Y-37641D01*
X194294Y-37877D01*
X194377Y-38169D01*
X194382Y-38241D01*
X194329Y-38586D01*
X194161Y-38839D01*
X187225Y-45775D01*
X186983Y-45938D01*
X186686Y-45998D01*
X184701Y-45998D01*
X181888Y-48811D01*
X181888Y-52789D01*
X184701Y-55602D01*
X188679Y-55602D01*
X191492Y-52789D01*
X191492Y-50804D01*
X191548Y-50518D01*
X191715Y-50265D01*
X198285Y-43696D01*
X198473Y-43558D01*
X198765Y-43475D01*
X199205Y-43441D01*
X199538Y-43490D01*
X199793Y-43653D01*
X199965Y-43903D01*
X200025Y-44201D01*
X200025Y-46317D01*
X199969Y-46603D01*
X199802Y-46856D01*
X198710Y-47948D01*
X198710Y-52594D01*
X198777Y-52692D01*
X198842Y-52988D01*
X198787Y-53286D01*
X198710Y-53402D01*
X198710Y-58052D01*
X199602Y-58944D01*
X199765Y-59186D01*
X199825Y-59483D01*
X199825Y-60128D01*
X199769Y-60414D01*
X199602Y-60667D01*
X197298Y-62971D01*
X197298Y-66949D01*
X200111Y-69762D01*
X204089Y-69762D01*
X206902Y-66949D01*
X206902Y-64834D01*
X206949Y-64570D01*
X207108Y-64312D01*
X207356Y-64137D01*
X207652Y-64072D01*
X207950Y-64127D01*
X208203Y-64295D01*
X208448Y-64540D01*
X213528Y-64540D01*
X213792Y-64587D01*
X214050Y-64746D01*
X214225Y-64994D01*
X214290Y-65290D01*
X214235Y-65588D01*
X214067Y-65841D01*
X213460Y-66448D01*
X213460Y-69738D01*
X219762Y-69738D01*
X219762Y-71262D01*
X213460Y-71262D01*
X213460Y-74552D01*
X214369Y-75461D01*
X214527Y-75692D01*
X214592Y-75988D01*
X214537Y-76286D01*
X214369Y-76539D01*
X213460Y-77448D01*
X213460Y-80184D01*
X213404Y-80470D01*
X213237Y-80723D01*
X201603Y-92357D01*
X201383Y-92510D01*
X201088Y-92580D01*
X200789Y-92529D01*
X200534Y-92366D01*
X200362Y-92115D01*
X200302Y-91818D01*
X200302Y-89991D01*
X197489Y-87178D01*
X193511Y-87178D01*
X190698Y-89991D01*
X190698Y-94130D01*
X190642Y-94416D01*
X190475Y-94669D01*
X189301Y-95842D01*
X189085Y-95994D01*
X188790Y-96065D01*
X188106Y-96090D01*
X187729Y-96496D01*
X187505Y-96662D01*
X187211Y-96738D01*
X186911Y-96693D01*
X186652Y-96535D01*
X186247Y-96158D01*
X185439Y-96188D01*
X185606Y-100737D01*
G37*
%LPC*%
G36*
X173762Y-76188D02*
X177790Y-76188D01*
X177790Y-73898D01*
X176302Y-72410D01*
X173762Y-72410D01*
X173762Y-76188D01*
G37*
%LPD*%
G36*
X-100494Y-53077D02*
X-100790Y-53142D01*
X-101088Y-53087D01*
X-101341Y-52919D01*
X-104311Y-49949D01*
X-104469Y-49719D01*
X-104534Y-49423D01*
X-104478Y-49125D01*
X-104311Y-48872D01*
X-101878Y-46439D01*
X-101878Y-42394D01*
X-101827Y-42119D01*
X-101663Y-41864D01*
X-101413Y-41692D01*
X-101116Y-41632D01*
X-100802Y-41632D01*
X-100527Y-41683D01*
X-100272Y-41847D01*
X-100100Y-42097D01*
X-100040Y-42394D01*
X-100040Y-44052D01*
X-99631Y-44461D01*
X-99473Y-44692D01*
X-99408Y-44988D01*
X-99463Y-45286D01*
X-99631Y-45539D01*
X-100040Y-45948D01*
X-100040Y-49238D01*
X-93738Y-49238D01*
X-93738Y-50762D01*
X-100040Y-50762D01*
X-100040Y-52380D01*
X-100087Y-52644D01*
X-100246Y-52902D01*
X-100494Y-53077D01*
G37*
G36*
X25581Y-135972D02*
X25285Y-136037D01*
X24987Y-135982D01*
X24734Y-135814D01*
X22448Y-133528D01*
X22285Y-133286D01*
X22225Y-132989D01*
X22225Y-117392D01*
X22281Y-117106D01*
X22448Y-116853D01*
X23852Y-115449D01*
X23852Y-111471D01*
X21039Y-108658D01*
X17061Y-108658D01*
X14248Y-111471D01*
X14248Y-115449D01*
X15652Y-116853D01*
X15815Y-117094D01*
X15875Y-117392D01*
X15875Y-119948D01*
X15824Y-120223D01*
X15660Y-120478D01*
X15410Y-120650D01*
X15113Y-120710D01*
X14512Y-120710D01*
X14512Y-125762D01*
X12988Y-125762D01*
X12988Y-120710D01*
X12827Y-120710D01*
X12552Y-120659D01*
X12297Y-120495D01*
X12125Y-120245D01*
X12065Y-119948D01*
X12065Y-102825D01*
X-7575Y-83185D01*
X-14493Y-83185D01*
X-14779Y-83129D01*
X-15032Y-82962D01*
X-15534Y-82460D01*
X-17710Y-82460D01*
X-17974Y-82413D01*
X-18232Y-82254D01*
X-18407Y-82006D01*
X-18472Y-81710D01*
X-18417Y-81412D01*
X-18249Y-81159D01*
X7697Y-55213D01*
X7917Y-55060D01*
X8212Y-54990D01*
X8511Y-55041D01*
X8766Y-55204D01*
X8938Y-55455D01*
X8998Y-55752D01*
X8998Y-58561D01*
X9044Y-58628D01*
X9112Y-58924D01*
X9059Y-59223D01*
X8893Y-59477D01*
X8642Y-59646D01*
X6897Y-60369D01*
X3369Y-63897D01*
X1460Y-68506D01*
X1460Y-73494D01*
X3369Y-78103D01*
X6897Y-81631D01*
X11506Y-83540D01*
X16494Y-83540D01*
X21103Y-81631D01*
X24631Y-78103D01*
X25894Y-75054D01*
X26042Y-74824D01*
X26290Y-74649D01*
X26586Y-74584D01*
X26884Y-74639D01*
X27137Y-74807D01*
X32975Y-80645D01*
X45765Y-80645D01*
X57785Y-68625D01*
X57785Y-44577D01*
X57836Y-44302D01*
X58000Y-44047D01*
X58250Y-43875D01*
X58547Y-43815D01*
X94766Y-43815D01*
X95041Y-43866D01*
X95296Y-44030D01*
X95468Y-44280D01*
X95528Y-44577D01*
X95528Y-47709D01*
X98341Y-50522D01*
X102369Y-50522D01*
X102441Y-50472D01*
X102737Y-50407D01*
X103035Y-50463D01*
X103152Y-50540D01*
X108802Y-50540D01*
X110290Y-49052D01*
X110290Y-45847D01*
X110341Y-45572D01*
X110505Y-45317D01*
X110755Y-45145D01*
X111052Y-45085D01*
X113939Y-45085D01*
X114225Y-45141D01*
X114478Y-45308D01*
X131000Y-61830D01*
X131158Y-62061D01*
X131223Y-62357D01*
X131168Y-62655D01*
X131000Y-62908D01*
X130460Y-63448D01*
X130460Y-68132D01*
X130404Y-68418D01*
X130237Y-68671D01*
X129960Y-68948D01*
X129960Y-69366D01*
X129909Y-69641D01*
X129745Y-69896D01*
X129495Y-70068D01*
X129198Y-70128D01*
X126281Y-70128D01*
X123468Y-72941D01*
X123468Y-76919D01*
X126281Y-79732D01*
X129698Y-79732D01*
X129973Y-79783D01*
X130228Y-79947D01*
X130400Y-80197D01*
X130460Y-80494D01*
X130460Y-80612D01*
X130448Y-80746D01*
X130443Y-80774D01*
X130399Y-80925D01*
X130232Y-81178D01*
X125908Y-85502D01*
X125666Y-85665D01*
X125369Y-85725D01*
X115052Y-85725D01*
X114777Y-85674D01*
X114522Y-85510D01*
X114350Y-85260D01*
X114290Y-84963D01*
X114290Y-84012D01*
X105710Y-84012D01*
X105710Y-85594D01*
X105777Y-85692D01*
X105842Y-85988D01*
X105787Y-86286D01*
X105710Y-86402D01*
X105710Y-88874D01*
X105654Y-89160D01*
X105487Y-89413D01*
X97319Y-97581D01*
X97089Y-97739D01*
X96793Y-97804D01*
X96495Y-97748D01*
X96242Y-97581D01*
X94699Y-96038D01*
X90669Y-96038D01*
X90621Y-96071D01*
X90326Y-96141D01*
X90027Y-96090D01*
X89772Y-95927D01*
X89600Y-95677D01*
X89540Y-95379D01*
X89540Y-93228D01*
X88052Y-91740D01*
X69530Y-91740D01*
X69266Y-91693D01*
X69008Y-91534D01*
X68833Y-91286D01*
X68768Y-90990D01*
X68823Y-90692D01*
X68991Y-90439D01*
X70947Y-88483D01*
X71189Y-88320D01*
X71486Y-88260D01*
X88052Y-88260D01*
X89540Y-86772D01*
X89540Y-72668D01*
X88052Y-71180D01*
X63948Y-71180D01*
X62460Y-72668D01*
X62460Y-86772D01*
X62530Y-86842D01*
X62688Y-87073D01*
X62753Y-87369D01*
X62698Y-87667D01*
X62530Y-87920D01*
X52248Y-98202D01*
X52006Y-98365D01*
X51709Y-98425D01*
X45382Y-98425D01*
X45107Y-98374D01*
X44852Y-98210D01*
X44680Y-97960D01*
X44620Y-97663D01*
X44620Y-95501D01*
X42499Y-93380D01*
X42306Y-93380D01*
X42126Y-93345D01*
X40920Y-93345D01*
X40812Y-93337D01*
X39787Y-93191D01*
X39785Y-93193D01*
X39625Y-93285D01*
X39328Y-93345D01*
X37721Y-93345D01*
X37393Y-93271D01*
X37010Y-93088D01*
X36408Y-93301D01*
X36153Y-93345D01*
X34651Y-93345D01*
X34365Y-93289D01*
X34112Y-93122D01*
X33065Y-92075D01*
X25522Y-92075D01*
X25236Y-92019D01*
X24983Y-91852D01*
X23579Y-90448D01*
X19601Y-90448D01*
X16788Y-93261D01*
X16788Y-97239D01*
X19601Y-100052D01*
X23579Y-100052D01*
X24983Y-98648D01*
X25224Y-98485D01*
X25522Y-98425D01*
X28618Y-98425D01*
X28893Y-98476D01*
X29148Y-98640D01*
X29320Y-98890D01*
X29380Y-99187D01*
X29380Y-102517D01*
X29500Y-102692D01*
X29565Y-102988D01*
X29509Y-103286D01*
X29380Y-103481D01*
X29380Y-106784D01*
X29324Y-107070D01*
X29157Y-107323D01*
X26035Y-110445D01*
X26035Y-135275D01*
X25988Y-135539D01*
X25829Y-135797D01*
X25581Y-135972D01*
G37*
%LPC*%
G36*
X110762Y-82488D02*
X114290Y-82488D01*
X114290Y-80948D01*
X112802Y-79460D01*
X110762Y-79460D01*
X110762Y-82488D01*
G37*
G36*
X105710Y-82488D02*
X109238Y-82488D01*
X109238Y-79460D01*
X107198Y-79460D01*
X105710Y-80948D01*
X105710Y-82488D01*
G37*
%LPD*%
G36*
X-72738Y-71460D02*
X-72738Y-77762D01*
X-74262Y-77762D01*
X-74262Y-71460D01*
X-77198Y-71460D01*
X-77473Y-71409D01*
X-77728Y-71245D01*
X-77900Y-70995D01*
X-77960Y-70698D01*
X-77960Y-64802D01*
X-77909Y-64527D01*
X-77745Y-64272D01*
X-77495Y-64100D01*
X-77198Y-64040D01*
X-73762Y-64040D01*
X-73762Y-57738D01*
X-67460Y-57738D01*
X-67460Y-57277D01*
X-67409Y-57002D01*
X-67245Y-56747D01*
X-66995Y-56575D01*
X-66698Y-56515D01*
X-58781Y-56515D01*
X-58495Y-56571D01*
X-58242Y-56738D01*
X-57734Y-57246D01*
X-57576Y-57477D01*
X-57511Y-57773D01*
X-57566Y-58071D01*
X-57734Y-58324D01*
X-70647Y-71237D01*
X-70889Y-71400D01*
X-71186Y-71460D01*
X-72738Y-71460D01*
G37*
%LPC*%
G36*
X-72238Y-64040D02*
X-68948Y-64040D01*
X-67460Y-62552D01*
X-67460Y-59262D01*
X-72238Y-59262D01*
X-72238Y-64040D01*
G37*
%LPD*%
G36*
X140262Y-61960D02*
X140262Y-67012D01*
X138738Y-67012D01*
X138738Y-61579D01*
X139304Y-61579D01*
X139253Y-61506D01*
X139188Y-61210D01*
X139243Y-60912D01*
X139411Y-60659D01*
X140431Y-59639D01*
X140662Y-59481D01*
X140958Y-59416D01*
X141256Y-59471D01*
X141509Y-59639D01*
X142529Y-60659D01*
X142682Y-60879D01*
X142752Y-61174D01*
X142701Y-61473D01*
X142538Y-61728D01*
X142287Y-61900D01*
X141990Y-61960D01*
X140262Y-61960D01*
G37*
G36*
X-167111Y-151940D02*
X-167408Y-152000D01*
X-170943Y-152000D01*
X-171212Y-151951D01*
X-171469Y-151790D01*
X-171643Y-151541D01*
X-171705Y-151244D01*
X-171647Y-150946D01*
X-171460Y-150494D01*
X-171460Y-148762D01*
X-184762Y-148762D01*
X-184762Y-147238D01*
X-171079Y-147238D01*
X-171079Y-147626D01*
X-171006Y-147575D01*
X-170710Y-147510D01*
X-170412Y-147565D01*
X-170159Y-147733D01*
X-170102Y-147790D01*
X-167812Y-147790D01*
X-167812Y-138210D01*
X-170102Y-138210D01*
X-171590Y-139698D01*
X-171590Y-141361D01*
X-171635Y-141619D01*
X-171792Y-141878D01*
X-172038Y-142055D01*
X-172334Y-142123D01*
X-172632Y-142070D01*
X-172887Y-141904D01*
X-173056Y-141653D01*
X-173369Y-140897D01*
X-176897Y-137369D01*
X-178980Y-136506D01*
X-179201Y-136366D01*
X-179381Y-136121D01*
X-179450Y-135826D01*
X-179400Y-135527D01*
X-179236Y-135272D01*
X-179057Y-135149D01*
X-177460Y-133552D01*
X-177460Y-125448D01*
X-178369Y-124539D01*
X-178527Y-124308D01*
X-178592Y-124012D01*
X-178537Y-123714D01*
X-178369Y-123461D01*
X-177460Y-122552D01*
X-177460Y-119262D01*
X-188540Y-119262D01*
X-188540Y-122552D01*
X-187631Y-123461D01*
X-187473Y-123692D01*
X-187408Y-123988D01*
X-187463Y-124286D01*
X-187631Y-124539D01*
X-188540Y-125448D01*
X-188540Y-129124D01*
X-188596Y-129410D01*
X-188763Y-129663D01*
X-200025Y-140925D01*
X-200025Y-142135D01*
X-200072Y-142399D01*
X-200231Y-142657D01*
X-200479Y-142832D01*
X-200775Y-142897D01*
X-201073Y-142842D01*
X-201326Y-142674D01*
X-202960Y-141040D01*
X-203115Y-140815D01*
X-203183Y-140520D01*
X-203130Y-140221D01*
X-202964Y-139967D01*
X-202713Y-139797D01*
X-199897Y-138631D01*
X-196369Y-135103D01*
X-194460Y-130494D01*
X-194460Y-128762D01*
X-207762Y-128762D01*
X-207762Y-115460D01*
X-209494Y-115460D01*
X-214103Y-117369D01*
X-217631Y-120897D01*
X-218797Y-123713D01*
X-218946Y-123942D01*
X-219193Y-124118D01*
X-219489Y-124183D01*
X-219787Y-124127D01*
X-220040Y-123960D01*
X-223777Y-120223D01*
X-223940Y-119982D01*
X-224000Y-119684D01*
X-224000Y-75762D01*
X-223949Y-75487D01*
X-223785Y-75232D01*
X-223535Y-75060D01*
X-223238Y-75000D01*
X-179120Y-75000D01*
X-178856Y-75047D01*
X-178598Y-75206D01*
X-178423Y-75454D01*
X-178358Y-75750D01*
X-178413Y-76048D01*
X-178581Y-76301D01*
X-188595Y-86315D01*
X-188595Y-97835D01*
X-175305Y-111125D01*
X-69805Y-111125D01*
X-68364Y-109684D01*
X-68134Y-109526D01*
X-67838Y-109461D01*
X-67540Y-109517D01*
X-67287Y-109684D01*
X-66898Y-110073D01*
X-66735Y-110314D01*
X-66675Y-110612D01*
X-66675Y-134665D01*
X-62998Y-138342D01*
X-62853Y-138545D01*
X-62837Y-138606D01*
X-62794Y-138644D01*
X-62600Y-138915D01*
X-62540Y-139212D01*
X-62540Y-140802D01*
X-61052Y-142290D01*
X-60636Y-142290D01*
X-60350Y-142346D01*
X-60097Y-142513D01*
X-55451Y-147159D01*
X-55298Y-147379D01*
X-55228Y-147674D01*
X-55279Y-147973D01*
X-55442Y-148228D01*
X-55693Y-148400D01*
X-55990Y-148460D01*
X-57494Y-148460D01*
X-62103Y-150369D01*
X-63511Y-151777D01*
X-63753Y-151940D01*
X-64050Y-152000D01*
X-82886Y-152000D01*
X-83161Y-151949D01*
X-83416Y-151785D01*
X-83588Y-151535D01*
X-83648Y-151238D01*
X-83648Y-142424D01*
X-85136Y-140936D01*
X-89140Y-140936D01*
X-89415Y-140885D01*
X-89670Y-140721D01*
X-89842Y-140471D01*
X-89902Y-140174D01*
X-89902Y-136047D01*
X-96760Y-136047D01*
X-96760Y-127284D01*
X-100123Y-127284D01*
X-100409Y-127228D01*
X-100662Y-127061D01*
X-101963Y-125760D01*
X-109863Y-125760D01*
X-110149Y-125704D01*
X-110402Y-125537D01*
X-111311Y-124628D01*
X-115289Y-124628D01*
X-116198Y-125537D01*
X-116439Y-125700D01*
X-116737Y-125760D01*
X-118037Y-125760D01*
X-119338Y-127061D01*
X-119580Y-127224D01*
X-119877Y-127284D01*
X-128610Y-127284D01*
X-130098Y-128772D01*
X-130098Y-140174D01*
X-130149Y-140449D01*
X-130313Y-140704D01*
X-130563Y-140876D01*
X-130860Y-140936D01*
X-134864Y-140936D01*
X-136352Y-142424D01*
X-136352Y-149326D01*
X-136408Y-149612D01*
X-136575Y-149865D01*
X-138487Y-151777D01*
X-138729Y-151940D01*
X-139026Y-152000D01*
X-139873Y-152000D01*
X-140148Y-151949D01*
X-140403Y-151785D01*
X-140575Y-151535D01*
X-140635Y-151238D01*
X-140635Y-138442D01*
X-140579Y-138156D01*
X-140412Y-137903D01*
X-139008Y-136499D01*
X-139008Y-132521D01*
X-141821Y-129708D01*
X-145982Y-129708D01*
X-146115Y-129741D01*
X-146415Y-129694D01*
X-146672Y-129534D01*
X-146846Y-129286D01*
X-146910Y-128989D01*
X-147010Y-120813D01*
X-148516Y-119344D01*
X-156620Y-119443D01*
X-157518Y-120363D01*
X-157746Y-120524D01*
X-158042Y-120592D01*
X-158341Y-120540D01*
X-158595Y-120376D01*
X-159515Y-119478D01*
X-162805Y-119518D01*
X-162670Y-130597D01*
X-159380Y-130557D01*
X-158482Y-129637D01*
X-158254Y-129476D01*
X-157958Y-129408D01*
X-157659Y-129460D01*
X-157405Y-129624D01*
X-156485Y-130522D01*
X-156172Y-130518D01*
X-155920Y-130558D01*
X-155657Y-130710D01*
X-155475Y-130952D01*
X-155402Y-131247D01*
X-155054Y-139182D01*
X-155100Y-139478D01*
X-155260Y-139736D01*
X-155507Y-139912D01*
X-155803Y-139977D01*
X-156101Y-139921D01*
X-156354Y-139754D01*
X-157898Y-138210D01*
X-166288Y-138210D01*
X-166288Y-147790D01*
X-163957Y-147790D01*
X-163682Y-147841D01*
X-163427Y-148005D01*
X-163255Y-148255D01*
X-163195Y-148552D01*
X-163195Y-149905D01*
X-162941Y-150159D01*
X-162788Y-150379D01*
X-162718Y-150674D01*
X-162769Y-150973D01*
X-162932Y-151228D01*
X-163183Y-151400D01*
X-163480Y-151460D01*
X-166552Y-151460D01*
X-166869Y-151777D01*
X-167111Y-151940D01*
G37*
%LPC*%
G36*
X-219790Y-91238D02*
X-212262Y-91238D01*
X-212262Y-85460D01*
X-218302Y-85460D01*
X-219790Y-86948D01*
X-219790Y-91238D01*
G37*
G36*
X-210738Y-91238D02*
X-203210Y-91238D01*
X-203210Y-86948D01*
X-204698Y-85460D01*
X-210738Y-85460D01*
X-210738Y-91238D01*
G37*
G36*
X-210738Y-98540D02*
X-204698Y-98540D01*
X-203210Y-97052D01*
X-203210Y-92762D01*
X-210738Y-92762D01*
X-210738Y-98540D01*
G37*
G36*
X-218302Y-98540D02*
X-212262Y-98540D01*
X-212262Y-92762D01*
X-219790Y-92762D01*
X-219790Y-97052D01*
X-218302Y-98540D01*
G37*
G36*
X-182238Y-117738D02*
X-177460Y-117738D01*
X-177460Y-114448D01*
X-178948Y-112960D01*
X-182238Y-112960D01*
X-182238Y-117738D01*
G37*
G36*
X-188540Y-117738D02*
X-183762Y-117738D01*
X-183762Y-112960D01*
X-187052Y-112960D01*
X-188540Y-114448D01*
X-188540Y-117738D01*
G37*
G36*
X-206238Y-127238D02*
X-194460Y-127238D01*
X-194460Y-125506D01*
X-196369Y-120897D01*
X-199897Y-117369D01*
X-204506Y-115460D01*
X-206238Y-115460D01*
X-206238Y-127238D01*
G37*
G36*
X-169089Y-121083D02*
X-169048Y-124373D01*
X-164271Y-124315D01*
X-164329Y-119537D01*
X-167619Y-119577D01*
X-169089Y-121083D01*
G37*
G36*
X-168990Y-129187D02*
X-167484Y-130656D01*
X-164194Y-130616D01*
X-164252Y-125838D01*
X-169030Y-125897D01*
X-168990Y-129187D01*
G37*
G36*
X-95236Y-134523D02*
X-89902Y-134523D01*
X-89902Y-128772D01*
X-91390Y-127284D01*
X-95236Y-127284D01*
X-95236Y-134523D01*
G37*
%LPD*%
G36*
X143733Y-99175D02*
X143436Y-99235D01*
X106485Y-99235D01*
X106221Y-99188D01*
X105963Y-99029D01*
X105788Y-98781D01*
X105723Y-98485D01*
X105778Y-98187D01*
X105946Y-97934D01*
X107772Y-96108D01*
X108014Y-95945D01*
X108311Y-95885D01*
X143436Y-95885D01*
X143711Y-95936D01*
X143966Y-96100D01*
X144138Y-96350D01*
X144198Y-96647D01*
X144198Y-98473D01*
X144147Y-98748D01*
X143983Y-99003D01*
X143733Y-99175D01*
G37*
G36*
X166993Y-139925D02*
X166696Y-139985D01*
X166141Y-139985D01*
X165855Y-139929D01*
X165602Y-139762D01*
X160681Y-134841D01*
X160528Y-134621D01*
X160458Y-134326D01*
X160509Y-134027D01*
X160672Y-133772D01*
X160923Y-133600D01*
X161220Y-133540D01*
X165494Y-133540D01*
X170103Y-131631D01*
X173631Y-128103D01*
X175540Y-123494D01*
X175540Y-118506D01*
X173955Y-114680D01*
X173898Y-114422D01*
X173945Y-114123D01*
X174105Y-113865D01*
X174584Y-113359D01*
X174874Y-113167D01*
X175174Y-113121D01*
X177646Y-113238D01*
X177869Y-113283D01*
X178128Y-113441D01*
X178757Y-114025D01*
X181894Y-113910D01*
X182271Y-113504D01*
X182495Y-113338D01*
X182789Y-113262D01*
X183089Y-113307D01*
X183348Y-113465D01*
X183753Y-113842D01*
X184561Y-113812D01*
X184394Y-109263D01*
X185917Y-109207D01*
X186084Y-113756D01*
X186891Y-113727D01*
X187268Y-113321D01*
X187492Y-113155D01*
X187786Y-113079D01*
X188086Y-113124D01*
X188344Y-113282D01*
X188750Y-113658D01*
X191888Y-113543D01*
X193909Y-111368D01*
X194170Y-111185D01*
X194467Y-111125D01*
X208325Y-111125D01*
X209482Y-109968D01*
X209718Y-109808D01*
X210015Y-109745D01*
X210312Y-109803D01*
X214506Y-111540D01*
X217238Y-111540D01*
X217513Y-111591D01*
X217768Y-111755D01*
X217940Y-112005D01*
X218000Y-112302D01*
X218000Y-128912D01*
X218025Y-129017D01*
X218044Y-129044D01*
X219461Y-130461D01*
X219619Y-130692D01*
X219684Y-130988D01*
X219629Y-131286D01*
X219461Y-131539D01*
X211841Y-139159D01*
X211621Y-139312D01*
X211326Y-139382D01*
X211027Y-139331D01*
X210772Y-139168D01*
X210600Y-138918D01*
X210540Y-138620D01*
X210540Y-137262D01*
X204238Y-137262D01*
X204238Y-130960D01*
X200948Y-130960D01*
X199460Y-132448D01*
X199460Y-135528D01*
X199413Y-135792D01*
X199254Y-136050D01*
X199006Y-136225D01*
X198710Y-136290D01*
X198412Y-136235D01*
X198159Y-136067D01*
X196552Y-134460D01*
X194272Y-134460D01*
X194008Y-134413D01*
X193750Y-134254D01*
X193575Y-134006D01*
X193510Y-133710D01*
X193565Y-133412D01*
X193733Y-133159D01*
X194590Y-132302D01*
X194590Y-129762D01*
X189288Y-129762D01*
X189288Y-124210D01*
X180898Y-124210D01*
X179410Y-125698D01*
X179410Y-129805D01*
X179402Y-129857D01*
X179410Y-129893D01*
X179410Y-132302D01*
X179482Y-132374D01*
X179645Y-132616D01*
X179705Y-132913D01*
X179705Y-133698D01*
X179654Y-133973D01*
X179490Y-134228D01*
X179240Y-134400D01*
X178943Y-134460D01*
X177448Y-134460D01*
X176240Y-135668D01*
X176010Y-135826D01*
X175713Y-135891D01*
X175415Y-135835D01*
X175162Y-135668D01*
X174603Y-135108D01*
X170417Y-135108D01*
X167458Y-138067D01*
X167458Y-139223D01*
X167407Y-139498D01*
X167243Y-139753D01*
X166993Y-139925D01*
G37*
%LPC*%
G36*
X190812Y-128238D02*
X194590Y-128238D01*
X194590Y-125698D01*
X193102Y-124210D01*
X190812Y-124210D01*
X190812Y-128238D01*
G37*
G36*
X205762Y-135738D02*
X210540Y-135738D01*
X210540Y-132448D01*
X209052Y-130960D01*
X205762Y-130960D01*
X205762Y-135738D01*
G37*
%LPD*%
G36*
X141127Y-151940D02*
X140829Y-152000D01*
X137114Y-152000D01*
X136839Y-151949D01*
X136584Y-151785D01*
X136412Y-151535D01*
X136352Y-151238D01*
X136352Y-142424D01*
X134864Y-140936D01*
X130860Y-140936D01*
X130585Y-140885D01*
X130330Y-140721D01*
X130158Y-140471D01*
X130098Y-140174D01*
X130098Y-136047D01*
X123240Y-136047D01*
X123240Y-134523D01*
X130098Y-134523D01*
X130098Y-128827D01*
X130149Y-128552D01*
X130313Y-128297D01*
X130563Y-128125D01*
X130860Y-128065D01*
X144609Y-128065D01*
X144895Y-128121D01*
X145148Y-128288D01*
X156769Y-139909D01*
X156922Y-140129D01*
X156992Y-140424D01*
X156941Y-140723D01*
X156778Y-140978D01*
X156527Y-141150D01*
X156230Y-141210D01*
X151898Y-141210D01*
X150410Y-142698D01*
X150410Y-143383D01*
X150359Y-143658D01*
X150195Y-143913D01*
X149945Y-144085D01*
X149648Y-144145D01*
X148712Y-144145D01*
X148426Y-144089D01*
X148173Y-143922D01*
X146769Y-142518D01*
X142791Y-142518D01*
X139978Y-145331D01*
X139978Y-149309D01*
X141368Y-150699D01*
X141521Y-150919D01*
X141591Y-151214D01*
X141540Y-151513D01*
X141377Y-151768D01*
X141127Y-151940D01*
G37*
G36*
X29127Y-151940D02*
X28830Y-152000D01*
X27114Y-152000D01*
X26839Y-151949D01*
X26584Y-151785D01*
X26412Y-151535D01*
X26352Y-151238D01*
X26352Y-149522D01*
X26399Y-149258D01*
X26558Y-149000D01*
X26806Y-148825D01*
X27102Y-148760D01*
X27400Y-148815D01*
X27653Y-148983D01*
X29369Y-150699D01*
X29522Y-150919D01*
X29592Y-151214D01*
X29541Y-151513D01*
X29378Y-151768D01*
X29127Y-151940D01*
G37*
G36*
X-44379Y131667D02*
X-43200Y131800D01*
X-42021Y131667D01*
X-40900Y131275D01*
X-39895Y130644D01*
X-39056Y129805D01*
X-38425Y128800D01*
X-38033Y127679D01*
X-37900Y126503D01*
X-37900Y115497D01*
X-38033Y114321D01*
X-38425Y113200D01*
X-39056Y112195D01*
X-39895Y111356D01*
X-40900Y110725D01*
X-42021Y110333D01*
X-43200Y110200D01*
X-44379Y110333D01*
X-45500Y110725D01*
X-46505Y111356D01*
X-47344Y112195D01*
X-47975Y113200D01*
X-48367Y114321D01*
X-48500Y115497D01*
X-48500Y126503D01*
X-48367Y127679D01*
X-47975Y128800D01*
X-47344Y129805D01*
X-46505Y130644D01*
X-45500Y131275D01*
X-44379Y131667D01*
G37*
G36*
X-44379Y131667D02*
X-43200Y131800D01*
X-42021Y131667D01*
X-40900Y131275D01*
X-39895Y130644D01*
X-39056Y129805D01*
X-38425Y128800D01*
X-38033Y127679D01*
X-37900Y126503D01*
X-37900Y115497D01*
X-38033Y114321D01*
X-38425Y113200D01*
X-39056Y112195D01*
X-39895Y111356D01*
X-40900Y110725D01*
X-42021Y110333D01*
X-43200Y110200D01*
X-44379Y110333D01*
X-45500Y110725D01*
X-46505Y111356D01*
X-47344Y112195D01*
X-47975Y113200D01*
X-48367Y114321D01*
X-48500Y115497D01*
X-48500Y126503D01*
X-48367Y127679D01*
X-47975Y128800D01*
X-47344Y129805D01*
X-46505Y130644D01*
X-45500Y131275D01*
X-44379Y131667D01*
G37*
G36*
X42021Y131667D02*
X43200Y131800D01*
X44379Y131667D01*
X45500Y131275D01*
X46505Y130644D01*
X47344Y129805D01*
X47975Y128800D01*
X48367Y127679D01*
X48500Y126503D01*
X48500Y115497D01*
X48367Y114321D01*
X47975Y113200D01*
X47344Y112195D01*
X46505Y111356D01*
X45500Y110725D01*
X44379Y110333D01*
X43200Y110200D01*
X42021Y110333D01*
X40900Y110725D01*
X39895Y111356D01*
X39056Y112195D01*
X38425Y113200D01*
X38033Y114321D01*
X37900Y115497D01*
X37900Y126503D01*
X38033Y127679D01*
X38425Y128800D01*
X39056Y129805D01*
X39895Y130644D01*
X40900Y131275D01*
X42021Y131667D01*
G37*
G36*
X42021Y131667D02*
X43200Y131800D01*
X44379Y131667D01*
X45500Y131275D01*
X46505Y130644D01*
X47344Y129805D01*
X47975Y128800D01*
X48367Y127679D01*
X48500Y126503D01*
X48500Y115497D01*
X48367Y114321D01*
X47975Y113200D01*
X47344Y112195D01*
X46505Y111356D01*
X45500Y110725D01*
X44379Y110333D01*
X43200Y110200D01*
X42021Y110333D01*
X40900Y110725D01*
X39895Y111356D01*
X39056Y112195D01*
X38425Y113200D01*
X38033Y114321D01*
X37900Y115497D01*
X37900Y126503D01*
X38033Y127679D01*
X38425Y128800D01*
X39056Y129805D01*
X39895Y130644D01*
X40900Y131275D01*
X42021Y131667D01*
G37*
G36*
X-44379Y171667D02*
X-43200Y171800D01*
X-42021Y171667D01*
X-40900Y171275D01*
X-39895Y170644D01*
X-39056Y169805D01*
X-38425Y168800D01*
X-38033Y167679D01*
X-37900Y166503D01*
X-37900Y158497D01*
X-38033Y157321D01*
X-38425Y156200D01*
X-39056Y155195D01*
X-39895Y154356D01*
X-40900Y153725D01*
X-42021Y153333D01*
X-43200Y153200D01*
X-44379Y153333D01*
X-45500Y153725D01*
X-46505Y154356D01*
X-47344Y155195D01*
X-47975Y156200D01*
X-48367Y157321D01*
X-48500Y158497D01*
X-48500Y166503D01*
X-48367Y167679D01*
X-47975Y168800D01*
X-47344Y169805D01*
X-46505Y170644D01*
X-45500Y171275D01*
X-44379Y171667D01*
G37*
G36*
X-44379Y171667D02*
X-43200Y171800D01*
X-42021Y171667D01*
X-40900Y171275D01*
X-39895Y170644D01*
X-39056Y169805D01*
X-38425Y168800D01*
X-38033Y167679D01*
X-37900Y166503D01*
X-37900Y158497D01*
X-38033Y157321D01*
X-38425Y156200D01*
X-39056Y155195D01*
X-39895Y154356D01*
X-40900Y153725D01*
X-42021Y153333D01*
X-43200Y153200D01*
X-44379Y153333D01*
X-45500Y153725D01*
X-46505Y154356D01*
X-47344Y155195D01*
X-47975Y156200D01*
X-48367Y157321D01*
X-48500Y158497D01*
X-48500Y166503D01*
X-48367Y167679D01*
X-47975Y168800D01*
X-47344Y169805D01*
X-46505Y170644D01*
X-45500Y171275D01*
X-44379Y171667D01*
G37*
G36*
X42021Y171667D02*
X43200Y171800D01*
X44379Y171667D01*
X45500Y171275D01*
X46505Y170644D01*
X47344Y169805D01*
X47975Y168800D01*
X48367Y167679D01*
X48500Y166503D01*
X48500Y158497D01*
X48367Y157321D01*
X47975Y156200D01*
X47344Y155195D01*
X46505Y154356D01*
X45500Y153725D01*
X44379Y153333D01*
X43200Y153200D01*
X42021Y153333D01*
X40900Y153725D01*
X39895Y154356D01*
X39056Y155195D01*
X38425Y156200D01*
X38033Y157321D01*
X37900Y158497D01*
X37900Y166503D01*
X38033Y167679D01*
X38425Y168800D01*
X39056Y169805D01*
X39895Y170644D01*
X40900Y171275D01*
X42021Y171667D01*
G37*
G36*
X42021Y171667D02*
X43200Y171800D01*
X44379Y171667D01*
X45500Y171275D01*
X46505Y170644D01*
X47344Y169805D01*
X47975Y168800D01*
X48367Y167679D01*
X48500Y166503D01*
X48500Y158497D01*
X48367Y157321D01*
X47975Y156200D01*
X47344Y155195D01*
X46505Y154356D01*
X45500Y153725D01*
X44379Y153333D01*
X43200Y153200D01*
X42021Y153333D01*
X40900Y153725D01*
X39895Y154356D01*
X39056Y155195D01*
X38425Y156200D01*
X38033Y157321D01*
X37900Y158497D01*
X37900Y166503D01*
X38033Y167679D01*
X38425Y168800D01*
X39056Y169805D01*
X39895Y170644D01*
X40900Y171275D01*
X42021Y171667D01*
G37*
G36*
X-133177Y-158462D02*
X-133177Y-151604D01*
X-121493Y-151604D01*
X-121493Y-158462D01*
X-133177Y-158462D01*
G37*
G36*
X-98507Y-158462D02*
X-98507Y-151604D01*
X-86823Y-151604D01*
X-86823Y-158462D01*
X-98507Y-158462D01*
G37*
G36*
X-23177Y-158462D02*
X-23177Y-151604D01*
X-11493Y-151604D01*
X-11493Y-158462D01*
X-23177Y-158462D01*
G37*
G36*
X11493Y-158462D02*
X11493Y-151604D01*
X23177Y-151604D01*
X23177Y-158462D01*
X11493Y-158462D01*
G37*
G36*
X86823Y-158462D02*
X86823Y-151604D01*
X98507Y-151604D01*
X98507Y-158462D01*
X86823Y-158462D01*
G37*
G36*
X121493Y-158462D02*
X121493Y-151604D01*
X133177Y-151604D01*
X133177Y-158462D01*
X121493Y-158462D01*
G37*
D10*
X186000Y147000D03*
X186000Y117000D03*
D11*
X-73000Y-47500D03*
X-73000Y-58500D03*
D12*
X173000Y-83050D03*
X173000Y-76950D03*
D11*
X219000Y-81500D03*
X219000Y-70500D03*
X101500Y159000D03*
X112500Y159000D03*
D12*
X148000Y152050D03*
X148000Y145950D03*
D11*
X-183000Y-129500D03*
X-183000Y-118500D03*
X-62500Y-77000D03*
X-73500Y-77000D03*
X118000Y52500D03*
X118000Y41500D03*
X-74000Y-31500D03*
X-74000Y-20500D03*
X212500Y-27000D03*
X223500Y-27000D03*
X-95000Y61500D03*
X-95000Y50500D03*
X-151500Y-157000D03*
X-162500Y-157000D03*
X-95000Y28500D03*
X-95000Y39500D03*
D13*
X194950Y-27000D03*
X201050Y-27000D03*
D11*
X-83500Y-58000D03*
X-94500Y-58000D03*
X-84500Y-21000D03*
X-95500Y-21000D03*
X-94500Y-31000D03*
X-83500Y-31000D03*
X-94500Y-40000D03*
X-83500Y-40000D03*
X-94500Y-50000D03*
X-83500Y-50000D03*
X-94500Y-68000D03*
X-83500Y-68000D03*
X-83500Y-78000D03*
X-94500Y-78000D03*
X212500Y-43000D03*
X223500Y-43000D03*
X212500Y-59000D03*
X223500Y-59000D03*
D13*
X-36050Y94000D03*
X-29950Y94000D03*
D11*
X95500Y113000D03*
X106500Y113000D03*
D13*
X97950Y99000D03*
X104050Y99000D03*
X24950Y66000D03*
X31050Y66000D03*
X154950Y-146000D03*
X161050Y-146000D03*
D12*
X29000Y83950D03*
X29000Y90050D03*
X67000Y93050D03*
X67000Y86950D03*
X118000Y83950D03*
X118000Y90050D03*
X82000Y96950D03*
X82000Y103050D03*
D13*
X64950Y167000D03*
X71050Y167000D03*
D14*
G36*
X-160464Y-128030D02*
X-166463Y-128103D01*
X-166536Y-122104D01*
X-160537Y-122031D01*
X-160464Y-128030D01*
G37*
G36*
X-149464Y-127896D02*
X-155463Y-127969D01*
X-155536Y-121970D01*
X-149537Y-121897D01*
X-149464Y-127896D01*
G37*
D13*
X91050Y168000D03*
X84950Y168000D03*
X136950Y166000D03*
X143050Y166000D03*
X113950Y63000D03*
X120050Y63000D03*
X183950Y-129000D03*
X190050Y-129000D03*
D12*
X178000Y-35050D03*
X178000Y-28950D03*
D11*
X112500Y145000D03*
X101500Y145000D03*
X1000Y-42500D03*
X1000Y-31500D03*
X205000Y-147500D03*
X205000Y-136500D03*
D13*
X16950Y100000D03*
X23050Y100000D03*
G36*
X-10880Y95215D02*
X-6883Y95090D01*
X-7024Y90593D01*
X-11021Y90718D01*
X-10880Y95215D01*
G37*
G36*
X-16976Y95407D02*
X-12979Y95282D01*
X-13120Y90785D01*
X-17117Y90910D01*
X-16976Y95407D01*
G37*
X-160950Y-143000D03*
X-167050Y-143000D03*
D11*
X108500Y74000D03*
X119500Y74000D03*
X181500Y-140000D03*
X192500Y-140000D03*
D12*
X187000Y-35050D03*
X187000Y-28950D03*
D13*
X49050Y-162000D03*
X42950Y-162000D03*
D15*
X157500Y112500D03*
X157500Y122000D03*
X157500Y131500D03*
X132500Y131500D03*
X132500Y122000D03*
X132500Y112500D03*
D16*
X-211500Y-92000D03*
X-176500Y-92000D03*
X-152500Y-102000D03*
X-117500Y-102000D03*
X-202500Y126000D03*
X-167500Y126000D03*
D17*
X-17000Y-98000D03*
X-21000Y-98000D03*
X-17000Y-94000D03*
X-21000Y-94000D03*
X-17000Y-90000D03*
X-21000Y-90000D03*
X-17000Y-86000D03*
X-21000Y-86000D03*
D18*
X33000Y-97000D03*
X37000Y-97000D03*
X41000Y-97000D03*
X33000Y-101000D03*
X37000Y-101000D03*
X41000Y-101000D03*
X33000Y-105000D03*
X37000Y-105000D03*
X41000Y-105000D03*
X33000Y-109000D03*
X37000Y-109000D03*
X41000Y-109000D03*
X33000Y-113000D03*
X37000Y-113000D03*
X41000Y-113000D03*
D19*
X134500Y-81750D03*
X139500Y-81750D03*
X144500Y-81750D03*
X149500Y-81750D03*
D20*
X149750Y-76500D03*
X149750Y-71500D03*
D19*
X149500Y-66250D03*
X144500Y-66250D03*
X139500Y-66250D03*
X134500Y-66250D03*
D20*
X134250Y-71500D03*
X134250Y-76500D03*
D21*
X189813Y-99820D03*
X189997Y-104817D03*
X190180Y-109813D03*
X184817Y-100003D03*
X185000Y-105000D03*
X185183Y-109997D03*
X179820Y-100187D03*
X180003Y-105183D03*
X180187Y-110180D03*
D22*
X181350Y23470D03*
X168650Y23470D03*
X181350Y36170D03*
X168650Y36170D03*
X181350Y48880D03*
X168650Y48880D03*
D23*
X2500Y115250D03*
X7500Y115250D03*
X12500Y115250D03*
X17500Y115250D03*
X-2500Y115250D03*
X-7500Y115250D03*
X-12500Y115250D03*
X-17500Y115250D03*
D24*
X32000Y115250D03*
X24000Y115250D03*
X-24000Y115250D03*
X-32000Y115250D03*
D25*
X43200Y162500D03*
X-43200Y162500D03*
X43200Y121000D03*
X-43200Y121000D03*
D26*
X-114750Y57500D03*
X-114750Y52500D03*
X-114750Y47500D03*
X-114750Y42500D03*
X-114750Y37500D03*
X-114750Y32500D03*
X-114750Y27500D03*
X-114750Y22500D03*
X-114750Y17500D03*
X-114750Y12500D03*
X-114750Y7500D03*
X-114750Y2500D03*
X-114750Y-2500D03*
X-114750Y-7500D03*
X-114750Y-12500D03*
X-114750Y-17500D03*
X-114750Y-22500D03*
X-114750Y-27500D03*
X-114750Y-32500D03*
X-114750Y-37500D03*
X-114750Y-42500D03*
X-114750Y-47500D03*
X-114750Y-52500D03*
X-114750Y-57500D03*
D27*
X-141250Y65400D03*
X-141250Y-65400D03*
D28*
X76000Y-79720D03*
X76000Y-100280D03*
D29*
X-96000Y-12000D03*
X-86000Y-12000D03*
D28*
X-79000Y77720D03*
X-79000Y98280D03*
D30*
X-93280Y127000D03*
X-72720Y127000D03*
X65720Y146000D03*
X86280Y146000D03*
D31*
X-120500Y139500D03*
X-120500Y152500D03*
X-141500Y146000D03*
D32*
G36*
X93000Y-25932D02*
X85716Y-22627D01*
X89434Y-14432D01*
X96718Y-17737D01*
X93000Y-25932D01*
G37*
G36*
X110303Y-33781D02*
X103019Y-30476D01*
X106737Y-22281D01*
X114021Y-25586D01*
X110303Y-33781D01*
G37*
G36*
X110327Y-10732D02*
X103043Y-7427D01*
X106761Y768D01*
X114045Y-2537D01*
X110327Y-10732D01*
G37*
D33*
X13750Y-125000D03*
X8250Y-125000D03*
X-58750Y-138000D03*
X-53250Y-138000D03*
D34*
X106000Y-46750D03*
X106000Y-41250D03*
X-108000Y166750D03*
X-108000Y161250D03*
G36*
X-145425Y118318D02*
X-145578Y121813D01*
X-143081Y121922D01*
X-142928Y118427D01*
X-145425Y118318D01*
G37*
G36*
X-150919Y118078D02*
X-151072Y121573D01*
X-148575Y121682D01*
X-148422Y118187D01*
X-150919Y118078D01*
G37*
X-95000Y165750D03*
X-95000Y160250D03*
X97000Y-36750D03*
X97000Y-31250D03*
D33*
X33750Y-144000D03*
X28250Y-144000D03*
D34*
X160000Y-102250D03*
X160000Y-107750D03*
G36*
X202630Y-40629D02*
X202362Y-37141D01*
X204854Y-36949D01*
X205122Y-40437D01*
X202630Y-40629D01*
G37*
G36*
X197146Y-41051D02*
X196878Y-37563D01*
X199370Y-37371D01*
X199638Y-40859D01*
X197146Y-41051D01*
G37*
X203000Y-50250D03*
X203000Y-55750D03*
X110000Y-88750D03*
X110000Y-83250D03*
X4000Y99750D03*
X4000Y94250D03*
D33*
X-71250Y165000D03*
X-76750Y165000D03*
D34*
X-58000Y-115250D03*
X-58000Y-120750D03*
D35*
X-207620Y93000D03*
X-192380Y93000D03*
D36*
X124002Y-135285D03*
X95998Y-135285D03*
D37*
X128478Y-148810D03*
X91522Y-148810D03*
D38*
X110000Y-133761D03*
D36*
X14002Y-135285D03*
X-14002Y-135285D03*
D37*
X18478Y-148810D03*
X-18478Y-148810D03*
D38*
X0Y-133761D03*
D36*
X-95998Y-135285D03*
X-124002Y-135285D03*
D37*
X-91522Y-148810D03*
X-128478Y-148810D03*
D38*
X-110000Y-133761D03*
D39*
X172000Y-158000D03*
X68000Y-155000D03*
X-184000Y-148000D03*
X217000Y-99000D03*
X163000Y-121000D03*
X14000Y-71000D03*
X113000Y20000D03*
X146000Y-32000D03*
X39000Y-65000D03*
X-41000Y-124000D03*
X-207000Y-128000D03*
X-55000Y-161000D03*
D40*
X137387Y-119487D02*
X144313Y-119487D01*
X144313Y-121513D01*
X137387Y-121513D01*
X137387Y-119487D01*
X137387Y-120872D02*
X144313Y-120872D01*
X144313Y-120231D02*
X137387Y-120231D01*
X137387Y-119590D02*
X144313Y-119590D01*
X144313Y-114487D02*
X137387Y-114487D01*
X144313Y-114487D02*
X144313Y-116513D01*
X137387Y-116513D01*
X137387Y-114487D01*
X137387Y-115872D02*
X144313Y-115872D01*
X144313Y-115231D02*
X137387Y-115231D01*
X137387Y-114590D02*
X144313Y-114590D01*
X144313Y-109487D02*
X137387Y-109487D01*
X144313Y-109487D02*
X144313Y-111513D01*
X137387Y-111513D01*
X137387Y-109487D01*
X137387Y-110872D02*
X144313Y-110872D01*
X144313Y-110231D02*
X137387Y-110231D01*
X137387Y-109590D02*
X144313Y-109590D01*
X144313Y-104487D02*
X137387Y-104487D01*
X144313Y-104487D02*
X144313Y-106513D01*
X137387Y-106513D01*
X137387Y-104487D01*
X137387Y-105872D02*
X144313Y-105872D01*
X144313Y-105231D02*
X137387Y-105231D01*
X137387Y-104590D02*
X144313Y-104590D01*
X124613Y-104487D02*
X117687Y-104487D01*
X124613Y-104487D02*
X124613Y-106513D01*
X117687Y-106513D01*
X117687Y-104487D01*
X117687Y-105872D02*
X124613Y-105872D01*
X124613Y-105231D02*
X117687Y-105231D01*
X117687Y-104590D02*
X124613Y-104590D01*
X124613Y-109487D02*
X117687Y-109487D01*
X124613Y-109487D02*
X124613Y-111513D01*
X117687Y-111513D01*
X117687Y-109487D01*
X117687Y-110872D02*
X124613Y-110872D01*
X124613Y-110231D02*
X117687Y-110231D01*
X117687Y-109590D02*
X124613Y-109590D01*
X124613Y-114487D02*
X117687Y-114487D01*
X124613Y-114487D02*
X124613Y-116513D01*
X117687Y-116513D01*
X117687Y-114487D01*
X117687Y-115872D02*
X124613Y-115872D01*
X124613Y-115231D02*
X117687Y-115231D01*
X117687Y-114590D02*
X124613Y-114590D01*
X124613Y-119487D02*
X117687Y-119487D01*
X124613Y-119487D02*
X124613Y-121513D01*
X117687Y-121513D01*
X117687Y-119487D01*
X117687Y-120872D02*
X124613Y-120872D01*
X124613Y-120231D02*
X117687Y-120231D01*
X117687Y-119590D02*
X124613Y-119590D01*
D41*
X131000Y-113000D03*
D42*
X7000Y10000D03*
D17*
X-20500Y10000D03*
X-20500Y15000D03*
X-20500Y20000D03*
X-20500Y25000D03*
X-20500Y30000D03*
X-25500Y32500D03*
X-25500Y22500D03*
X-25500Y17500D03*
X-25500Y12500D03*
X-25500Y7500D03*
X-20500Y5000D03*
X-20500Y0D03*
X-25500Y2500D03*
X-25500Y-2500D03*
X-25500Y-7500D03*
X-20500Y-10000D03*
X-20500Y-15000D03*
X-20500Y-22500D03*
X-15500Y-22500D03*
X-13000Y-17500D03*
X-10500Y-22500D03*
X-5500Y-22500D03*
X-500Y-22500D03*
X4500Y-22500D03*
X9500Y-22500D03*
X14500Y-22500D03*
X19500Y-22500D03*
X24500Y-22500D03*
X29500Y-22500D03*
X34500Y-22500D03*
X27000Y-17500D03*
X22000Y-17500D03*
X17000Y-17500D03*
X12000Y-17500D03*
X7000Y-17500D03*
X2000Y-17500D03*
X-3000Y-17500D03*
X34500Y-10000D03*
X39500Y-12500D03*
X39500Y-17500D03*
X39500Y-7500D03*
X34500Y-5000D03*
X39500Y-2500D03*
X34500Y0D03*
X34500Y5000D03*
X39500Y2500D03*
X39500Y7500D03*
X39500Y12500D03*
X39500Y17500D03*
X34500Y20000D03*
X34500Y25000D03*
X39500Y27500D03*
X34500Y30000D03*
X39500Y37500D03*
X-25500Y37500D03*
X-13000Y37500D03*
X-8000Y37500D03*
X-3000Y37500D03*
X-500Y42500D03*
X2000Y37500D03*
X4500Y42500D03*
X7000Y37500D03*
X9500Y42500D03*
X12000Y37500D03*
X14500Y42500D03*
X17000Y37500D03*
X19500Y42500D03*
X22000Y37500D03*
X24500Y42500D03*
X29500Y42500D03*
X34500Y42500D03*
X-18000Y37500D03*
X-5500Y42500D03*
D43*
X1000Y16000D03*
X-11000Y16000D03*
X-11000Y28000D03*
X1000Y28000D03*
X13000Y28000D03*
X25000Y28000D03*
X25000Y16000D03*
X13000Y16000D03*
X-11000Y4000D03*
X1000Y4000D03*
X13000Y4000D03*
X25000Y4000D03*
X25000Y-8000D03*
X13000Y-8000D03*
X1000Y-8000D03*
X-11000Y-8000D03*
D44*
X55250Y92750D03*
X40750Y92750D03*
X40750Y81250D03*
X55250Y81250D03*
D45*
G36*
X-6485Y65987D02*
X-16484Y65970D01*
X-16515Y83969D01*
X-6516Y83986D01*
X-6485Y65987D01*
G37*
G36*
X18515Y66031D02*
X8516Y66014D01*
X8485Y84013D01*
X18484Y84030D01*
X18515Y66031D01*
G37*
D46*
X71120Y167640D02*
X83820Y167640D01*
X71120Y167640D02*
X71050Y167000D01*
X83820Y167640D02*
X84950Y168000D01*
X69850Y167640D02*
X69850Y170180D01*
X68580Y171450D01*
X53340Y171450D01*
X44450Y162560D01*
X69850Y167640D02*
X71050Y167000D01*
X44450Y162560D02*
X43200Y162500D01*
X38100Y115570D02*
X33020Y115570D01*
X38100Y115570D02*
X43180Y120650D01*
X33020Y115570D02*
X32000Y115250D01*
X43180Y120650D02*
X43200Y121000D01*
X30480Y74930D02*
X30480Y66040D01*
X30480Y74930D02*
X24130Y81280D01*
X24130Y86360D01*
X26670Y88900D02*
X27940Y90170D01*
X26670Y88900D02*
X24130Y86360D01*
X30480Y66040D02*
X31050Y66000D01*
X29000Y90050D02*
X27940Y90170D01*
X17780Y97790D02*
X17780Y99060D01*
X17780Y97790D02*
X26670Y88900D01*
X17780Y99060D02*
X16950Y100000D01*
X31750Y92710D02*
X40640Y92710D01*
X31750Y92710D02*
X29210Y90170D01*
X40640Y92710D02*
X40750Y92750D01*
X29210Y90170D02*
X29000Y90050D01*
X31750Y92710D02*
X31750Y114300D01*
X32000Y115250D01*
X43180Y121920D02*
X43180Y161290D01*
X43200Y162500D01*
X43180Y121920D02*
X43200Y121000D01*
X173990Y-76200D02*
X185420Y-87630D01*
X184817Y-87771D02*
X184817Y-100003D01*
X184817Y-87771D02*
X184771Y-87630D01*
X173990Y-76200D02*
X173000Y-76950D01*
X219710Y-69850D02*
X219710Y-62230D01*
X222250Y-59690D01*
X219710Y-69850D02*
X219000Y-70500D01*
X222250Y-59690D02*
X223500Y-59000D01*
X186690Y-29210D02*
X179070Y-29210D01*
X178000Y-28950D01*
X186690Y-29210D02*
X187000Y-28950D01*
X187960Y-27940D02*
X194310Y-27940D01*
X194950Y-27000D01*
X187960Y-27940D02*
X187000Y-28950D01*
X223520Y-27940D02*
X223520Y-41910D01*
X223500Y-43000D01*
X223520Y-27940D02*
X223500Y-27000D01*
X195580Y-26670D02*
X195580Y-25400D01*
X199390Y-21590D01*
X215900Y-21590D02*
X217170Y-21590D01*
X215900Y-21590D02*
X199390Y-21590D01*
X217170Y-21590D02*
X222250Y-26670D01*
X195580Y-26670D02*
X194950Y-27000D01*
X222250Y-26670D02*
X223500Y-27000D01*
X223520Y-43180D02*
X223520Y-58420D01*
X223500Y-59000D01*
X223520Y-43180D02*
X223500Y-43000D01*
X185420Y-87630D02*
X184771Y-87630D01*
X185420Y-87630D02*
X201930Y-87630D01*
X218440Y-71120D01*
X219000Y-70500D01*
X181610Y36830D02*
X181610Y48260D01*
X181610Y36830D02*
X181350Y36170D01*
X181610Y48260D02*
X181350Y48880D01*
X120650Y69850D02*
X120650Y73660D01*
X120650Y69850D02*
X120650Y63500D01*
X120050Y63000D01*
X120650Y73660D02*
X119500Y74000D01*
X116840Y44450D02*
X116840Y41910D01*
X116840Y44450D02*
X113030Y48260D01*
X113030Y57150D01*
X114300Y58420D01*
X116840Y58420D01*
X120650Y62230D01*
X116840Y41910D02*
X118000Y41500D01*
X120650Y62230D02*
X120050Y63000D01*
X180340Y54610D02*
X180340Y49530D01*
X180340Y54610D02*
X173990Y60960D01*
X173990Y64770D01*
X168910Y69850D01*
X120650Y69850D01*
X180340Y49530D02*
X181350Y48880D01*
X147320Y152400D02*
X147320Y161290D01*
X143510Y165100D01*
X147320Y152400D02*
X148000Y152050D01*
X143510Y165100D02*
X143050Y166000D01*
X148590Y151130D02*
X149860Y151130D01*
X166370Y134620D01*
X166370Y128270D01*
X161290Y123190D01*
X158750Y123190D01*
X148590Y151130D02*
X148000Y152050D01*
X158750Y123190D02*
X157500Y122000D01*
X66040Y86360D02*
X60960Y86360D01*
X55880Y81280D01*
X66040Y86360D02*
X67000Y86950D01*
X55880Y81280D02*
X55250Y81250D01*
X80010Y102870D02*
X81280Y102870D01*
X80010Y102870D02*
X72390Y95250D01*
X72390Y91440D01*
X67310Y86360D01*
X81280Y102870D02*
X82000Y103050D01*
X67000Y86950D02*
X67310Y86360D01*
X101600Y146050D02*
X101600Y158750D01*
X101600Y146050D02*
X101500Y145000D01*
X101600Y158750D02*
X101500Y159000D01*
X104140Y110490D02*
X104140Y99060D01*
X104140Y110490D02*
X105410Y111760D01*
X104140Y99060D02*
X104050Y99000D01*
X105410Y111760D02*
X106500Y113000D01*
X111760Y90170D02*
X116840Y90170D01*
X111760Y90170D02*
X104140Y97790D01*
X116840Y90170D02*
X118000Y90050D01*
X104140Y97790D02*
X104050Y99000D01*
X101600Y116840D02*
X101600Y118110D01*
X101600Y144780D01*
X101600Y116840D02*
X105410Y113030D01*
X101600Y144780D02*
X101500Y145000D01*
X105410Y113030D02*
X106500Y113000D01*
X82550Y109220D02*
X82550Y104140D01*
X82550Y109220D02*
X91440Y118110D01*
X101600Y118110D01*
X82550Y104140D02*
X82000Y103050D01*
X142240Y163830D02*
X142240Y165100D01*
X142240Y163830D02*
X139700Y161290D01*
X119380Y161290D01*
X115570Y165100D01*
X106680Y165100D01*
X101600Y160020D01*
X142240Y165100D02*
X143050Y166000D01*
X101600Y160020D02*
X101500Y159000D01*
X120650Y78740D02*
X120650Y74930D01*
X120650Y78740D02*
X123190Y81280D01*
X123190Y86360D01*
X120650Y88900D01*
X118110Y88900D01*
X120650Y74930D02*
X119500Y74000D01*
X118110Y88900D02*
X118000Y90050D01*
X215900Y16510D02*
X215900Y-21590D01*
X215900Y16510D02*
X205740Y26670D01*
X190500Y26670D01*
X181610Y35560D01*
X181350Y36170D01*
X44450Y93980D02*
X41910Y93980D01*
X44450Y93980D02*
X49530Y99060D01*
X68580Y99060D01*
X72390Y95250D01*
X41910Y93980D02*
X40750Y92750D01*
X13970Y-125620D02*
X13970Y-134590D01*
X13970Y-125620D02*
X13750Y-125000D01*
X13970Y-134590D02*
X14002Y-135285D01*
X34290Y-161290D02*
X41910Y-161290D01*
X42950Y-162000D01*
X34290Y-161290D02*
X28956Y-150735D01*
X14002Y-135285D01*
X-20320Y-86360D02*
X-20320Y-85090D01*
X-17780Y-82550D01*
X2540Y-82550D01*
X15240Y-95250D02*
X20320Y-100330D01*
X15240Y-95250D02*
X2540Y-82550D01*
X20320Y-100330D02*
X33020Y-100330D01*
X-20320Y-86360D02*
X-21000Y-86000D01*
X33020Y-100330D02*
X33000Y-101000D01*
X33020Y-101600D02*
X33020Y-104140D01*
X33000Y-105000D01*
X33020Y-101600D02*
X33000Y-101000D01*
X33020Y-105410D02*
X36830Y-105410D01*
X33020Y-105410D02*
X33000Y-105000D01*
X36830Y-105410D02*
X40640Y-105410D01*
X41000Y-105000D01*
X37000Y-105000D02*
X36830Y-105410D01*
X99060Y-82550D02*
X109220Y-82550D01*
X99060Y-82550D02*
X87630Y-71120D01*
X54610Y-71120D01*
X35560Y-90170D01*
X20320Y-90170D01*
X15240Y-95250D01*
X109220Y-82550D02*
X110000Y-83250D01*
X13970Y-106680D02*
X13970Y-124350D01*
X13970Y-106680D02*
X20320Y-100330D01*
X13970Y-124350D02*
X13750Y-125000D01*
X121150Y-110500D02*
X121548Y-111110D01*
X131000Y-113000D02*
X133910Y-110090D01*
X124002Y-132348D02*
X124002Y-135285D01*
X186690Y-124460D02*
X186690Y-110661D01*
X186690Y-124460D02*
X190500Y-128270D01*
X186690Y-110661D02*
X185183Y-109997D01*
X190500Y-128270D02*
X190050Y-129000D01*
X180340Y-124460D02*
X161330Y-143470D01*
X180340Y-124460D02*
X186690Y-124460D01*
X191770Y-130810D02*
X191770Y-135890D01*
X191770Y-139700D01*
X191770Y-130810D02*
X190500Y-129540D01*
X191770Y-139700D02*
X192500Y-140000D01*
X190500Y-129540D02*
X190050Y-129000D01*
X191770Y-135890D02*
X204470Y-135890D01*
X205000Y-136500D01*
X155750Y-138890D02*
X127607Y-138890D01*
X124002Y-135285D01*
X161330Y-143470D02*
X162975Y-145115D01*
X161050Y-144190D02*
X155750Y-138890D01*
X161050Y-146000D02*
X162975Y-145115D01*
X143510Y-66040D02*
X140970Y-66040D01*
X139700Y-66040D01*
X139500Y-66250D01*
X143510Y-66040D02*
X144500Y-66250D01*
X140970Y-66040D02*
X140970Y-60960D01*
X140970Y-66040D02*
X139500Y-66250D01*
X125730Y-83820D02*
X110490Y-83820D01*
X110000Y-83250D01*
X-36830Y93980D02*
X-63500Y93980D01*
X-68580Y88900D01*
X-91440Y88900D01*
X-95250Y85090D01*
X-95250Y62230D01*
X-36830Y93980D02*
X-36050Y94000D01*
X-95250Y62230D02*
X-95000Y61500D01*
X-95250Y27940D02*
X-105410Y27940D01*
X-110490Y22860D01*
X-114300Y22860D01*
X-95250Y27940D02*
X-95000Y28500D01*
X-114300Y22860D02*
X-114750Y22500D01*
X-140970Y45720D02*
X-140970Y64770D01*
X-140970Y45720D02*
X-118110Y22860D01*
X-115570Y22860D01*
X-140970Y64770D02*
X-141250Y65400D01*
X-115570Y22860D02*
X-114750Y22500D01*
X-207010Y90170D02*
X-207010Y92710D01*
X-207010Y90170D02*
X-190500Y73660D01*
X-149860Y73660D01*
X-142240Y66040D01*
X-207010Y92710D02*
X-207620Y93000D01*
X-142240Y66040D02*
X-141250Y65400D01*
X-93980Y60960D02*
X-93980Y58420D01*
X-88900Y53340D01*
X-88900Y34290D01*
X-93980Y29210D01*
X-93980Y60960D02*
X-95000Y61500D01*
X-93980Y29210D02*
X-95000Y28500D01*
X-184150Y-119380D02*
X-198120Y-119380D01*
X-205740Y-127000D01*
X-184150Y-119380D02*
X-183000Y-118500D01*
X-205740Y-127000D02*
X-207000Y-128000D01*
X-210820Y-106680D02*
X-210820Y-92710D01*
X-210820Y-106680D02*
X-198120Y-119380D01*
X-210820Y-92710D02*
X-211500Y-92000D01*
X-166370Y-147320D02*
X-166370Y-152400D01*
X-166370Y-147320D02*
X-166370Y-143510D01*
X-166370Y-152400D02*
X-162560Y-156210D01*
X-166370Y-143510D02*
X-167050Y-143000D01*
X-162560Y-156210D02*
X-162500Y-157000D01*
X-167640Y-142240D02*
X-163830Y-138430D01*
X-163500Y-138100D02*
X-163500Y-125067D01*
X-163500Y-138100D02*
X-163830Y-138430D01*
X-167640Y-142240D02*
X-167050Y-143000D01*
X-111760Y-130810D02*
X-104760Y-137810D01*
X-100199Y-142371D01*
X-95998Y-135285D01*
X-111760Y-130810D02*
X-119936Y-125067D01*
X-163500Y-125067D01*
X-166370Y-147320D02*
X-182880Y-147320D01*
X-184000Y-148000D01*
X-163830Y-138430D02*
X-182880Y-119380D01*
X-183000Y-118500D01*
X-3810Y99060D02*
X3810Y99060D01*
X-3810Y99060D02*
X-8890Y93980D01*
X3810Y99060D02*
X4000Y99750D01*
X-8890Y93980D02*
X-8952Y92904D01*
X-10160Y93980D02*
X-10160Y95250D01*
X-21590Y106680D01*
X-27940Y106680D01*
X-31750Y110490D01*
X-31750Y114300D01*
X-10160Y93980D02*
X-8952Y92904D01*
X-31750Y114300D02*
X-32000Y115250D01*
X-38100Y120650D02*
X-43180Y120650D01*
X-38100Y120650D02*
X-33020Y115570D01*
X-43180Y120650D02*
X-43200Y121000D01*
X-33020Y115570D02*
X-32000Y115250D01*
X-109220Y166370D02*
X-111760Y163830D01*
X-111760Y158750D01*
X-110490Y157480D01*
X-105410Y157480D01*
X-97790Y165100D01*
X-95250Y165100D01*
X-108000Y166750D02*
X-109220Y166370D01*
X-95250Y165100D02*
X-95000Y165750D01*
X-83820Y165100D02*
X-81280Y165100D01*
X-77470Y165100D01*
X-83820Y165100D02*
X-90170Y171450D01*
X-104140Y171450D01*
X-107950Y167640D01*
X-77470Y165100D02*
X-76750Y165000D01*
X-108000Y166750D02*
X-107950Y167640D01*
X-76200Y166370D02*
X-76200Y165100D01*
X-76200Y166370D02*
X-73660Y168910D01*
X-50800Y168910D01*
X-44450Y162560D01*
X-76200Y165100D02*
X-76750Y165000D01*
X-44450Y162560D02*
X-43200Y162500D01*
X-115570Y-22860D02*
X-118110Y-22860D01*
X-140970Y-45720D01*
X-140970Y-64770D01*
X-115570Y-22860D02*
X-114750Y-22500D01*
X-140970Y-64770D02*
X-141250Y-65400D01*
X-93980Y-49530D02*
X-93980Y-40640D01*
X-93980Y-49530D02*
X-94500Y-50000D01*
X-93980Y-40640D02*
X-94500Y-40000D01*
X-93980Y-39370D02*
X-93980Y-31750D01*
X-94500Y-31000D01*
X-93980Y-39370D02*
X-94500Y-40000D01*
X-94500Y-31000D02*
X-84500Y-21000D01*
X-82550Y-77470D02*
X-73660Y-77470D01*
X-82550Y-77470D02*
X-83500Y-78000D01*
X-73660Y-77470D02*
X-73500Y-77000D01*
X-85090Y-58420D02*
X-83820Y-57150D01*
X-85090Y-58420D02*
X-93980Y-67310D01*
X-94500Y-68000D01*
X-83500Y-58000D02*
X-83820Y-57150D01*
X-82550Y-58420D02*
X-73660Y-58420D01*
X-73000Y-58500D01*
X-82550Y-58420D02*
X-83500Y-58000D01*
X-76087Y-64066D02*
X-73500Y-77000D01*
X-76087Y-64066D02*
X-73000Y-58500D01*
X-92710Y-50800D02*
X-93980Y-50800D01*
X-92710Y-50800D02*
X-85090Y-58420D01*
X-93980Y-50800D02*
X-94500Y-50000D01*
X-85090Y-58420D02*
X-83500Y-58000D01*
X-119380Y-66040D02*
X-140970Y-66040D01*
X-119380Y-66040D02*
X-99060Y-86360D01*
X-90170Y-86360D01*
X-82550Y-78740D01*
X-140970Y-66040D02*
X-141250Y-65400D01*
X-83500Y-78000D02*
X-82550Y-78740D01*
X-3810Y-31750D02*
X0Y-31750D01*
X-3810Y-31750D02*
X-6350Y-34290D01*
X0Y-31750D02*
X1000Y-31500D01*
X27940Y25400D02*
X34290Y25400D01*
X27940Y25400D02*
X25400Y27940D01*
X34290Y25400D02*
X34500Y25000D01*
X-7620Y31750D02*
X-7620Y36830D01*
X-7620Y31750D02*
X-10160Y29210D01*
X-7620Y36830D02*
X-8000Y37500D01*
X-10160Y15240D02*
X-10160Y5080D01*
X-11000Y4000D01*
X-10160Y15240D02*
X-11000Y16000D01*
X-10160Y15240D02*
X7000Y10000D01*
X-11000Y28000D02*
X-10160Y29210D01*
X7000Y10000D01*
X1270Y11430D02*
X1270Y5080D01*
X1000Y4000D01*
X1270Y11430D02*
X7000Y10000D01*
X1000Y16000D02*
X1270Y16510D01*
X7000Y10000D01*
X-5080Y22860D02*
X0Y27940D01*
X1000Y28000D01*
X-5080Y22860D02*
X7000Y10000D01*
X13970Y-7620D02*
X24130Y-7620D01*
X13970Y-7620D02*
X13000Y-8000D01*
X12700Y3810D02*
X13000Y4000D01*
X12700Y3810D02*
X7000Y10000D01*
X13000Y16000D02*
X13970Y16510D01*
X7000Y10000D01*
X19050Y22860D02*
X13970Y27940D01*
X19050Y22860D02*
X20320Y22860D01*
X13970Y27940D02*
X13000Y28000D01*
X20320Y22860D02*
X7000Y10000D01*
X24130Y-7620D02*
X25000Y-8000D01*
X24130Y-7620D02*
X7000Y10000D01*
X19050Y-1270D02*
X24130Y3810D01*
X19050Y-1270D02*
X17780Y-1270D01*
X24130Y3810D02*
X25000Y4000D01*
X17780Y-1270D02*
X7000Y10000D01*
X19050Y21590D02*
X24130Y16510D01*
X25000Y16000D01*
X19050Y21590D02*
X7000Y10000D01*
X1270Y3810D02*
X1270Y-7620D01*
X1000Y-8000D01*
X1270Y3810D02*
X1000Y4000D01*
X-66040Y-58420D02*
X-72390Y-58420D01*
X-73000Y-58500D01*
X-8890Y90170D02*
X-8890Y92710D01*
X-8890Y90170D02*
X-3810Y85090D01*
X-3810Y52070D01*
X-8890Y46990D01*
X-8890Y39370D01*
X-7620Y38100D01*
X-8890Y92710D02*
X-8952Y92904D01*
X-7620Y38100D02*
X-8000Y37500D01*
X-104760Y-113540D02*
X-104760Y-137810D01*
X-63500Y93980D02*
X-63500Y102870D01*
X-73660Y113030D01*
X-78740Y113030D01*
X-81280Y115570D01*
X-81280Y165100D01*
X25000Y28000D02*
X25400Y27940D01*
X7000Y10000D01*
X43180Y162560D02*
X-43180Y162560D01*
X43180Y162560D02*
X43200Y162500D01*
X-43180Y162560D02*
X-43200Y162500D01*
D47*
X140970Y-60960D03*
X113220Y-100490D03*
X125730Y-83820D03*
X-6350Y-34290D03*
X-66040Y-58420D03*
X-104760Y-113540D03*
D46*
X131000Y-113000D02*
X133350Y-113000D01*
X140850Y-120500D01*
D48*
X184817Y-100003D03*
D49*
X185183Y-109997D03*
D48*
X133910Y-110090D03*
X140850Y-105500D03*
D49*
X121150Y-110500D03*
D46*
X121548Y-111110D02*
X123438Y-113000D01*
X131000Y-113000D01*
D48*
X131000Y-113000D03*
D46*
X161050Y-144190D02*
X161050Y-146000D01*
X-6350Y115570D02*
X-6350Y121920D01*
X-5080Y123190D01*
X0Y123190D01*
X1270Y121920D01*
X1270Y115570D01*
X-6350Y115570D02*
X-7500Y115250D01*
X1270Y115570D02*
X2500Y115250D01*
X147320Y132080D02*
X157480Y132080D01*
X38100Y143510D02*
X12700Y143510D01*
X0Y130810D01*
X0Y123190D01*
X157500Y131500D02*
X157480Y132080D01*
D47*
X147320Y132080D03*
X38100Y143510D03*
D46*
X-21590Y-97790D02*
X-25400Y-101600D01*
X-33020Y-101600D01*
X-54610Y-49530D02*
X-71120Y-49530D01*
X-72390Y-48260D01*
X-21590Y-97790D02*
X-21000Y-98000D01*
X-72390Y-48260D02*
X-73000Y-47500D01*
X-35560Y-22860D02*
X-20320Y-22860D01*
X-35560Y-22860D02*
X-38100Y-25400D01*
X-20500Y-22500D02*
X-20320Y-22860D01*
X113030Y146050D02*
X140970Y146050D01*
X147320Y146050D01*
X148000Y145950D01*
X113030Y146050D02*
X113030Y158750D01*
X112500Y159000D01*
X113030Y146050D02*
X112500Y145000D01*
X133350Y123190D02*
X135890Y123190D01*
X140970Y128270D01*
X140970Y146050D01*
X133350Y123190D02*
X132500Y122000D01*
X-22860Y124460D02*
X-22860Y115570D01*
X-22860Y124460D02*
X-20320Y127000D01*
X-20320Y129540D01*
X10160Y134620D02*
X22860Y121920D01*
X22860Y115570D01*
X-22860Y115570D02*
X-24000Y115250D01*
X22860Y115570D02*
X24000Y115250D01*
X106680Y139700D02*
X111760Y144780D01*
X106680Y139700D02*
X106680Y138430D01*
X111760Y144780D02*
X112500Y145000D01*
D47*
X-33020Y-101600D03*
X-54610Y-49530D03*
X-38100Y-25400D03*
X-20320Y129540D03*
X10160Y134620D03*
X106680Y138430D03*
D46*
X-1270Y114300D02*
X-1270Y107950D01*
X0Y106680D01*
X5080Y106680D01*
X6350Y107950D01*
X6350Y114300D01*
X-1270Y114300D02*
X-2500Y115250D01*
X6350Y114300D02*
X7500Y115250D01*
X147320Y113030D02*
X157480Y113030D01*
X12700Y125730D02*
X7620Y120650D01*
X7620Y115570D01*
X157480Y113030D02*
X157500Y112500D01*
X7620Y115570D02*
X7500Y115250D01*
D47*
X147320Y113030D03*
X12700Y125730D03*
D46*
X-20320Y-10160D02*
X-22860Y-10160D01*
X-25400Y-7620D01*
X-20500Y-10000D02*
X-20320Y-10160D01*
X-25400Y38100D02*
X-38100Y38100D01*
X-38100Y-3810D02*
X-35560Y-3810D01*
X-31750Y-7620D01*
X-25400Y-7620D01*
X-25500Y37500D02*
X-25400Y38100D01*
X-25500Y-7500D02*
X-25400Y-7620D01*
X29210Y41910D02*
X36830Y34290D01*
X68580Y34290D01*
X107950Y73660D01*
X29500Y42500D02*
X29210Y41910D01*
X107950Y73660D02*
X108500Y74000D01*
X29210Y44450D02*
X24130Y49530D01*
X29210Y44450D02*
X29210Y43180D01*
X29500Y42500D01*
X182880Y-129540D02*
X182880Y-138430D01*
X181610Y-139700D01*
X182880Y-129540D02*
X183950Y-129000D01*
X181610Y-139700D02*
X181500Y-140000D01*
X187960Y-147320D02*
X204470Y-147320D01*
X187960Y-147320D02*
X181610Y-140970D01*
X204470Y-147320D02*
X205000Y-147500D01*
X181610Y-140970D02*
X181500Y-140000D01*
X155940Y-146700D02*
X155940Y-148970D01*
X167640Y-153670D02*
X171450Y-157480D01*
X164140Y-157170D02*
X155940Y-148970D01*
X155940Y-146700D02*
X154950Y-146000D01*
X171450Y-157480D02*
X172000Y-158000D01*
X167640Y-153670D02*
X164140Y-157170D01*
X167640Y-153670D02*
X180340Y-140970D01*
X181500Y-140000D01*
X167640Y-153670D02*
X172000Y-158000D01*
X75900Y-141320D02*
X68000Y-149220D01*
X68000Y-155000D01*
X153630Y-147320D02*
X154950Y-146000D01*
X153630Y-147320D02*
X144780Y-147320D01*
X8890Y-49530D02*
X-40640Y-99060D01*
X-40640Y-104840D01*
X-56228Y-120428D01*
X-58000Y-120750D01*
X-52070Y-137160D02*
X-53250Y-138000D01*
X-52070Y-137160D02*
X-58000Y-133511D01*
X-58000Y-120750D01*
X179070Y-34290D02*
X186690Y-34290D01*
X179070Y-34290D02*
X178000Y-35050D01*
X186690Y-34290D02*
X187000Y-35050D01*
X203200Y-39370D02*
X203200Y-43180D01*
X203200Y-49530D01*
X203000Y-50250D01*
X203200Y-39370D02*
X203742Y-38789D01*
X203200Y-43180D02*
X212090Y-43180D01*
X212500Y-43000D01*
X199390Y-34290D02*
X187960Y-34290D01*
X199390Y-34290D02*
X203200Y-38100D01*
X187960Y-34290D02*
X187000Y-35050D01*
X203200Y-38100D02*
X203742Y-38789D01*
X181610Y16510D02*
X181610Y22860D01*
X181610Y16510D02*
X184150Y13970D01*
X184150Y-15240D01*
X172720Y-26670D01*
X172720Y-31750D01*
X175260Y-34290D01*
X177800Y-34290D01*
X181610Y22860D02*
X181350Y23470D01*
X177800Y-34290D02*
X178000Y-35050D01*
X106680Y-30480D02*
X102870Y-30480D01*
X97790Y-30480D01*
X106680Y-30480D02*
X107950Y-29210D01*
X97790Y-30480D02*
X97000Y-31250D01*
X107950Y-29210D02*
X108520Y-28031D01*
X36830Y-22860D02*
X34290Y-22860D01*
X36830Y-22860D02*
X54610Y-40640D01*
X102870Y-40640D02*
X105410Y-40640D01*
X102870Y-40640D02*
X54610Y-40640D01*
X34290Y-22860D02*
X34500Y-22500D01*
X105410Y-40640D02*
X106000Y-41250D01*
X102870Y-40640D02*
X102870Y-30480D01*
X134620Y-60960D02*
X134620Y-66040D01*
X134620Y-60960D02*
X139700Y-55880D01*
X142240Y-55880D01*
X144780Y-58420D02*
X148590Y-62230D01*
X144780Y-58420D02*
X142240Y-55880D01*
X148590Y-62230D02*
X148590Y-66040D01*
X134620Y-66040D02*
X134500Y-66250D01*
X148590Y-66040D02*
X149500Y-66250D01*
X179383Y-105183D02*
X180003Y-105183D01*
X179383Y-105183D02*
X173990Y-99790D01*
X173990Y-83820D01*
X173000Y-83050D01*
X155210Y-66310D02*
X149520Y-66310D01*
X163830Y-74930D02*
X172720Y-83820D01*
X163830Y-74930D02*
X155210Y-66310D01*
X149520Y-66310D02*
X149500Y-66250D01*
X173000Y-83050D02*
X172720Y-83820D01*
X40640Y-113030D02*
X36830Y-113030D01*
X37000Y-113000D01*
X40640Y-113030D02*
X41000Y-113000D01*
X41910Y-113030D02*
X86360Y-113030D01*
X106680Y-92710D01*
X139700Y-92710D02*
X166430Y-92710D01*
X139700Y-92710D02*
X106680Y-92710D01*
X139700Y-92710D02*
X143510Y-88900D01*
X143510Y-86360D02*
X143510Y-82550D01*
X143510Y-86360D02*
X143510Y-88900D01*
X41910Y-113030D02*
X41000Y-113000D01*
X143510Y-82550D02*
X144500Y-81750D01*
X152400Y-86360D02*
X163830Y-74930D01*
X152400Y-86360D02*
X143510Y-86360D01*
X115570Y-41910D02*
X106680Y-41910D01*
X115570Y-41910D02*
X134620Y-60960D01*
X106680Y-41910D02*
X106000Y-41250D01*
X146050Y-58420D02*
X172720Y-31750D01*
X146050Y-58420D02*
X144780Y-58420D01*
X16510Y-49530D02*
X8890Y-49530D01*
X16510Y-49530D02*
X26670Y-59690D01*
X26670Y-69850D01*
X34290Y-77470D01*
X44450Y-77470D01*
X54610Y-67310D01*
X54610Y-40640D01*
X166430Y-92710D02*
X166430Y-101760D01*
D47*
X-38100Y38100D03*
X-38100Y-3810D03*
X24130Y49530D03*
X75900Y-141320D03*
X144780Y-147320D03*
X166430Y-101760D03*
D46*
X9500Y-48920D02*
X9500Y-22500D01*
X9500Y-48920D02*
X8890Y-49530D01*
X39370Y16510D02*
X52070Y16510D01*
X55880Y12700D01*
X39370Y16510D02*
X39500Y17500D01*
D47*
X55880Y12700D03*
X92710Y-100840D03*
D48*
X121150Y-105500D03*
D46*
X-11430Y-22860D02*
X-21590Y-33020D01*
X-40640Y-33020D01*
X-57150Y-16510D01*
X113030Y118110D02*
X124460Y118110D01*
X129540Y113030D01*
X132080Y113030D01*
X-10500Y-22500D02*
X-11430Y-22860D01*
X132500Y112500D02*
X132080Y113030D01*
D47*
X-57150Y-16510D03*
X113030Y118110D03*
D46*
X-15240Y-22860D02*
X-22860Y-30480D01*
X-39370Y-30480D01*
X-52070Y-17780D01*
X-52070Y-1270D01*
X-53340Y0D01*
X121920Y123190D02*
X129540Y130810D01*
X132080Y130810D01*
X-15500Y-22500D02*
X-15240Y-22860D01*
X132080Y130810D02*
X132500Y131500D01*
D47*
X-53340Y0D03*
X121920Y123190D03*
D46*
X-96520Y-11430D02*
X-114300Y-11430D01*
X-96520Y-11430D02*
X-96000Y-12000D01*
X-114300Y-11430D02*
X-114750Y-12500D01*
X-114300Y-12700D02*
X-114300Y-16510D01*
X-114750Y-17500D01*
X-114300Y-12700D02*
X-114750Y-12500D01*
X205740Y-26670D02*
X212090Y-26670D01*
X205740Y-26670D02*
X201930Y-26670D01*
X201050Y-27000D01*
X212090Y-26670D02*
X212500Y-27000D01*
X125730Y-5080D02*
X109220Y-5080D01*
X205740Y-26670D02*
X205740Y-31750D01*
X109220Y-5080D02*
X108544Y-4982D01*
X-95250Y-3810D02*
X-95250Y-11430D01*
X-95250Y-3810D02*
X-77470Y13970D01*
X-60960Y13970D01*
X-95250Y-11430D02*
X-96000Y-12000D01*
D47*
X125730Y-5080D03*
X205740Y-31750D03*
X-60960Y13970D03*
D46*
X5080Y-22860D02*
X5080Y-26670D01*
X6350Y-27940D01*
X6350Y-46990D01*
X-40640Y-93980D01*
X-57150Y-93980D01*
X-71120Y-107950D01*
X-173990Y-107950D01*
X-185420Y-96520D01*
X-185420Y-87630D01*
X-171450Y-73660D01*
X-158750Y-73660D01*
X-143510Y-58420D01*
X-143510Y-7620D01*
X-119380Y16510D01*
X-115570Y16510D01*
X4500Y-22500D02*
X5080Y-22860D01*
X-114750Y17500D02*
X-115570Y16510D01*
D48*
X-114750Y2500D03*
X-20500Y15000D03*
D46*
X-1270Y-22860D02*
X-16510Y-38100D01*
X-50800Y-38100D01*
X-62230Y-26670D01*
X-96520Y7620D02*
X-114300Y7620D01*
X-1270Y-22860D02*
X-500Y-22500D01*
X-114300Y7620D02*
X-114750Y7500D01*
D47*
X-62230Y-26670D03*
X-96520Y7620D03*
D48*
X2000Y-17500D03*
X-114750Y12500D03*
D46*
X-107950Y161290D02*
X-105410Y161290D01*
X-97790Y168910D01*
X-91440Y168910D01*
X-90170Y167640D01*
X-90170Y158750D01*
X-109220Y139700D01*
X-119380Y139700D01*
X-108000Y161250D02*
X-107950Y161290D01*
X-119380Y139700D02*
X-120500Y139500D01*
X-119380Y53340D02*
X-115570Y53340D01*
X-119380Y53340D02*
X-120650Y54610D01*
X-120650Y138430D01*
X-115570Y53340D02*
X-114750Y52500D01*
X-120650Y138430D02*
X-120500Y139500D01*
X-33020Y-2540D02*
X-25400Y-2540D01*
X-33020Y-2540D02*
X-43180Y7620D01*
X195500Y-91980D02*
X195500Y-94134D01*
X189813Y-99820D01*
X-25400Y-2540D02*
X-25500Y-2500D01*
D47*
X-43180Y7620D03*
X195500Y-91980D03*
D46*
X-25400Y7620D02*
X-30480Y7620D01*
X143510Y-72390D02*
X148590Y-77470D01*
X-25400Y7620D02*
X-25500Y7500D01*
X148590Y-77470D02*
X149750Y-76500D01*
D47*
X-30480Y7620D03*
X143510Y-72390D03*
D49*
X149750Y-71500D03*
D48*
X-20500Y5000D03*
D46*
X36830Y-100330D02*
X40640Y-100330D01*
X37000Y-101000D02*
X36830Y-100330D01*
X40640Y-100330D02*
X41000Y-101000D01*
X41910Y-101600D02*
X53340Y-101600D01*
X74930Y-80010D01*
X41910Y-101600D02*
X41000Y-101000D01*
X74930Y-80010D02*
X76000Y-79720D01*
X40640Y-109220D02*
X36830Y-109220D01*
X37000Y-109000D01*
X40640Y-109220D02*
X41000Y-109000D01*
X41910Y-109220D02*
X66040Y-109220D01*
X74930Y-100330D01*
X41910Y-109220D02*
X41000Y-109000D01*
X74930Y-100330D02*
X76000Y-100280D01*
D48*
X-114750Y-7500D03*
X7000Y37500D03*
D46*
X-8890Y-86360D02*
X-16510Y-86360D01*
X-8890Y-86360D02*
X8890Y-104140D01*
X8890Y-124350D01*
X-16510Y-86360D02*
X-17000Y-86000D01*
X8890Y-124350D02*
X8250Y-125000D01*
X-20320Y30480D02*
X-20320Y35560D01*
X-21590Y36830D01*
X-21590Y38100D01*
X-25400Y41910D01*
X-25400Y55880D01*
X-27940Y58420D01*
X1270Y67310D02*
X5080Y67310D01*
X12700Y74930D01*
X-20320Y30480D02*
X-20500Y30000D01*
X12700Y74930D02*
X13500Y75022D01*
X22860Y100330D02*
X22860Y101600D01*
X19050Y105410D01*
X15240Y105410D01*
X12700Y102870D01*
X12700Y76200D01*
X23050Y100000D02*
X22860Y100330D01*
X12700Y76200D02*
X13500Y75022D01*
D47*
X-27940Y58420D03*
X1270Y67310D03*
D46*
X-20320Y25400D02*
X-24130Y25400D01*
X-26670Y27940D01*
X-45720Y27940D01*
X-17780Y62230D02*
X-17780Y69850D01*
X-12700Y74930D01*
X-20320Y25400D02*
X-20500Y25000D01*
X-12700Y74930D02*
X-11500Y74978D01*
X-13970Y77470D02*
X-13970Y92710D01*
X-13970Y77470D02*
X-12700Y76200D01*
X-13970Y92710D02*
X-15048Y93096D01*
X-12700Y76200D02*
X-11500Y74978D01*
D47*
X-45720Y27940D03*
X-17780Y62230D03*
D46*
X110490Y-88900D02*
X127000Y-88900D01*
X133350Y-82550D01*
X110490Y-88900D02*
X110000Y-88750D01*
X133350Y-82550D02*
X134500Y-81750D01*
X191587Y-102870D02*
X195580Y-102870D01*
X215900Y-82550D01*
X218440Y-82550D01*
X191587Y-102870D02*
X189997Y-104817D01*
X218440Y-82550D02*
X219000Y-81500D01*
X6350Y95250D02*
X5080Y95250D01*
X6350Y95250D02*
X10160Y99060D01*
X10160Y107950D01*
X11430Y109220D01*
X11430Y114300D01*
X5080Y95250D02*
X4000Y94250D01*
X11430Y114300D02*
X12500Y115250D01*
X-62230Y-31750D02*
X-73660Y-31750D01*
X-62230Y-31750D02*
X-46990Y-46990D01*
X-46990Y-52070D01*
X-68580Y-73660D01*
X-68580Y-83280D01*
X-89550Y-104250D01*
X-150250Y-104250D01*
X-152500Y-102000D01*
X-74000Y-31500D02*
X-73660Y-31750D01*
X-162560Y-92710D02*
X-175260Y-92710D01*
X-162560Y-92710D02*
X-153670Y-101600D01*
X-175260Y-92710D02*
X-176500Y-92000D01*
X-153670Y-101600D02*
X-152500Y-102000D01*
X-71120Y163830D02*
X-59690Y163830D01*
X-30480Y134620D01*
X-19050Y134620D01*
X-15240Y130810D01*
X-15240Y123190D01*
X-16510Y121920D01*
X-16510Y115570D01*
X-71120Y163830D02*
X-71250Y165000D01*
X-17500Y115250D02*
X-16510Y115570D01*
X-82550Y-12700D02*
X-74930Y-20320D01*
X-82550Y-12700D02*
X-85090Y-12700D01*
X-74930Y-20320D02*
X-74000Y-20500D01*
X-85090Y-12700D02*
X-86000Y-12000D01*
X-142240Y144780D02*
X-148590Y144780D01*
X-166370Y127000D01*
X-142240Y144780D02*
X-141500Y146000D01*
X-166370Y127000D02*
X-167500Y126000D01*
X-86360Y-8890D02*
X-86360Y-11430D01*
X-86360Y-8890D02*
X-90170Y-5080D01*
X-154940Y106680D02*
X-154940Y114300D01*
X-166370Y125730D01*
X-86360Y-11430D02*
X-86000Y-12000D01*
X-166370Y125730D02*
X-167500Y126000D01*
D47*
X-90170Y-5080D03*
X-154940Y106680D03*
D46*
X-143510Y111760D02*
X-143510Y119380D01*
X-143510Y111760D02*
X-161290Y93980D01*
X-191770Y93980D01*
X-144253Y120120D02*
X-143510Y119380D01*
X-191770Y93980D02*
X-192380Y93000D01*
X-99060Y160020D02*
X-95250Y160020D01*
X-99060Y160020D02*
X-114300Y144780D01*
X-125730Y144780D01*
X-143510Y127000D01*
X-143510Y120650D01*
X-95250Y160020D02*
X-95000Y160250D01*
X-143510Y120650D02*
X-144253Y120120D01*
X31750Y-109220D02*
X33020Y-109220D01*
X31750Y-109220D02*
X29210Y-111760D01*
X29210Y-138430D01*
X34290Y-143510D01*
X33020Y-109220D02*
X33000Y-109000D01*
X34290Y-143510D02*
X33750Y-144000D01*
X-95250Y49530D02*
X-104140Y49530D01*
X-110490Y43180D01*
X-114300Y43180D01*
X-95250Y49530D02*
X-95000Y50500D01*
X-114300Y43180D02*
X-114750Y42500D01*
X-109220Y39370D02*
X-95250Y39370D01*
X-109220Y39370D02*
X-110490Y38100D01*
X-114300Y38100D01*
X-95250Y39370D02*
X-95000Y39500D01*
X-114300Y38100D02*
X-114750Y37500D01*
X-105410Y-21590D02*
X-96520Y-21590D01*
X-105410Y-21590D02*
X-110490Y-26670D01*
X-114300Y-26670D01*
X-96520Y-21590D02*
X-95500Y-21000D01*
X-114300Y-26670D02*
X-114750Y-27500D01*
D48*
X-114750Y-32500D03*
X-83500Y-31000D03*
D46*
X-82550Y-39370D02*
X-76200Y-39370D01*
X-101600Y-36830D02*
X-114300Y-36830D01*
X-83500Y-40000D02*
X-82550Y-39370D01*
X-114300Y-36830D02*
X-114750Y-37500D01*
D47*
X-76200Y-39370D03*
X-101600Y-36830D03*
D46*
X-82550Y-50800D02*
X-78740Y-50800D01*
X-76200Y-53340D01*
X-57150Y-53340D01*
X-55880Y-54610D01*
X-53340Y-54610D01*
X-49530Y-50800D01*
X-49530Y-48260D01*
X-55880Y-41910D01*
X-67310Y-41910D01*
X-106680Y-44450D02*
X-109220Y-44450D01*
X-110490Y-43180D01*
X-114300Y-43180D01*
X-83500Y-50000D02*
X-82550Y-50800D01*
X-114300Y-43180D02*
X-114750Y-42500D01*
D47*
X-67310Y-41910D03*
X-106680Y-44450D03*
D46*
X-101600Y-57150D02*
X-95250Y-57150D01*
X-101600Y-57150D02*
X-110490Y-48260D01*
X-114300Y-48260D01*
X-95250Y-57150D02*
X-94500Y-58000D01*
X-114300Y-48260D02*
X-114750Y-47500D01*
X-88900Y-73660D02*
X-83820Y-68580D01*
X-88900Y-73660D02*
X-88900Y-81280D01*
X-91440Y-83820D01*
X-97790Y-83820D01*
X-120650Y-60960D01*
X-120650Y-54610D01*
X-119380Y-53340D01*
X-115570Y-53340D01*
X-83820Y-68580D02*
X-83500Y-68000D01*
X-114750Y-52500D02*
X-115570Y-53340D01*
X-114300Y-58420D02*
X-95250Y-77470D01*
X-94500Y-78000D01*
X-114300Y-58420D02*
X-114750Y-57500D01*
X-54610Y33020D02*
X-25400Y33020D01*
X-54610Y33020D02*
X-92710Y71120D01*
X-92710Y83820D01*
X-90170Y86360D01*
X-35560Y86360D01*
X-30480Y91440D01*
X-30480Y93980D01*
X-25400Y33020D02*
X-25500Y32500D01*
X-29950Y94000D02*
X-30480Y93980D01*
X-17780Y40640D02*
X-17780Y38100D01*
X-17780Y40640D02*
X-20320Y43180D01*
X-30480Y43180D02*
X-44450Y43180D01*
X-78740Y77470D01*
X-17780Y38100D02*
X-18000Y37500D01*
X-78740Y77470D02*
X-79000Y77720D01*
D47*
X-20320Y43180D03*
X-30480Y43180D03*
D46*
X-92710Y111760D02*
X-92710Y127000D01*
X-92710Y111760D02*
X-80010Y99060D01*
X-92710Y127000D02*
X-93280Y127000D01*
X-80010Y99060D02*
X-79000Y98280D01*
X97790Y99060D02*
X97790Y110490D01*
X96520Y111760D01*
X97790Y99060D02*
X97950Y99000D01*
X96520Y111760D02*
X95500Y113000D01*
X45720Y27940D02*
X39370Y27940D01*
X45720Y27940D02*
X48260Y25400D01*
X48260Y39370D02*
X48260Y60960D01*
X77470Y90170D02*
X81280Y93980D01*
X77470Y90170D02*
X48260Y60960D01*
X81280Y93980D02*
X81280Y96520D01*
X39370Y27940D02*
X39500Y27500D01*
X81280Y96520D02*
X82000Y96950D01*
X82550Y97790D02*
X97790Y97790D01*
X97950Y99000D01*
X82550Y97790D02*
X82000Y96950D01*
X-12700Y50800D02*
X-12700Y38100D01*
X-12700Y50800D02*
X-25400Y63500D01*
X-25400Y91440D02*
X-25400Y96520D01*
X-25400Y91440D02*
X-25400Y63500D01*
X-25400Y96520D02*
X-36830Y107950D01*
X-53340Y107950D01*
X-72390Y127000D01*
X-12700Y38100D02*
X-13000Y37500D01*
X-72390Y127000D02*
X-72720Y127000D01*
X77470Y91440D02*
X77470Y90170D01*
X-21590Y91440D02*
X-25400Y91440D01*
D47*
X48260Y25400D03*
X48260Y39370D03*
X77470Y91440D03*
X-21590Y91440D03*
D46*
X19050Y59690D02*
X19050Y43180D01*
X19050Y59690D02*
X24130Y64770D01*
X19050Y43180D02*
X19500Y42500D01*
X24130Y64770D02*
X24950Y66000D01*
X39370Y63500D02*
X39370Y38100D01*
X39370Y63500D02*
X48260Y72390D01*
X48260Y86360D01*
X54610Y92710D01*
X39370Y38100D02*
X39500Y37500D01*
X54610Y92710D02*
X55250Y92750D01*
X55880Y92710D02*
X66040Y92710D01*
X67000Y93050D01*
X55880Y92710D02*
X55250Y92750D01*
X34290Y62230D02*
X34290Y43180D01*
X34290Y62230D02*
X40640Y68580D01*
X40640Y80010D01*
X34290Y43180D02*
X34500Y42500D01*
X40640Y80010D02*
X40750Y81250D01*
X38100Y83820D02*
X29210Y83820D01*
X38100Y83820D02*
X40640Y81280D01*
X29210Y83820D02*
X29000Y83950D01*
X40640Y81280D02*
X40750Y81250D01*
X38100Y30480D02*
X34290Y30480D01*
X38100Y30480D02*
X39370Y31750D01*
X74930Y31750D01*
X111760Y68580D01*
X113030Y68580D01*
X114300Y69850D01*
X114300Y81280D01*
X116840Y83820D01*
X34290Y30480D02*
X34500Y30000D01*
X116840Y83820D02*
X118000Y83950D01*
X36830Y20320D02*
X34290Y20320D01*
X36830Y20320D02*
X39370Y22860D01*
X41910Y101600D02*
X64770Y124460D01*
X64770Y144780D01*
X34290Y20320D02*
X34500Y20000D01*
X64770Y144780D02*
X65720Y146000D01*
X64770Y146050D02*
X64770Y166370D01*
X64950Y167000D01*
X64770Y146050D02*
X65720Y146000D01*
D47*
X39370Y22860D03*
X41910Y101600D03*
D46*
X90170Y149860D02*
X90170Y167640D01*
X90170Y149860D02*
X86360Y146050D01*
X90170Y167640D02*
X91050Y168000D01*
X86360Y146050D02*
X86280Y146000D01*
X118110Y166370D02*
X135890Y166370D01*
X118110Y166370D02*
X116840Y167640D01*
X91440Y167640D01*
X91050Y168000D01*
X168910Y147320D02*
X185420Y147320D01*
X168910Y147320D02*
X146050Y170180D01*
X139700Y170180D01*
X135890Y166370D01*
X185420Y147320D02*
X186000Y147000D01*
X136950Y166000D02*
X135890Y166370D01*
X33020Y-113030D02*
X33020Y-114300D01*
X34560Y-115840D01*
X87360Y-115840D01*
X100790Y-102410D01*
X159840Y-102410D01*
X33020Y-113030D02*
X33000Y-113000D01*
X159840Y-102410D02*
X160000Y-102250D01*
X58420Y7620D02*
X39370Y7620D01*
X58420Y7620D02*
X113030Y62230D01*
X39500Y7500D02*
X39370Y7620D01*
X113030Y62230D02*
X113950Y63000D01*
X-13970Y-17780D02*
X-19050Y-17780D01*
X-20320Y-19050D01*
X-22860Y-19050D01*
X-24130Y-17780D01*
X-6350Y-43180D02*
X0Y-43180D01*
X-13000Y-17500D02*
X-13970Y-17780D01*
X1000Y-42500D02*
X0Y-43180D01*
D47*
X-24130Y-17780D03*
X-6350Y-43180D03*
D46*
X191454Y-107950D02*
X207010Y-107950D01*
X215900Y-99060D01*
X191454Y-107950D02*
X190180Y-109813D01*
X215900Y-99060D02*
X217000Y-99000D01*
X180187Y-110180D02*
X173518Y-109864D01*
X163000Y-121000D01*
X-184150Y-129540D02*
X-196850Y-142240D01*
X-196850Y-152400D01*
X-186690Y-162560D01*
X-144780Y-162560D01*
X-133350Y-151130D01*
X-127527Y-151130D01*
X-183000Y-129500D02*
X-184150Y-129540D01*
X-124002Y-135285D02*
X-127527Y-151130D01*
X-19050Y-35560D02*
X-6350Y-22860D01*
X-19050Y-35560D02*
X-44450Y-35560D01*
X-46990Y-33020D01*
X-6350Y-22860D02*
X-5500Y-22500D01*
X-52070Y-99060D02*
X-52070Y-110756D01*
X-58000Y-115250D01*
X-113300Y-129430D02*
X-116020Y-132150D01*
X-124002Y-135285D01*
D47*
X-46990Y-33020D03*
X-52070Y-99060D03*
X-113300Y-129430D03*
D46*
X-58420Y-138430D02*
X-58420Y-139700D01*
X-52070Y-146050D01*
X-58420Y-138430D02*
X-58750Y-138000D01*
X-28554Y-135781D02*
X-14002Y-135285D01*
X-28554Y-135781D02*
X-52070Y-146050D01*
X-65500Y-91980D02*
X-65500Y-83000D01*
X-65500Y-91980D02*
X-63500Y-93980D01*
X-62500Y-80000D02*
X-62500Y-77000D01*
X-62500Y-80000D02*
X-65500Y-83000D01*
X-63500Y-106680D02*
X-63500Y-133350D01*
X-59690Y-137160D01*
X-58750Y-138000D01*
D47*
X-63500Y-93980D03*
X-63500Y-106680D03*
D48*
X-3000Y-17500D03*
D46*
X34290Y-16510D02*
X34290Y-10160D01*
X34290Y-16510D02*
X39370Y-21590D01*
X88900Y-21590D01*
X90170Y-20320D01*
X34500Y-10000D02*
X34290Y-10160D01*
X90170Y-20320D02*
X91217Y-20182D01*
X95250Y-35560D02*
X96520Y-35560D01*
X95250Y-35560D02*
X88900Y-29210D01*
X88900Y-21590D01*
X96520Y-35560D02*
X97000Y-36750D01*
X88900Y-21590D02*
X91217Y-20182D01*
X48260Y-7620D02*
X39370Y-7620D01*
X54610Y-1270D02*
X91440Y35560D01*
X54610Y-1270D02*
X48260Y-7620D01*
X91440Y35560D02*
X121920Y35560D01*
X123190Y36830D01*
X123190Y46990D01*
X118110Y52070D01*
X39500Y-7500D02*
X39370Y-7620D01*
X118110Y52070D02*
X118000Y52500D01*
X105410Y-45720D02*
X100330Y-45720D01*
X62230Y-7620D02*
X55880Y-1270D01*
X54610Y-1270D01*
X105410Y-45720D02*
X106000Y-46750D01*
X95998Y-135285D02*
X84313Y-146970D01*
X81520Y-146970D01*
D47*
X100330Y-45720D03*
X62230Y-7620D03*
X81520Y-146970D03*
D48*
X-17000Y-98000D03*
X-20500Y0D03*
D46*
X-148590Y120650D02*
X-148590Y125730D01*
X-120650Y153670D01*
X-148590Y120650D02*
X-149747Y119880D01*
X-120500Y152500D02*
X-120650Y153670D01*
X-119380Y48260D02*
X-115570Y48260D01*
X-119380Y48260D02*
X-125730Y54610D01*
X-148590Y113030D02*
X-148590Y119380D01*
X-115570Y48260D02*
X-114750Y47500D01*
X-148590Y119380D02*
X-149747Y119880D01*
D47*
X-125730Y54610D03*
X-148590Y113030D03*
D46*
X163830Y49530D02*
X167640Y49530D01*
X163830Y49530D02*
X154940Y58420D01*
X143510Y58420D01*
X125730Y40640D01*
X125730Y35560D01*
X123190Y33020D01*
X95250Y33020D01*
X80010Y17780D01*
X14050Y-56420D02*
X14050Y-70953D01*
X167640Y49530D02*
X168650Y48880D01*
X14050Y-70953D02*
X14000Y-71000D01*
D47*
X80010Y17780D03*
D49*
X14050Y-56420D03*
D48*
X7000Y-17500D03*
D46*
X3810Y43180D02*
X-1270Y48260D01*
X-30480Y19050D02*
X-78740Y19050D01*
X-99060Y-1270D01*
X-114300Y-1270D01*
X3810Y43180D02*
X4500Y42500D01*
X-114300Y-1270D02*
X-114750Y-2500D01*
D47*
X-1270Y48260D03*
X-30480Y19050D03*
D46*
X180340Y-91980D02*
X180340Y-100050D01*
X186690Y-50800D02*
X198120Y-39370D01*
X180340Y-100050D02*
X179820Y-100187D01*
X198120Y-39370D02*
X198258Y-39211D01*
X-11430Y-93980D02*
X-16510Y-93980D01*
X-11430Y-93980D02*
X0Y-105410D01*
X19050Y-113460D02*
X19050Y-134620D01*
X27940Y-143510D01*
X-16510Y-93980D02*
X-17000Y-94000D01*
X27940Y-143510D02*
X28250Y-144000D01*
X129540Y-76200D02*
X133350Y-76200D01*
X129540Y-76200D02*
X128270Y-74930D01*
X133350Y-76200D02*
X134250Y-76500D01*
X91291Y-119270D02*
X92291Y-120270D01*
X91291Y-119270D02*
X62340Y-119270D01*
X38100Y-143510D01*
X38100Y-146050D01*
X35560Y-148590D01*
X31750Y-148590D01*
X27940Y-144780D01*
X28250Y-144000D01*
D47*
X180340Y-91980D03*
X186690Y-50800D03*
X0Y-105410D03*
X19050Y-113460D03*
X128270Y-74930D03*
D48*
X-20500Y10000D03*
D49*
X92291Y-120270D03*
D48*
X121150Y-115500D03*
D46*
X-8890Y-90170D02*
X-16510Y-90170D01*
X-8890Y-90170D02*
X5080Y-104140D01*
X5080Y-114300D01*
X3810Y-115570D01*
X58610Y-129350D02*
X67893Y-129350D01*
X58610Y-129350D02*
X54610Y-133350D01*
X-16510Y-90170D02*
X-17000Y-90000D01*
X-25400Y12700D02*
X-44450Y12700D01*
X-48260Y8890D01*
X-48260Y-8890D01*
X-41910Y-15240D01*
X-25500Y12500D02*
X-25400Y12700D01*
X158005Y-107765D02*
X160000Y-107750D01*
X158005Y-107765D02*
X149000Y-98760D01*
X138430Y-87630D02*
X138430Y-82550D01*
X139500Y-81750D01*
X203000Y-64060D02*
X203000Y-55750D01*
X203000Y-64060D02*
X202100Y-64960D01*
D47*
X3810Y-115570D03*
X54610Y-133350D03*
X-41910Y-15240D03*
X149000Y-98760D03*
X138430Y-87630D03*
X202100Y-64960D03*
D48*
X185000Y-105000D03*
X121150Y-120500D03*
D49*
X67893Y-129350D03*
D46*
X80010Y-12700D02*
X39370Y-12700D01*
X80010Y-12700D02*
X111760Y19050D01*
X39500Y-12500D02*
X39370Y-12700D01*
X111760Y19050D02*
X113000Y20000D01*
X163830Y35560D02*
X167640Y35560D01*
X163830Y35560D02*
X154940Y26670D01*
X119380Y26670D01*
X113030Y20320D01*
X167640Y35560D02*
X168650Y36170D01*
X113030Y20320D02*
X113000Y20000D01*
X83820Y-16510D02*
X39370Y-16510D01*
X83820Y-16510D02*
X88900Y-11430D01*
X106680Y-11430D01*
X127000Y-31750D01*
X144780Y-31750D01*
X39500Y-17500D02*
X39370Y-16510D01*
X144780Y-31750D02*
X146000Y-32000D01*
X167640Y13970D02*
X167640Y22860D01*
X167640Y13970D02*
X165100Y11430D01*
X165100Y-12700D01*
X146050Y-31750D01*
X167640Y22860D02*
X168650Y23470D01*
X146050Y-31750D02*
X146000Y-32000D01*
X30480Y-22860D02*
X30480Y-57150D01*
X38100Y-64770D01*
X30480Y-22860D02*
X29500Y-22500D01*
X38100Y-64770D02*
X39000Y-65000D01*
X-21590Y-90170D02*
X-27940Y-90170D01*
X-38100Y-100330D01*
X-38100Y-102870D01*
X-34770Y-106200D01*
X-21590Y-90170D02*
X-21000Y-90000D01*
X-34770Y-106200D02*
X-42000Y-110750D01*
X-42000Y-123000D01*
X-41000Y-124000D01*
X49530Y-156210D02*
X49530Y-161290D01*
X49530Y-156210D02*
X80850Y-124890D01*
X169510Y-143160D02*
X172510Y-140160D01*
X169510Y-143160D02*
X164510Y-143160D01*
X146240Y-124890D01*
X80850Y-124890D01*
X49530Y-161290D02*
X49050Y-162000D01*
X-23460Y-126160D02*
X-38840Y-126160D01*
X-41000Y-124000D01*
X41910Y-148590D02*
X49530Y-156210D01*
D47*
X-23460Y-126160D03*
X41910Y-148590D03*
D49*
X172510Y-140160D03*
D48*
X140850Y-110500D03*
D49*
X140850Y-115500D03*
D46*
X-160020Y-143510D02*
X-160020Y-148590D01*
X-152400Y-156210D01*
X-160020Y-143510D02*
X-160950Y-143000D01*
X-152400Y-156210D02*
X-151500Y-157000D01*
X-143810Y-152430D02*
X-143810Y-134510D01*
X-143810Y-152430D02*
X-147590Y-156210D01*
X-151130Y-156210D01*
X-152500Y-124933D01*
X-151130Y-156210D02*
X-151500Y-157000D01*
X-25400Y-93980D02*
X-21590Y-93980D01*
X-25400Y-93980D02*
X-26670Y-95250D01*
X21590Y-95250D02*
X31750Y-95250D01*
X33020Y-96520D01*
X-21000Y-94000D02*
X-21590Y-93980D01*
X33020Y-96520D02*
X36830Y-96520D01*
X33020Y-96520D02*
X33000Y-97000D01*
X36830Y-96520D02*
X40640Y-96520D01*
X41000Y-97000D01*
X37000Y-97000D02*
X36830Y-96520D01*
X-45720Y-151130D02*
X-54610Y-160020D01*
X-55000Y-161000D01*
D47*
X-26670Y-95250D03*
X21590Y-95250D03*
X-45720Y-151130D03*
X-143810Y-134510D03*
M02*
