G04 EAGLE Gerber RS-274X export*
G75*
%MOMM*%
%FSLAX34Y34*%
%LPD*%
%INCopper Layer 2*%
%IPPOS*%
%AMOC8*
5,1,8,0,0,1.08239X$1,22.5*%
G01*
G04 Define Apertures*
%ADD10C,1.158000*%
%ADD11C,1.066800*%
%ADD12C,0.808000*%
%ADD13C,0.706400*%
%ADD14C,0.606400*%
%ADD15C,0.756400*%
%ADD16C,0.127000*%
G36*
X-176692Y-168619D02*
X-176988Y-168684D01*
X-177286Y-168629D01*
X-177539Y-168461D01*
X-221777Y-124223D01*
X-221940Y-123982D01*
X-222000Y-123684D01*
X-222000Y-75088D01*
X-222036Y-74936D01*
X-222005Y-74487D01*
X-221841Y-74232D01*
X-221591Y-74060D01*
X-221294Y-74000D01*
X-155088Y-74000D01*
X-154983Y-73975D01*
X-154956Y-73956D01*
X-152062Y-71062D01*
X-152005Y-70970D01*
X-152000Y-70938D01*
X-152000Y68912D01*
X-152025Y69017D01*
X-152044Y69044D01*
X-156938Y73938D01*
X-157030Y73995D01*
X-157062Y74000D01*
X-224238Y74000D01*
X-224513Y74051D01*
X-224768Y74215D01*
X-224940Y74465D01*
X-225000Y74762D01*
X-225000Y115684D01*
X-224944Y115970D01*
X-224777Y116223D01*
X-170666Y170334D01*
X-170501Y170459D01*
X-170213Y170552D01*
X-166389Y170983D01*
X-166017Y170932D01*
X-165765Y170765D01*
X-163062Y168062D01*
X-162970Y168005D01*
X-162938Y168000D01*
X-51079Y168000D01*
X-50810Y167951D01*
X-50553Y167790D01*
X-50379Y167541D01*
X-50317Y167244D01*
X-50375Y166946D01*
X-51530Y164157D01*
X-51530Y163262D01*
X-34870Y163262D01*
X-34870Y164157D01*
X-36025Y166946D01*
X-36083Y167214D01*
X-36032Y167513D01*
X-35869Y167768D01*
X-35619Y167940D01*
X-35321Y168000D01*
X35321Y168000D01*
X35590Y167951D01*
X35847Y167790D01*
X36021Y167541D01*
X36083Y167244D01*
X36025Y166946D01*
X34870Y164157D01*
X34870Y163262D01*
X51530Y163262D01*
X51530Y164157D01*
X50375Y166946D01*
X50317Y167214D01*
X50368Y167513D01*
X50531Y167768D01*
X50781Y167940D01*
X51079Y168000D01*
X180516Y168000D01*
X180768Y167957D01*
X185642Y166252D01*
X185929Y166071D01*
X216938Y135062D01*
X217030Y135005D01*
X217062Y135000D01*
X217238Y135000D01*
X217513Y134949D01*
X217768Y134785D01*
X217940Y134535D01*
X218000Y134238D01*
X218000Y-132684D01*
X217944Y-132970D01*
X217777Y-133223D01*
X199223Y-151777D01*
X198982Y-151940D01*
X198684Y-152000D01*
X150527Y-152000D01*
X150263Y-151953D01*
X150005Y-151794D01*
X149830Y-151546D01*
X149765Y-151250D01*
X149820Y-150952D01*
X149894Y-150842D01*
X150852Y-148528D01*
X150852Y-146112D01*
X149928Y-143880D01*
X148220Y-142172D01*
X145988Y-141248D01*
X143572Y-141248D01*
X141340Y-142172D01*
X139632Y-143880D01*
X138708Y-146112D01*
X138708Y-148528D01*
X139659Y-150824D01*
X139725Y-150919D01*
X139795Y-151214D01*
X139744Y-151513D01*
X139581Y-151768D01*
X139330Y-151940D01*
X139033Y-152000D01*
X136820Y-152000D01*
X136551Y-151951D01*
X136294Y-151790D01*
X136121Y-151541D01*
X136058Y-151244D01*
X136116Y-150946D01*
X136352Y-150376D01*
X136352Y-147244D01*
X135153Y-144350D01*
X132938Y-142135D01*
X130044Y-140936D01*
X126912Y-140936D01*
X124018Y-142135D01*
X121803Y-144350D01*
X120604Y-147244D01*
X120604Y-150376D01*
X120840Y-150946D01*
X120898Y-151214D01*
X120847Y-151513D01*
X120684Y-151768D01*
X120433Y-151940D01*
X120136Y-152000D01*
X99864Y-152000D01*
X99595Y-151951D01*
X99338Y-151790D01*
X99165Y-151541D01*
X99102Y-151244D01*
X99160Y-150946D01*
X99396Y-150376D01*
X99396Y-147244D01*
X98197Y-144350D01*
X95982Y-142135D01*
X93088Y-140936D01*
X89956Y-140936D01*
X87062Y-142135D01*
X86706Y-142491D01*
X86475Y-142649D01*
X86179Y-142714D01*
X85881Y-142658D01*
X85628Y-142491D01*
X84960Y-141822D01*
X82723Y-140896D01*
X82459Y-140847D01*
X82204Y-140683D01*
X82032Y-140433D01*
X81972Y-140136D01*
X81972Y-140112D01*
X81048Y-137880D01*
X79340Y-136172D01*
X77108Y-135248D01*
X74692Y-135248D01*
X72460Y-136172D01*
X70752Y-137880D01*
X69828Y-140112D01*
X69828Y-142528D01*
X70752Y-144760D01*
X72460Y-146468D01*
X74697Y-147394D01*
X74961Y-147443D01*
X75216Y-147607D01*
X75388Y-147857D01*
X75448Y-148154D01*
X75448Y-148178D01*
X76372Y-150410D01*
X76662Y-150699D01*
X76815Y-150919D01*
X76885Y-151214D01*
X76834Y-151513D01*
X76671Y-151768D01*
X76420Y-151940D01*
X76123Y-152000D01*
X48210Y-152000D01*
X47941Y-151951D01*
X47684Y-151790D01*
X47511Y-151541D01*
X47448Y-151244D01*
X47506Y-150946D01*
X47982Y-149798D01*
X47982Y-147382D01*
X47058Y-145150D01*
X45350Y-143442D01*
X43118Y-142518D01*
X40702Y-142518D01*
X38470Y-143442D01*
X36762Y-145150D01*
X35838Y-147382D01*
X35838Y-149798D01*
X36314Y-150946D01*
X36371Y-151214D01*
X36321Y-151513D01*
X36157Y-151768D01*
X35907Y-151940D01*
X35610Y-152000D01*
X26820Y-152000D01*
X26551Y-151951D01*
X26294Y-151790D01*
X26121Y-151541D01*
X26058Y-151244D01*
X26116Y-150946D01*
X26352Y-150376D01*
X26352Y-147244D01*
X25153Y-144350D01*
X22938Y-142135D01*
X20044Y-140936D01*
X16912Y-140936D01*
X14018Y-142135D01*
X11803Y-144350D01*
X10604Y-147244D01*
X10604Y-150376D01*
X10840Y-150946D01*
X10898Y-151214D01*
X10847Y-151513D01*
X10684Y-151768D01*
X10433Y-151940D01*
X10136Y-152000D01*
X-10136Y-152000D01*
X-10405Y-151951D01*
X-10662Y-151790D01*
X-10835Y-151541D01*
X-10898Y-151244D01*
X-10840Y-150946D01*
X-10604Y-150376D01*
X-10604Y-147244D01*
X-11803Y-144350D01*
X-14018Y-142135D01*
X-16912Y-140936D01*
X-20044Y-140936D01*
X-22938Y-142135D01*
X-25153Y-144350D01*
X-26352Y-147244D01*
X-26352Y-150376D01*
X-26116Y-150946D01*
X-26058Y-151214D01*
X-26109Y-151513D01*
X-26273Y-151768D01*
X-26523Y-151940D01*
X-26820Y-152000D01*
X-38886Y-152000D01*
X-39161Y-151949D01*
X-39416Y-151785D01*
X-39588Y-151535D01*
X-39648Y-151238D01*
X-39648Y-149922D01*
X-40572Y-147690D01*
X-42280Y-145982D01*
X-44512Y-145058D01*
X-46928Y-145058D01*
X-49160Y-145982D01*
X-50868Y-147690D01*
X-51792Y-149922D01*
X-51792Y-151238D01*
X-51843Y-151513D01*
X-52007Y-151768D01*
X-52257Y-151940D01*
X-52554Y-152000D01*
X-83180Y-152000D01*
X-83449Y-151951D01*
X-83706Y-151790D01*
X-83879Y-151541D01*
X-83942Y-151244D01*
X-83884Y-150946D01*
X-83648Y-150376D01*
X-83648Y-147244D01*
X-84847Y-144350D01*
X-87062Y-142135D01*
X-89956Y-140936D01*
X-93088Y-140936D01*
X-95982Y-142135D01*
X-98197Y-144350D01*
X-99396Y-147244D01*
X-99396Y-150376D01*
X-99160Y-150946D01*
X-99102Y-151214D01*
X-99153Y-151513D01*
X-99317Y-151768D01*
X-99567Y-151940D01*
X-99864Y-152000D01*
X-120136Y-152000D01*
X-120405Y-151951D01*
X-120662Y-151790D01*
X-120835Y-151541D01*
X-120898Y-151244D01*
X-120840Y-150946D01*
X-120604Y-150376D01*
X-120604Y-147244D01*
X-121803Y-144350D01*
X-124018Y-142135D01*
X-126912Y-140936D01*
X-130044Y-140936D01*
X-132938Y-142135D01*
X-135153Y-144350D01*
X-136352Y-147244D01*
X-136352Y-150376D01*
X-136116Y-150946D01*
X-136058Y-151214D01*
X-136109Y-151513D01*
X-136273Y-151768D01*
X-136523Y-151940D01*
X-136820Y-152000D01*
X-159912Y-152000D01*
X-160017Y-152025D01*
X-160044Y-152044D01*
X-176461Y-168461D01*
X-176692Y-168619D01*
G37*
%LPC*%
G36*
X43962Y154170D02*
X44857Y154170D01*
X47919Y155438D01*
X50262Y157781D01*
X51530Y160843D01*
X51530Y161738D01*
X43962Y161738D01*
X43962Y154170D01*
G37*
G36*
X41543Y154170D02*
X42438Y154170D01*
X42438Y161738D01*
X34870Y161738D01*
X34870Y160843D01*
X36138Y157781D01*
X38481Y155438D01*
X41543Y154170D01*
G37*
G36*
X-42438Y154170D02*
X-41543Y154170D01*
X-38481Y155438D01*
X-36138Y157781D01*
X-34870Y160843D01*
X-34870Y161738D01*
X-42438Y161738D01*
X-42438Y154170D01*
G37*
G36*
X-44857Y154170D02*
X-43962Y154170D01*
X-43962Y161738D01*
X-51530Y161738D01*
X-51530Y160843D01*
X-50262Y157781D01*
X-47919Y155438D01*
X-44857Y154170D01*
G37*
G36*
X36892Y137438D02*
X39308Y137438D01*
X41540Y138362D01*
X43248Y140070D01*
X44172Y142302D01*
X44172Y144718D01*
X43248Y146950D01*
X41540Y148658D01*
X39308Y149582D01*
X36892Y149582D01*
X34660Y148658D01*
X32952Y146950D01*
X32028Y144718D01*
X32028Y142302D01*
X32952Y140070D01*
X34660Y138362D01*
X36892Y137438D01*
G37*
G36*
X105472Y132358D02*
X107888Y132358D01*
X110120Y133282D01*
X111828Y134990D01*
X112752Y137222D01*
X112752Y139638D01*
X111828Y141870D01*
X110120Y143578D01*
X107888Y144502D01*
X105472Y144502D01*
X103240Y143578D01*
X101532Y141870D01*
X100608Y139638D01*
X100608Y137222D01*
X101532Y134990D01*
X103240Y133282D01*
X105472Y132358D01*
G37*
G36*
X11492Y119658D02*
X13908Y119658D01*
X16140Y120582D01*
X17848Y122290D01*
X18772Y124522D01*
X18772Y126938D01*
X17848Y129170D01*
X16140Y130878D01*
X16026Y130924D01*
X15792Y131077D01*
X15619Y131326D01*
X15556Y131622D01*
X15614Y131920D01*
X16232Y133412D01*
X16232Y135828D01*
X15308Y138060D01*
X13600Y139768D01*
X11368Y140692D01*
X8952Y140692D01*
X6720Y139768D01*
X5012Y138060D01*
X4088Y135828D01*
X4088Y133412D01*
X5012Y131180D01*
X6721Y129472D01*
X6834Y129426D01*
X7068Y129273D01*
X7241Y129024D01*
X7304Y128728D01*
X7246Y128430D01*
X6628Y126938D01*
X6628Y124522D01*
X7552Y122290D01*
X9260Y120582D01*
X11492Y119658D01*
G37*
G36*
X146112Y126008D02*
X148528Y126008D01*
X150760Y126932D01*
X152468Y128640D01*
X153392Y130872D01*
X153392Y133288D01*
X152468Y135520D01*
X150760Y137228D01*
X148528Y138152D01*
X146112Y138152D01*
X143880Y137228D01*
X142172Y135520D01*
X141248Y133288D01*
X141248Y130872D01*
X142172Y128640D01*
X143880Y126932D01*
X146112Y126008D01*
G37*
G36*
X-30101Y119960D02*
X-27699Y119960D01*
X-25479Y120880D01*
X-23780Y122579D01*
X-23427Y123430D01*
X-23275Y123664D01*
X-23026Y123838D01*
X-22729Y123900D01*
X-22431Y123842D01*
X-21528Y123468D01*
X-19112Y123468D01*
X-16880Y124392D01*
X-15172Y126100D01*
X-14248Y128332D01*
X-14248Y130748D01*
X-15172Y132980D01*
X-16880Y134688D01*
X-19112Y135612D01*
X-21528Y135612D01*
X-23760Y134688D01*
X-25468Y132980D01*
X-25835Y132093D01*
X-25987Y131859D01*
X-26236Y131685D01*
X-26533Y131622D01*
X-26830Y131680D01*
X-27699Y132040D01*
X-30101Y132040D01*
X-32321Y131120D01*
X-34020Y129421D01*
X-34940Y127201D01*
X-34940Y126360D01*
X-34987Y126097D01*
X-35146Y125839D01*
X-35394Y125663D01*
X-35690Y125598D01*
X-35988Y125654D01*
X-36241Y125821D01*
X-38481Y128062D01*
X-41543Y129330D01*
X-42438Y129330D01*
X-42438Y121762D01*
X-34839Y121762D01*
X-34823Y121852D01*
X-34664Y122110D01*
X-34416Y122285D01*
X-34120Y122350D01*
X-33822Y122295D01*
X-33569Y122127D01*
X-32321Y120880D01*
X-30101Y119960D01*
G37*
G36*
X27699Y119960D02*
X30101Y119960D01*
X32321Y120880D01*
X33569Y122127D01*
X33789Y122280D01*
X34084Y122350D01*
X34383Y122299D01*
X34638Y122136D01*
X34810Y121886D01*
X34835Y121762D01*
X42438Y121762D01*
X42438Y129330D01*
X41543Y129330D01*
X38481Y128062D01*
X36241Y125821D01*
X36021Y125668D01*
X35726Y125598D01*
X35427Y125649D01*
X35172Y125813D01*
X35000Y126063D01*
X34940Y126360D01*
X34940Y127201D01*
X34020Y129421D01*
X32321Y131120D01*
X30101Y132040D01*
X27699Y132040D01*
X25479Y131120D01*
X23780Y129421D01*
X22860Y127201D01*
X22860Y124799D01*
X23780Y122579D01*
X25479Y120880D01*
X27699Y119960D01*
G37*
G36*
X43962Y121762D02*
X51530Y121762D01*
X51530Y122657D01*
X50262Y125719D01*
X47919Y128062D01*
X44857Y129330D01*
X43962Y129330D01*
X43962Y121762D01*
G37*
G36*
X-51530Y121762D02*
X-43962Y121762D01*
X-43962Y129330D01*
X-44857Y129330D01*
X-47919Y128062D01*
X-50262Y125719D01*
X-51530Y122657D01*
X-51530Y121762D01*
G37*
G36*
X111822Y112038D02*
X114238Y112038D01*
X116470Y112962D01*
X118178Y114670D01*
X119123Y116952D01*
X119275Y117186D01*
X119524Y117359D01*
X119820Y117422D01*
X120118Y117364D01*
X120712Y117118D01*
X123128Y117118D01*
X125360Y118042D01*
X127068Y119750D01*
X127992Y121982D01*
X127992Y124398D01*
X127068Y126630D01*
X125360Y128338D01*
X123128Y129262D01*
X120712Y129262D01*
X118480Y128338D01*
X116772Y126630D01*
X115828Y124348D01*
X115675Y124114D01*
X115426Y123941D01*
X115130Y123878D01*
X114832Y123936D01*
X114238Y124182D01*
X111822Y124182D01*
X109590Y123258D01*
X107882Y121550D01*
X106958Y119318D01*
X106958Y116902D01*
X107882Y114670D01*
X109590Y112962D01*
X111822Y112038D01*
G37*
G36*
X-42438Y112670D02*
X-41543Y112670D01*
X-38481Y113938D01*
X-36138Y116281D01*
X-34870Y119343D01*
X-34870Y120238D01*
X-42438Y120238D01*
X-42438Y112670D01*
G37*
G36*
X41543Y112670D02*
X42438Y112670D01*
X42438Y120238D01*
X34870Y120238D01*
X34870Y119343D01*
X36138Y116281D01*
X38481Y113938D01*
X41543Y112670D01*
G37*
G36*
X43962Y112670D02*
X44857Y112670D01*
X47919Y113938D01*
X50262Y116281D01*
X51530Y119343D01*
X51530Y120238D01*
X43962Y120238D01*
X43962Y112670D01*
G37*
G36*
X-44857Y112670D02*
X-43962Y112670D01*
X-43962Y120238D01*
X-51530Y120238D01*
X-51530Y119343D01*
X-50262Y116281D01*
X-47919Y113938D01*
X-44857Y112670D01*
G37*
G36*
X-126938Y48538D02*
X-124522Y48538D01*
X-122290Y49462D01*
X-120582Y51170D01*
X-119658Y53402D01*
X-119658Y55818D01*
X-120582Y58050D01*
X-122290Y59758D01*
X-124522Y60682D01*
X-126996Y60682D01*
X-127282Y60738D01*
X-127535Y60905D01*
X-145192Y78562D01*
X-145355Y78804D01*
X-145415Y79101D01*
X-145415Y107302D01*
X-145359Y107588D01*
X-145192Y107841D01*
X-143442Y109590D01*
X-142518Y111822D01*
X-142518Y114238D01*
X-143442Y116470D01*
X-145150Y118178D01*
X-147382Y119102D01*
X-149798Y119102D01*
X-152030Y118178D01*
X-153738Y116470D01*
X-154662Y114238D01*
X-154662Y113514D01*
X-154713Y113239D01*
X-154877Y112984D01*
X-155127Y112812D01*
X-155424Y112752D01*
X-156148Y112752D01*
X-158380Y111828D01*
X-160088Y110120D01*
X-161012Y107888D01*
X-161012Y105472D01*
X-160088Y103240D01*
X-158380Y101532D01*
X-156148Y100608D01*
X-153732Y100608D01*
X-152819Y100986D01*
X-152551Y101044D01*
X-152252Y100993D01*
X-151997Y100830D01*
X-151825Y100580D01*
X-151765Y100282D01*
X-151765Y76155D01*
X-132025Y56415D01*
X-131862Y56173D01*
X-131802Y55876D01*
X-131802Y53402D01*
X-130878Y51170D01*
X-129170Y49462D01*
X-126938Y48538D01*
G37*
G36*
X146112Y106958D02*
X148528Y106958D01*
X150760Y107882D01*
X152468Y109590D01*
X153392Y111822D01*
X153392Y114238D01*
X152468Y116470D01*
X150760Y118178D01*
X148528Y119102D01*
X146112Y119102D01*
X143880Y118178D01*
X142172Y116470D01*
X141248Y114238D01*
X141248Y111822D01*
X142172Y109590D01*
X143880Y107882D01*
X146112Y106958D01*
G37*
G36*
X40702Y95528D02*
X43118Y95528D01*
X45350Y96452D01*
X47058Y98160D01*
X47982Y100392D01*
X47982Y102808D01*
X47058Y105040D01*
X45350Y106748D01*
X43118Y107672D01*
X40702Y107672D01*
X38470Y106748D01*
X36762Y105040D01*
X35838Y102808D01*
X35838Y100392D01*
X36762Y98160D01*
X38470Y96452D01*
X40702Y95528D01*
G37*
G36*
X-22798Y85368D02*
X-20382Y85368D01*
X-18150Y86292D01*
X-16442Y88000D01*
X-15518Y90232D01*
X-15518Y92648D01*
X-16442Y94880D01*
X-18150Y96588D01*
X-20382Y97512D01*
X-22798Y97512D01*
X-25030Y96588D01*
X-26738Y94880D01*
X-27662Y92648D01*
X-27662Y90232D01*
X-26738Y88000D01*
X-25030Y86292D01*
X-22798Y85368D01*
G37*
G36*
X76262Y85368D02*
X78678Y85368D01*
X80910Y86292D01*
X82618Y88000D01*
X83542Y90232D01*
X83542Y92648D01*
X82618Y94880D01*
X80910Y96588D01*
X78678Y97512D01*
X76262Y97512D01*
X74030Y96588D01*
X72322Y94880D01*
X71398Y92648D01*
X71398Y90232D01*
X72322Y88000D01*
X74030Y86292D01*
X76262Y85368D01*
G37*
G36*
X-24668Y-132232D02*
X-22252Y-132232D01*
X-20020Y-131308D01*
X-18312Y-129600D01*
X-17388Y-127368D01*
X-17388Y-125434D01*
X-17337Y-125159D01*
X-17173Y-124904D01*
X-16923Y-124732D01*
X-16626Y-124672D01*
X14315Y-124672D01*
X16175Y-122812D01*
X16175Y-119982D01*
X16224Y-119713D01*
X16385Y-119456D01*
X16634Y-119283D01*
X16931Y-119220D01*
X17229Y-119278D01*
X17842Y-119532D01*
X20258Y-119532D01*
X22490Y-118608D01*
X24198Y-116900D01*
X25122Y-114668D01*
X25122Y-112252D01*
X24198Y-110020D01*
X22490Y-108312D01*
X20258Y-107388D01*
X17842Y-107388D01*
X17229Y-107642D01*
X16961Y-107700D01*
X16662Y-107649D01*
X16407Y-107486D01*
X16235Y-107235D01*
X16175Y-106938D01*
X16175Y-104185D01*
X-9602Y-78408D01*
X-9765Y-78166D01*
X-9825Y-77869D01*
X-9825Y-49453D01*
X-9776Y-49184D01*
X-9615Y-48928D01*
X-9366Y-48754D01*
X-9069Y-48691D01*
X-8771Y-48749D01*
X-7558Y-49252D01*
X-5142Y-49252D01*
X-2910Y-48328D01*
X-1202Y-46620D01*
X-278Y-44388D01*
X-278Y-41972D01*
X-1202Y-39740D01*
X-2910Y-38032D01*
X-5142Y-37108D01*
X-7558Y-37108D01*
X-8771Y-37611D01*
X-9039Y-37668D01*
X-9338Y-37617D01*
X-9593Y-37454D01*
X-9765Y-37204D01*
X-9825Y-36907D01*
X-9825Y-34131D01*
X-9769Y-33845D01*
X-9602Y-33592D01*
X179Y-23811D01*
X226Y-23559D01*
X390Y-23304D01*
X640Y-23132D01*
X937Y-23072D01*
X3108Y-23072D01*
X4208Y-22616D01*
X4494Y-22558D01*
X4792Y-22616D01*
X5892Y-23072D01*
X7766Y-23072D01*
X8052Y-23128D01*
X8305Y-23295D01*
X10652Y-25642D01*
X10815Y-25884D01*
X10875Y-26181D01*
X10875Y-50383D01*
X10822Y-50663D01*
X10656Y-50918D01*
X10520Y-51009D01*
X8690Y-52839D01*
X7728Y-55162D01*
X7728Y-57678D01*
X8690Y-60001D01*
X10469Y-61780D01*
X12792Y-62742D01*
X15308Y-62742D01*
X17631Y-61780D01*
X19410Y-60001D01*
X20372Y-57678D01*
X20372Y-55162D01*
X19410Y-52839D01*
X17586Y-51015D01*
X17457Y-50930D01*
X17285Y-50680D01*
X17225Y-50383D01*
X17225Y-23235D01*
X12795Y-18805D01*
X12632Y-18563D01*
X12572Y-18266D01*
X12572Y-16392D01*
X11724Y-14344D01*
X10156Y-12776D01*
X8108Y-11928D01*
X5937Y-11928D01*
X5662Y-11877D01*
X5407Y-11713D01*
X5235Y-11463D01*
X5175Y-11166D01*
X5175Y1063D01*
X5226Y1338D01*
X5390Y1593D01*
X5640Y1765D01*
X5937Y1825D01*
X85619Y1825D01*
X85905Y1769D01*
X86158Y1602D01*
X146352Y-58592D01*
X146515Y-58834D01*
X146575Y-59131D01*
X146575Y-65463D01*
X146522Y-65743D01*
X146356Y-65998D01*
X146220Y-66089D01*
X145978Y-66331D01*
X145742Y-66491D01*
X145446Y-66554D01*
X145148Y-66496D01*
X144718Y-66318D01*
X142302Y-66318D01*
X140070Y-67242D01*
X138362Y-68950D01*
X137438Y-71182D01*
X137438Y-73598D01*
X138362Y-75830D01*
X140070Y-77538D01*
X142302Y-78462D01*
X144718Y-78462D01*
X147086Y-77481D01*
X147372Y-77423D01*
X147669Y-77481D01*
X148492Y-77822D01*
X151008Y-77822D01*
X153331Y-76860D01*
X155110Y-75081D01*
X156072Y-72758D01*
X156072Y-70242D01*
X155110Y-67919D01*
X153286Y-66095D01*
X153157Y-66010D01*
X152985Y-65760D01*
X152925Y-65463D01*
X152925Y-56185D01*
X88565Y8175D01*
X61718Y8175D01*
X61449Y8224D01*
X61193Y8385D01*
X61019Y8634D01*
X60956Y8931D01*
X61014Y9229D01*
X61952Y11492D01*
X61952Y13908D01*
X61028Y16140D01*
X59320Y17848D01*
X57088Y18772D01*
X54672Y18772D01*
X52440Y17848D01*
X50732Y16140D01*
X49808Y13908D01*
X49808Y11492D01*
X50746Y9229D01*
X50803Y8961D01*
X50752Y8662D01*
X50589Y8407D01*
X50339Y8235D01*
X50042Y8175D01*
X-1869Y8175D01*
X-2155Y8231D01*
X-2408Y8398D01*
X-20944Y26934D01*
X-21086Y27131D01*
X-21108Y27213D01*
X-22048Y28040D01*
X-22083Y28073D01*
X-22957Y28948D01*
X-22994Y28953D01*
X-23067Y28996D01*
X-24316Y28916D01*
X-24365Y28915D01*
X-25601Y28915D01*
X-25632Y28893D01*
X-25924Y28814D01*
X-38838Y27991D01*
X-39161Y28041D01*
X-39416Y28204D01*
X-39588Y28454D01*
X-39648Y28752D01*
X-39648Y29148D01*
X-40455Y31095D01*
X-40512Y31356D01*
X-40464Y31656D01*
X-40302Y31912D01*
X-40053Y32086D01*
X-39757Y32149D01*
X-39459Y32091D01*
X-39308Y32028D01*
X-36892Y32028D01*
X-34660Y32952D01*
X-32952Y34660D01*
X-32133Y36638D01*
X-31977Y36876D01*
X-31727Y37048D01*
X-31429Y37108D01*
X-29272Y37108D01*
X-27040Y38032D01*
X-25939Y39134D01*
X-25708Y39292D01*
X-25412Y39357D01*
X-25114Y39302D01*
X-24861Y39134D01*
X-23760Y38032D01*
X-21528Y37108D01*
X-19112Y37108D01*
X-16880Y38032D01*
X-15172Y39740D01*
X-14248Y41972D01*
X-14248Y44388D01*
X-15172Y46620D01*
X-16880Y48328D01*
X-19112Y49252D01*
X-21528Y49252D01*
X-23760Y48328D01*
X-24861Y47226D01*
X-25092Y47068D01*
X-25388Y47003D01*
X-25686Y47058D01*
X-25939Y47226D01*
X-27040Y48328D01*
X-29272Y49252D01*
X-31688Y49252D01*
X-33920Y48328D01*
X-35628Y46620D01*
X-36447Y44642D01*
X-36603Y44404D01*
X-36853Y44232D01*
X-37151Y44172D01*
X-39308Y44172D01*
X-41540Y43248D01*
X-43248Y41540D01*
X-44172Y39308D01*
X-44172Y36892D01*
X-43365Y34945D01*
X-43308Y34684D01*
X-43357Y34384D01*
X-43518Y34128D01*
X-43767Y33954D01*
X-44063Y33891D01*
X-44361Y33949D01*
X-44512Y34012D01*
X-46928Y34012D01*
X-49160Y33088D01*
X-50868Y31380D01*
X-51792Y29148D01*
X-51792Y27881D01*
X-51827Y27652D01*
X-51974Y27387D01*
X-52213Y27200D01*
X-52506Y27121D01*
X-68515Y26101D01*
X-68838Y26151D01*
X-69093Y26314D01*
X-69265Y26564D01*
X-69325Y26861D01*
X-69325Y38869D01*
X-69269Y39155D01*
X-69102Y39408D01*
X-50908Y57602D01*
X-50666Y57765D01*
X-50369Y57825D01*
X-34774Y57825D01*
X-34499Y57774D01*
X-34244Y57610D01*
X-34072Y57360D01*
X-34071Y57352D01*
X-34070Y57352D01*
X-33088Y54980D01*
X-31380Y53272D01*
X-29148Y52348D01*
X-26732Y52348D01*
X-24500Y53272D01*
X-22792Y54980D01*
X-22111Y56627D01*
X-21958Y56861D01*
X-21709Y57034D01*
X-21413Y57097D01*
X-21115Y57039D01*
X-18988Y56158D01*
X-16572Y56158D01*
X-14340Y57082D01*
X-13821Y57602D01*
X-13579Y57765D01*
X-13282Y57825D01*
X2063Y57825D01*
X2338Y57774D01*
X2593Y57610D01*
X2765Y57360D01*
X2825Y57063D01*
X2825Y54277D01*
X2776Y54008D01*
X2615Y53751D01*
X2366Y53577D01*
X2069Y53515D01*
X1771Y53573D01*
X-62Y54332D01*
X-2478Y54332D01*
X-4710Y53408D01*
X-6418Y51700D01*
X-7342Y49468D01*
X-7342Y47052D01*
X-6418Y44820D01*
X-4710Y43112D01*
X-2478Y42188D01*
X-62Y42188D01*
X1771Y42948D01*
X2039Y43005D01*
X2338Y42954D01*
X2593Y42791D01*
X2765Y42541D01*
X2825Y42244D01*
X2825Y41521D01*
X2769Y41235D01*
X2602Y40982D01*
X2276Y40656D01*
X1428Y38608D01*
X1428Y36392D01*
X2276Y34344D01*
X3844Y32776D01*
X5892Y31928D01*
X8108Y31928D01*
X10156Y32776D01*
X11724Y34344D01*
X12572Y36392D01*
X12572Y38608D01*
X11724Y40656D01*
X10156Y42224D01*
X9645Y42435D01*
X9407Y42592D01*
X9235Y42842D01*
X9175Y43139D01*
X9175Y62315D01*
X7130Y64360D01*
X6969Y64596D01*
X6907Y64893D01*
X6965Y65191D01*
X7342Y66102D01*
X7342Y68518D01*
X6418Y70750D01*
X4710Y72458D01*
X2478Y73382D01*
X62Y73382D01*
X-2170Y72458D01*
X-3878Y70750D01*
X-4802Y68518D01*
X-4802Y66102D01*
X-4440Y65229D01*
X-4383Y64961D01*
X-4433Y64662D01*
X-4597Y64407D01*
X-4847Y64235D01*
X-5144Y64175D01*
X-11504Y64175D01*
X-11785Y64228D01*
X-12039Y64394D01*
X-12208Y64645D01*
X-12632Y65670D01*
X-14340Y67378D01*
X-16572Y68302D01*
X-18988Y68302D01*
X-21220Y67378D01*
X-22928Y65670D01*
X-23352Y64645D01*
X-23508Y64407D01*
X-23759Y64235D01*
X-24056Y64175D01*
X-25815Y64175D01*
X-26107Y64233D01*
X-26732Y64492D01*
X-29148Y64492D01*
X-29773Y64233D01*
X-30065Y64175D01*
X-53315Y64175D01*
X-75675Y41815D01*
X-75675Y26360D01*
X-75710Y26131D01*
X-75857Y25866D01*
X-76096Y25678D01*
X-76389Y25599D01*
X-101504Y24000D01*
X-101552Y23998D01*
X-102789Y23998D01*
X-102819Y23976D01*
X-102901Y23954D01*
X-103727Y23015D01*
X-103760Y22980D01*
X-103842Y22898D01*
X-104084Y22735D01*
X-104381Y22675D01*
X-108065Y22675D01*
X-112593Y18147D01*
X-112829Y17986D01*
X-113126Y17924D01*
X-113424Y17982D01*
X-113642Y18072D01*
X-115858Y18072D01*
X-117906Y17224D01*
X-119474Y15656D01*
X-120322Y13608D01*
X-120322Y11392D01*
X-119474Y9344D01*
X-118169Y8039D01*
X-118011Y7808D01*
X-117946Y7512D01*
X-118001Y7214D01*
X-118169Y6961D01*
X-119474Y5656D01*
X-120322Y3608D01*
X-120322Y1392D01*
X-119474Y-656D01*
X-118169Y-1961D01*
X-118011Y-2192D01*
X-117946Y-2488D01*
X-118001Y-2786D01*
X-118169Y-3039D01*
X-119474Y-4344D01*
X-120322Y-6392D01*
X-120322Y-8608D01*
X-119474Y-10656D01*
X-117906Y-12224D01*
X-115858Y-13072D01*
X-113642Y-13072D01*
X-111594Y-12224D01*
X-110026Y-10656D01*
X-109178Y-8608D01*
X-109178Y-8437D01*
X-109127Y-8162D01*
X-108963Y-7907D01*
X-108713Y-7735D01*
X-108416Y-7675D01*
X-96177Y-7675D01*
X-95896Y-7728D01*
X-95642Y-7894D01*
X-95473Y-8145D01*
X-95318Y-8520D01*
X-93610Y-10228D01*
X-91378Y-11152D01*
X-88962Y-11152D01*
X-86730Y-10228D01*
X-85022Y-8520D01*
X-84867Y-8145D01*
X-84711Y-7907D01*
X-84461Y-7735D01*
X-84163Y-7675D01*
X-71185Y-7675D01*
X-69325Y-5815D01*
X-69325Y10063D01*
X-69274Y10338D01*
X-69110Y10593D01*
X-68860Y10765D01*
X-68563Y10825D01*
X-66718Y10825D01*
X-66432Y10769D01*
X-66179Y10602D01*
X-64400Y8822D01*
X-62168Y7898D01*
X-59752Y7898D01*
X-57520Y8822D01*
X-55741Y10602D01*
X-55499Y10765D01*
X-55202Y10825D01*
X-49565Y10825D01*
X-49296Y10776D01*
X-49039Y10615D01*
X-48866Y10366D01*
X-48803Y10069D01*
X-48861Y9771D01*
X-49252Y8828D01*
X-49252Y6412D01*
X-49189Y6261D01*
X-49132Y6000D01*
X-49180Y5700D01*
X-49342Y5444D01*
X-49591Y5270D01*
X-49887Y5207D01*
X-50185Y5265D01*
X-52132Y6072D01*
X-54548Y6072D01*
X-56780Y5148D01*
X-58488Y3440D01*
X-59412Y1208D01*
X-59412Y-1208D01*
X-58488Y-3440D01*
X-56780Y-5148D01*
X-54548Y-6072D01*
X-52132Y-6072D01*
X-49900Y-5148D01*
X-48192Y-3440D01*
X-47268Y-1208D01*
X-47268Y1208D01*
X-47331Y1359D01*
X-47388Y1620D01*
X-47340Y1920D01*
X-47178Y2176D01*
X-46929Y2350D01*
X-46633Y2413D01*
X-46335Y2355D01*
X-44388Y1548D01*
X-43169Y1548D01*
X-42905Y1501D01*
X-42647Y1342D01*
X-42472Y1094D01*
X-42407Y798D01*
X-42462Y500D01*
X-42630Y247D01*
X-43248Y-370D01*
X-44172Y-2602D01*
X-44172Y-5018D01*
X-43248Y-7250D01*
X-42630Y-7867D01*
X-42477Y-8087D01*
X-42407Y-8382D01*
X-42458Y-8681D01*
X-42621Y-8936D01*
X-42872Y-9108D01*
X-43069Y-9148D01*
X-45350Y-10092D01*
X-47058Y-11800D01*
X-47982Y-14032D01*
X-47982Y-16448D01*
X-47058Y-18680D01*
X-45350Y-20388D01*
X-43703Y-21069D01*
X-43469Y-21222D01*
X-43296Y-21471D01*
X-43233Y-21767D01*
X-43291Y-22065D01*
X-44172Y-24192D01*
X-44172Y-26475D01*
X-44221Y-26744D01*
X-44382Y-27000D01*
X-44631Y-27174D01*
X-44928Y-27237D01*
X-45226Y-27179D01*
X-45782Y-26948D01*
X-48198Y-26948D01*
X-50430Y-27872D01*
X-52138Y-29580D01*
X-53062Y-31812D01*
X-53062Y-34228D01*
X-52138Y-36460D01*
X-50430Y-38168D01*
X-48198Y-39092D01*
X-45782Y-39092D01*
X-43550Y-38168D01*
X-41842Y-36460D01*
X-40918Y-34228D01*
X-40918Y-31945D01*
X-40869Y-31676D01*
X-40708Y-31420D01*
X-40459Y-31246D01*
X-40162Y-31183D01*
X-39864Y-31241D01*
X-39308Y-31472D01*
X-36892Y-31472D01*
X-34660Y-30548D01*
X-32952Y-28840D01*
X-32028Y-26608D01*
X-32028Y-24192D01*
X-32952Y-21960D01*
X-34660Y-20252D01*
X-36307Y-19571D01*
X-36541Y-19418D01*
X-36714Y-19169D01*
X-36777Y-18873D01*
X-36719Y-18575D01*
X-35838Y-16448D01*
X-35838Y-14032D01*
X-36762Y-11800D01*
X-37380Y-11183D01*
X-37533Y-10963D01*
X-37603Y-10668D01*
X-37552Y-10369D01*
X-37389Y-10114D01*
X-37138Y-9942D01*
X-36941Y-9902D01*
X-34660Y-8958D01*
X-32952Y-7250D01*
X-32028Y-5018D01*
X-32028Y-2602D01*
X-32952Y-370D01*
X-34413Y1090D01*
X-34563Y1304D01*
X-34597Y1441D01*
X-34700Y1419D01*
X-34998Y1477D01*
X-36892Y2262D01*
X-38111Y2262D01*
X-38375Y2309D01*
X-38633Y2468D01*
X-38808Y2716D01*
X-38873Y3012D01*
X-38818Y3310D01*
X-38650Y3563D01*
X-38032Y4180D01*
X-37534Y5384D01*
X-37390Y5609D01*
X-37144Y5786D01*
X-36848Y5854D01*
X-36550Y5801D01*
X-36296Y5635D01*
X-36126Y5384D01*
X-35628Y4180D01*
X-34167Y2720D01*
X-34017Y2506D01*
X-33983Y2369D01*
X-33880Y2391D01*
X-33582Y2333D01*
X-31688Y1548D01*
X-29937Y1548D01*
X-29662Y1497D01*
X-29407Y1333D01*
X-29235Y1083D01*
X-29175Y786D01*
X-29175Y-13941D01*
X-29233Y-14233D01*
X-30202Y-16572D01*
X-30202Y-18988D01*
X-29233Y-21327D01*
X-29175Y-21619D01*
X-29175Y-89206D01*
X-29228Y-89487D01*
X-29394Y-89741D01*
X-29645Y-89910D01*
X-30110Y-90102D01*
X-31818Y-91810D01*
X-32742Y-94042D01*
X-32742Y-94766D01*
X-32793Y-95041D01*
X-32957Y-95296D01*
X-33207Y-95468D01*
X-33504Y-95528D01*
X-34228Y-95528D01*
X-36460Y-96452D01*
X-38168Y-98160D01*
X-39092Y-100392D01*
X-39092Y-102808D01*
X-38168Y-105040D01*
X-36460Y-106748D01*
X-34228Y-107672D01*
X-31812Y-107672D01*
X-30229Y-107016D01*
X-29961Y-106958D01*
X-29662Y-107009D01*
X-29407Y-107173D01*
X-29235Y-107423D01*
X-29175Y-107720D01*
X-29175Y-113725D01*
X-27315Y-115585D01*
X-5685Y-115585D01*
X-3415Y-113315D01*
X-3201Y-113165D01*
X-2907Y-113093D01*
X-2607Y-113141D01*
X-2351Y-113303D01*
X-2177Y-113551D01*
X-2114Y-113848D01*
X-2172Y-114146D01*
X-2262Y-114362D01*
X-2262Y-116778D01*
X-2059Y-117268D01*
X-2001Y-117536D01*
X-2052Y-117835D01*
X-2215Y-118090D01*
X-2466Y-118262D01*
X-2763Y-118322D01*
X-35691Y-118322D01*
X-35977Y-118266D01*
X-36230Y-118099D01*
X-48878Y-105451D01*
X-49034Y-105226D01*
X-49101Y-104930D01*
X-49048Y-104632D01*
X-48883Y-104377D01*
X-48631Y-104208D01*
X-48630Y-104208D01*
X-46922Y-102500D01*
X-45998Y-100268D01*
X-45998Y-97852D01*
X-46922Y-95620D01*
X-48630Y-93912D01*
X-50862Y-92988D01*
X-53278Y-92988D01*
X-55510Y-93912D01*
X-56127Y-94530D01*
X-56347Y-94683D01*
X-56642Y-94753D01*
X-56941Y-94702D01*
X-57196Y-94539D01*
X-57368Y-94288D01*
X-57428Y-93991D01*
X-57428Y-92772D01*
X-58352Y-90540D01*
X-60060Y-88832D01*
X-62292Y-87908D01*
X-64708Y-87908D01*
X-66940Y-88832D01*
X-68648Y-90540D01*
X-69572Y-92772D01*
X-69572Y-95188D01*
X-68648Y-97420D01*
X-66940Y-99128D01*
X-65736Y-99626D01*
X-65511Y-99770D01*
X-65334Y-100016D01*
X-65266Y-100312D01*
X-65319Y-100610D01*
X-65485Y-100865D01*
X-65736Y-101034D01*
X-66940Y-101532D01*
X-68648Y-103240D01*
X-69572Y-105472D01*
X-69572Y-107888D01*
X-68648Y-110120D01*
X-66940Y-111828D01*
X-64708Y-112752D01*
X-62292Y-112752D01*
X-60060Y-111828D01*
X-58352Y-110120D01*
X-57428Y-107888D01*
X-57428Y-107721D01*
X-57381Y-107458D01*
X-57222Y-107200D01*
X-56974Y-107024D01*
X-56678Y-106959D01*
X-56380Y-107015D01*
X-56127Y-107182D01*
X-38637Y-124672D01*
X-30294Y-124672D01*
X-30019Y-124723D01*
X-29764Y-124887D01*
X-29592Y-125137D01*
X-29532Y-125434D01*
X-29532Y-127368D01*
X-28608Y-129600D01*
X-26900Y-131308D01*
X-24668Y-132232D01*
G37*
G36*
X163274Y53695D02*
X166406Y53695D01*
X169301Y54894D01*
X171516Y57109D01*
X172715Y60004D01*
X172715Y63136D01*
X171516Y66031D01*
X169301Y68246D01*
X166406Y69445D01*
X163274Y69445D01*
X160379Y68246D01*
X158164Y66031D01*
X156965Y63136D01*
X156965Y60004D01*
X158164Y57109D01*
X160379Y54894D01*
X163274Y53695D01*
G37*
G36*
X183594Y53695D02*
X186726Y53695D01*
X189621Y54894D01*
X191836Y57109D01*
X193035Y60004D01*
X193035Y63136D01*
X191836Y66031D01*
X189621Y68246D01*
X186726Y69445D01*
X183594Y69445D01*
X180699Y68246D01*
X178484Y66031D01*
X177285Y63136D01*
X177285Y60004D01*
X178484Y57109D01*
X180699Y54894D01*
X183594Y53695D01*
G37*
G36*
X197457Y27725D02*
X203343Y27725D01*
X208781Y29977D01*
X212943Y34139D01*
X215195Y39577D01*
X215195Y45463D01*
X212943Y50901D01*
X208781Y55063D01*
X203343Y57315D01*
X197457Y57315D01*
X192019Y55063D01*
X187857Y50901D01*
X185605Y45463D01*
X185605Y39577D01*
X187857Y34139D01*
X192019Y29977D01*
X197457Y27725D01*
G37*
G36*
X146657Y27725D02*
X152543Y27725D01*
X157981Y29977D01*
X162143Y34139D01*
X164395Y39577D01*
X164395Y45463D01*
X162143Y50901D01*
X157981Y55063D01*
X152543Y57315D01*
X146657Y57315D01*
X141219Y55063D01*
X137057Y50901D01*
X134805Y45463D01*
X134805Y39577D01*
X137057Y34139D01*
X141219Y29977D01*
X146657Y27725D01*
G37*
G36*
X22922Y43458D02*
X25338Y43458D01*
X27570Y44382D01*
X29278Y46090D01*
X30202Y48322D01*
X30202Y50738D01*
X29278Y52970D01*
X27570Y54678D01*
X25338Y55602D01*
X22922Y55602D01*
X20690Y54678D01*
X18982Y52970D01*
X18058Y50738D01*
X18058Y48322D01*
X18982Y46090D01*
X20690Y44382D01*
X22922Y43458D01*
G37*
G36*
X47052Y33298D02*
X49468Y33298D01*
X51700Y34222D01*
X53408Y35930D01*
X54332Y38162D01*
X54332Y40578D01*
X53408Y42810D01*
X51700Y44518D01*
X49468Y45442D01*
X47052Y45442D01*
X44820Y44518D01*
X43112Y42810D01*
X42188Y40578D01*
X42188Y38162D01*
X43112Y35930D01*
X44820Y34222D01*
X47052Y33298D01*
G37*
G36*
X38162Y16788D02*
X40578Y16788D01*
X42810Y17712D01*
X44518Y19421D01*
X44564Y19534D01*
X44717Y19768D01*
X44966Y19941D01*
X45262Y20004D01*
X45560Y19946D01*
X47052Y19328D01*
X49468Y19328D01*
X51700Y20252D01*
X53408Y21960D01*
X54332Y24192D01*
X54332Y26608D01*
X53408Y28840D01*
X51700Y30548D01*
X49468Y31472D01*
X47052Y31472D01*
X44820Y30548D01*
X43112Y28840D01*
X43066Y28726D01*
X42913Y28492D01*
X42664Y28319D01*
X42368Y28256D01*
X42070Y28314D01*
X40578Y28932D01*
X38162Y28932D01*
X35930Y28008D01*
X34222Y26300D01*
X33298Y24068D01*
X33298Y21652D01*
X34222Y19420D01*
X35930Y17712D01*
X38162Y16788D01*
G37*
G36*
X146657Y-4025D02*
X152543Y-4025D01*
X157981Y-1773D01*
X162143Y2389D01*
X164395Y7827D01*
X164395Y13713D01*
X162143Y19151D01*
X157981Y23313D01*
X152543Y25565D01*
X146657Y25565D01*
X141219Y23313D01*
X137057Y19151D01*
X134805Y13713D01*
X134805Y7827D01*
X137057Y2389D01*
X141219Y-1773D01*
X146657Y-4025D01*
G37*
G36*
X197457Y-4025D02*
X203343Y-4025D01*
X208781Y-1773D01*
X212943Y2389D01*
X215195Y7827D01*
X215195Y13713D01*
X212943Y19151D01*
X208781Y23313D01*
X203343Y25565D01*
X197457Y25565D01*
X192019Y23313D01*
X187857Y19151D01*
X185605Y13713D01*
X185605Y7827D01*
X187857Y2389D01*
X192019Y-1773D01*
X197457Y-4025D01*
G37*
G36*
X78802Y11708D02*
X81218Y11708D01*
X83450Y12632D01*
X85158Y14340D01*
X86082Y16572D01*
X86082Y18988D01*
X85158Y21220D01*
X83450Y22928D01*
X81218Y23852D01*
X78802Y23852D01*
X76570Y22928D01*
X74862Y21220D01*
X73938Y18988D01*
X73938Y16572D01*
X74862Y14340D01*
X76570Y12632D01*
X78802Y11708D01*
G37*
G36*
X173434Y2895D02*
X176566Y2895D01*
X179461Y4094D01*
X181676Y6309D01*
X182875Y9204D01*
X182875Y12336D01*
X181676Y15231D01*
X179461Y17446D01*
X176566Y18645D01*
X173434Y18645D01*
X170539Y17446D01*
X168324Y15231D01*
X167125Y12336D01*
X167125Y9204D01*
X168324Y6309D01*
X170539Y4094D01*
X173434Y2895D01*
G37*
G36*
X124522Y-11152D02*
X126938Y-11152D01*
X129170Y-10228D01*
X130878Y-8520D01*
X131802Y-6288D01*
X131802Y-3872D01*
X130878Y-1640D01*
X129170Y68D01*
X126938Y992D01*
X124522Y992D01*
X122290Y68D01*
X120582Y-1640D01*
X119658Y-3872D01*
X119658Y-6288D01*
X120582Y-8520D01*
X122290Y-10228D01*
X124522Y-11152D01*
G37*
G36*
X61022Y-13692D02*
X63438Y-13692D01*
X65670Y-12768D01*
X67378Y-11060D01*
X68302Y-8828D01*
X68302Y-6412D01*
X67378Y-4180D01*
X65670Y-2472D01*
X63438Y-1548D01*
X61022Y-1548D01*
X58790Y-2472D01*
X57082Y-4180D01*
X56158Y-6412D01*
X56158Y-8828D01*
X57082Y-11060D01*
X58790Y-12768D01*
X61022Y-13692D01*
G37*
G36*
X-63438Y-32742D02*
X-61022Y-32742D01*
X-58790Y-31818D01*
X-57082Y-30110D01*
X-56158Y-27878D01*
X-56158Y-25462D01*
X-56915Y-23636D01*
X-56972Y-23368D01*
X-56921Y-23069D01*
X-56758Y-22814D01*
X-56508Y-22642D01*
X-56211Y-22582D01*
X-55942Y-22582D01*
X-53710Y-21658D01*
X-52002Y-19950D01*
X-51078Y-17718D01*
X-51078Y-15302D01*
X-52002Y-13070D01*
X-53710Y-11362D01*
X-55942Y-10438D01*
X-58358Y-10438D01*
X-60590Y-11362D01*
X-62298Y-13070D01*
X-63222Y-15302D01*
X-63222Y-17718D01*
X-62465Y-19544D01*
X-62408Y-19812D01*
X-62459Y-20111D01*
X-62622Y-20366D01*
X-62872Y-20538D01*
X-63169Y-20598D01*
X-63438Y-20598D01*
X-65670Y-21522D01*
X-67378Y-23230D01*
X-68302Y-25462D01*
X-68302Y-27878D01*
X-67378Y-30110D01*
X-65670Y-31818D01*
X-63438Y-32742D01*
G37*
G36*
X-107888Y-50522D02*
X-105472Y-50522D01*
X-103240Y-49598D01*
X-101532Y-47890D01*
X-100608Y-45658D01*
X-100608Y-43501D01*
X-100555Y-43220D01*
X-100389Y-42966D01*
X-100138Y-42797D01*
X-98160Y-41978D01*
X-96452Y-40270D01*
X-95528Y-38038D01*
X-95528Y-35622D01*
X-96105Y-34229D01*
X-96163Y-33961D01*
X-96112Y-33662D01*
X-95949Y-33407D01*
X-95698Y-33235D01*
X-95401Y-33175D01*
X-89139Y-33175D01*
X-88859Y-33228D01*
X-88605Y-33394D01*
X-88435Y-33645D01*
X-88224Y-34156D01*
X-86656Y-35724D01*
X-84608Y-36572D01*
X-82754Y-36572D01*
X-82485Y-36621D01*
X-82228Y-36782D01*
X-82055Y-37031D01*
X-81992Y-37328D01*
X-82050Y-37626D01*
X-82272Y-38162D01*
X-82272Y-40578D01*
X-81348Y-42810D01*
X-79640Y-44518D01*
X-77408Y-45442D01*
X-74992Y-45442D01*
X-73500Y-44824D01*
X-73227Y-44766D01*
X-72928Y-44819D01*
X-72674Y-44985D01*
X-72504Y-45236D01*
X-72458Y-45350D01*
X-70750Y-47058D01*
X-68518Y-47982D01*
X-66102Y-47982D01*
X-63870Y-47058D01*
X-62162Y-45350D01*
X-61238Y-43118D01*
X-61238Y-40702D01*
X-62162Y-38470D01*
X-63870Y-36762D01*
X-66102Y-35838D01*
X-68518Y-35838D01*
X-70010Y-36456D01*
X-70283Y-36514D01*
X-70582Y-36461D01*
X-70836Y-36295D01*
X-71006Y-36044D01*
X-71052Y-35931D01*
X-72760Y-34222D01*
X-74992Y-33298D01*
X-77280Y-33298D01*
X-77549Y-33249D01*
X-77806Y-33088D01*
X-77980Y-32839D01*
X-78042Y-32542D01*
X-77984Y-32244D01*
X-77928Y-32108D01*
X-77928Y-29892D01*
X-78776Y-27844D01*
X-80344Y-26276D01*
X-82392Y-25428D01*
X-84608Y-25428D01*
X-86656Y-26276D01*
X-86982Y-26602D01*
X-87223Y-26765D01*
X-87521Y-26825D01*
X-106315Y-26825D01*
X-108592Y-29102D01*
X-108834Y-29265D01*
X-109131Y-29325D01*
X-109729Y-29325D01*
X-110015Y-29269D01*
X-110268Y-29102D01*
X-111594Y-27776D01*
X-113642Y-26928D01*
X-115858Y-26928D01*
X-117906Y-27776D01*
X-119474Y-29344D01*
X-120322Y-31392D01*
X-120322Y-33608D01*
X-119474Y-35656D01*
X-117906Y-37224D01*
X-115858Y-38072D01*
X-113642Y-38072D01*
X-111594Y-37224D01*
X-110268Y-35898D01*
X-110027Y-35735D01*
X-109729Y-35675D01*
X-108434Y-35675D01*
X-108159Y-35726D01*
X-107904Y-35890D01*
X-107732Y-36140D01*
X-107672Y-36437D01*
X-107672Y-37779D01*
X-107725Y-38060D01*
X-107891Y-38314D01*
X-108142Y-38483D01*
X-110120Y-39302D01*
X-111828Y-41010D01*
X-112752Y-43242D01*
X-112752Y-45658D01*
X-111828Y-47890D01*
X-110120Y-49598D01*
X-107888Y-50522D01*
G37*
G36*
X204532Y-37822D02*
X206948Y-37822D01*
X209180Y-36898D01*
X210888Y-35190D01*
X211812Y-32958D01*
X211812Y-30542D01*
X210888Y-28310D01*
X209180Y-26602D01*
X206948Y-25678D01*
X204532Y-25678D01*
X202300Y-26602D01*
X200592Y-28310D01*
X199668Y-30542D01*
X199668Y-32958D01*
X200592Y-35190D01*
X202300Y-36898D01*
X204532Y-37822D01*
G37*
G36*
X99122Y-51792D02*
X101538Y-51792D01*
X103770Y-50868D01*
X105478Y-49160D01*
X106402Y-46928D01*
X106402Y-44512D01*
X105478Y-42280D01*
X103770Y-40572D01*
X101538Y-39648D01*
X99122Y-39648D01*
X96890Y-40572D01*
X95182Y-42280D01*
X94258Y-44512D01*
X94258Y-46928D01*
X95182Y-49160D01*
X96890Y-50868D01*
X99122Y-51792D01*
G37*
G36*
X-55818Y-55602D02*
X-53402Y-55602D01*
X-51170Y-54678D01*
X-49462Y-52970D01*
X-48538Y-50738D01*
X-48538Y-48322D01*
X-49462Y-46090D01*
X-51170Y-44382D01*
X-53402Y-43458D01*
X-55818Y-43458D01*
X-58050Y-44382D01*
X-59758Y-46090D01*
X-60682Y-48322D01*
X-60682Y-50738D01*
X-59758Y-52970D01*
X-58050Y-54678D01*
X-55818Y-55602D01*
G37*
G36*
X185482Y-56872D02*
X187898Y-56872D01*
X190130Y-55948D01*
X191838Y-54240D01*
X192762Y-52008D01*
X192762Y-49592D01*
X191838Y-47360D01*
X190130Y-45652D01*
X187898Y-44728D01*
X185482Y-44728D01*
X183250Y-45652D01*
X181542Y-47360D01*
X180618Y-49592D01*
X180618Y-52008D01*
X181542Y-54240D01*
X183250Y-55948D01*
X185482Y-56872D01*
G37*
G36*
X183892Y-110572D02*
X186108Y-110572D01*
X188156Y-109724D01*
X189482Y-108398D01*
X189723Y-108235D01*
X190021Y-108175D01*
X192315Y-108175D01*
X205275Y-95215D01*
X205275Y-70688D01*
X205331Y-70402D01*
X205498Y-70149D01*
X207248Y-68400D01*
X208172Y-66168D01*
X208172Y-63752D01*
X207248Y-61520D01*
X205540Y-59812D01*
X203308Y-58888D01*
X200892Y-58888D01*
X198660Y-59812D01*
X196952Y-61520D01*
X196028Y-63752D01*
X196028Y-66168D01*
X196952Y-68400D01*
X198702Y-70149D01*
X198865Y-70391D01*
X198925Y-70688D01*
X198925Y-85686D01*
X198876Y-85955D01*
X198715Y-86212D01*
X198466Y-86385D01*
X198169Y-86448D01*
X197871Y-86390D01*
X196708Y-85908D01*
X194292Y-85908D01*
X192060Y-86832D01*
X190352Y-88540D01*
X189428Y-90772D01*
X189428Y-93188D01*
X190352Y-95420D01*
X192060Y-97128D01*
X192649Y-97371D01*
X192878Y-97520D01*
X193054Y-97767D01*
X193119Y-98063D01*
X193063Y-98361D01*
X192896Y-98614D01*
X190234Y-101276D01*
X190003Y-101434D01*
X189707Y-101499D01*
X189409Y-101444D01*
X189156Y-101276D01*
X188156Y-100276D01*
X186108Y-99428D01*
X183892Y-99428D01*
X181844Y-100276D01*
X180276Y-101844D01*
X179428Y-103892D01*
X179428Y-106108D01*
X180276Y-108156D01*
X181844Y-109724D01*
X183892Y-110572D01*
G37*
G36*
X127062Y-81002D02*
X129478Y-81002D01*
X131710Y-80078D01*
X133418Y-78370D01*
X134342Y-76138D01*
X134342Y-73722D01*
X133418Y-71490D01*
X131710Y-69782D01*
X129478Y-68858D01*
X127062Y-68858D01*
X124830Y-69782D01*
X123122Y-71490D01*
X122198Y-73722D01*
X122198Y-76138D01*
X123122Y-78370D01*
X124830Y-80078D01*
X127062Y-81002D01*
G37*
G36*
X137222Y-93702D02*
X139638Y-93702D01*
X141870Y-92778D01*
X143578Y-91070D01*
X144502Y-88838D01*
X144502Y-86422D01*
X143578Y-84190D01*
X141870Y-82482D01*
X139638Y-81558D01*
X137222Y-81558D01*
X134990Y-82482D01*
X133282Y-84190D01*
X132358Y-86422D01*
X132358Y-88838D01*
X133282Y-91070D01*
X134990Y-92778D01*
X137222Y-93702D01*
G37*
G36*
X179132Y-98052D02*
X181548Y-98052D01*
X183780Y-97128D01*
X185488Y-95420D01*
X186412Y-93188D01*
X186412Y-90772D01*
X185488Y-88540D01*
X183780Y-86832D01*
X181548Y-85908D01*
X179132Y-85908D01*
X176900Y-86832D01*
X175192Y-88540D01*
X174268Y-90772D01*
X174268Y-93188D01*
X175192Y-95420D01*
X176900Y-97128D01*
X179132Y-98052D01*
G37*
G36*
X20382Y-101322D02*
X22798Y-101322D01*
X25030Y-100398D01*
X26738Y-98690D01*
X27662Y-96458D01*
X27662Y-94042D01*
X26738Y-91810D01*
X25030Y-90102D01*
X22798Y-89178D01*
X20382Y-89178D01*
X18150Y-90102D01*
X16442Y-91810D01*
X15518Y-94042D01*
X15518Y-96458D01*
X16442Y-98690D01*
X18150Y-100398D01*
X20382Y-101322D01*
G37*
G36*
X147792Y-104832D02*
X150208Y-104832D01*
X152440Y-103908D01*
X154148Y-102200D01*
X155072Y-99968D01*
X155072Y-97552D01*
X154148Y-95320D01*
X152440Y-93612D01*
X150208Y-92688D01*
X147792Y-92688D01*
X145560Y-93612D01*
X143852Y-95320D01*
X142928Y-97552D01*
X142928Y-99968D01*
X143852Y-102200D01*
X145560Y-103908D01*
X147792Y-104832D01*
G37*
G36*
X53402Y-139422D02*
X55818Y-139422D01*
X58050Y-138498D01*
X59758Y-136790D01*
X60682Y-134558D01*
X60682Y-132291D01*
X60727Y-132034D01*
X60884Y-131774D01*
X61130Y-131597D01*
X61426Y-131530D01*
X61724Y-131583D01*
X61979Y-131748D01*
X62148Y-132000D01*
X62534Y-132931D01*
X64312Y-134710D01*
X66636Y-135672D01*
X69151Y-135672D01*
X71474Y-134710D01*
X73253Y-132931D01*
X74215Y-130608D01*
X74215Y-128028D01*
X74184Y-127877D01*
X74240Y-127579D01*
X74407Y-127326D01*
X77835Y-123898D01*
X78077Y-123735D01*
X78374Y-123675D01*
X86440Y-123675D01*
X86726Y-123731D01*
X86978Y-123898D01*
X88710Y-125630D01*
X91033Y-126592D01*
X93548Y-126592D01*
X95872Y-125630D01*
X97603Y-123898D01*
X97845Y-123735D01*
X98142Y-123675D01*
X116129Y-123675D01*
X116415Y-123731D01*
X116668Y-123898D01*
X117994Y-125224D01*
X120042Y-126072D01*
X122258Y-126072D01*
X124306Y-125224D01*
X125874Y-123656D01*
X126722Y-121608D01*
X126722Y-119392D01*
X126266Y-118292D01*
X126208Y-118006D01*
X126266Y-117708D01*
X126722Y-116608D01*
X126722Y-114392D01*
X125874Y-112344D01*
X124569Y-111039D01*
X124411Y-110808D01*
X124346Y-110512D01*
X124401Y-110214D01*
X124569Y-109961D01*
X125874Y-108656D01*
X126722Y-106608D01*
X126722Y-104392D01*
X125874Y-102344D01*
X124306Y-100776D01*
X122258Y-99928D01*
X120042Y-99928D01*
X117994Y-100776D01*
X116426Y-102344D01*
X115578Y-104392D01*
X115578Y-106266D01*
X115522Y-106552D01*
X115355Y-106805D01*
X112718Y-109442D01*
X112476Y-109605D01*
X112179Y-109665D01*
X106341Y-109665D01*
X106055Y-109609D01*
X105802Y-109442D01*
X99005Y-102645D01*
X98842Y-102403D01*
X98782Y-102106D01*
X98782Y-99632D01*
X97858Y-97400D01*
X96150Y-95692D01*
X93918Y-94768D01*
X91502Y-94768D01*
X89270Y-95692D01*
X87562Y-97400D01*
X86638Y-99632D01*
X86638Y-102048D01*
X87562Y-104280D01*
X89270Y-105988D01*
X91502Y-106912D01*
X93976Y-106912D01*
X94262Y-106968D01*
X94515Y-107135D01*
X103174Y-115794D01*
X103327Y-116014D01*
X103397Y-116309D01*
X103346Y-116608D01*
X103183Y-116863D01*
X102932Y-117035D01*
X102635Y-117095D01*
X98328Y-117095D01*
X98047Y-117042D01*
X97793Y-116876D01*
X97702Y-116740D01*
X95872Y-114910D01*
X93548Y-113948D01*
X91033Y-113948D01*
X88710Y-114910D01*
X86931Y-116689D01*
X86863Y-116855D01*
X86706Y-117093D01*
X86456Y-117265D01*
X86159Y-117325D01*
X75428Y-117325D01*
X69917Y-122836D01*
X69681Y-122997D01*
X69384Y-123059D01*
X69223Y-123028D01*
X66636Y-123028D01*
X64312Y-123990D01*
X62534Y-125769D01*
X61571Y-128092D01*
X61571Y-130458D01*
X61526Y-130716D01*
X61369Y-130975D01*
X61123Y-131153D01*
X60828Y-131220D01*
X60529Y-131167D01*
X60275Y-131002D01*
X60105Y-130750D01*
X59758Y-129910D01*
X58050Y-128202D01*
X55818Y-127278D01*
X53402Y-127278D01*
X51170Y-128202D01*
X49462Y-129910D01*
X48538Y-132142D01*
X48538Y-134558D01*
X49462Y-136790D01*
X51170Y-138498D01*
X53402Y-139422D01*
G37*
G36*
X165222Y-107832D02*
X167638Y-107832D01*
X169870Y-106908D01*
X171578Y-105200D01*
X172502Y-102968D01*
X172502Y-100552D01*
X171578Y-98320D01*
X169870Y-96612D01*
X167638Y-95688D01*
X165222Y-95688D01*
X162990Y-96612D01*
X161282Y-98320D01*
X160358Y-100552D01*
X160358Y-102968D01*
X161282Y-105200D01*
X162990Y-106908D01*
X165222Y-107832D01*
G37*
G36*
X171252Y-146482D02*
X173768Y-146482D01*
X176091Y-145520D01*
X177870Y-143741D01*
X178832Y-141418D01*
X178832Y-138902D01*
X177870Y-136579D01*
X176046Y-134755D01*
X175917Y-134670D01*
X175745Y-134420D01*
X175685Y-134123D01*
X175685Y-131845D01*
X153165Y-109325D01*
X146904Y-109325D01*
X146623Y-109272D01*
X146369Y-109106D01*
X146200Y-108855D01*
X145574Y-107344D01*
X144006Y-105776D01*
X141958Y-104928D01*
X139742Y-104928D01*
X137694Y-105776D01*
X136126Y-107344D01*
X135278Y-109392D01*
X135278Y-111608D01*
X135328Y-111728D01*
X135386Y-112014D01*
X135328Y-112312D01*
X134528Y-114242D01*
X134528Y-116758D01*
X135490Y-119081D01*
X137269Y-120860D01*
X139592Y-121822D01*
X142108Y-121822D01*
X144431Y-120860D01*
X146210Y-119081D01*
X147172Y-116758D01*
X147172Y-116437D01*
X147223Y-116162D01*
X147387Y-115907D01*
X147637Y-115735D01*
X147934Y-115675D01*
X150219Y-115675D01*
X150505Y-115731D01*
X150758Y-115898D01*
X168756Y-133896D01*
X168914Y-134126D01*
X168979Y-134423D01*
X168923Y-134721D01*
X168756Y-134974D01*
X167150Y-136579D01*
X166188Y-138902D01*
X166188Y-141418D01*
X167150Y-143741D01*
X168929Y-145520D01*
X171252Y-146482D01*
G37*
G36*
X-114508Y-135502D02*
X-112092Y-135502D01*
X-109860Y-134578D01*
X-108152Y-132870D01*
X-107228Y-130638D01*
X-107228Y-128222D01*
X-108152Y-125990D01*
X-109860Y-124282D01*
X-112092Y-123358D01*
X-114508Y-123358D01*
X-116740Y-124282D01*
X-118448Y-125990D01*
X-119372Y-128222D01*
X-119372Y-130638D01*
X-118448Y-132870D01*
X-116740Y-134578D01*
X-114508Y-135502D01*
G37*
G36*
X-145018Y-140582D02*
X-142602Y-140582D01*
X-140370Y-139658D01*
X-138662Y-137950D01*
X-137738Y-135718D01*
X-137738Y-133302D01*
X-138662Y-131070D01*
X-140370Y-129362D01*
X-142602Y-128438D01*
X-145018Y-128438D01*
X-147250Y-129362D01*
X-148958Y-131070D01*
X-149882Y-133302D01*
X-149882Y-135718D01*
X-148958Y-137950D01*
X-147250Y-139658D01*
X-145018Y-140582D01*
G37*
%LPD*%
G36*
X-12744Y-27687D02*
X-13039Y-27757D01*
X-13338Y-27706D01*
X-13593Y-27543D01*
X-13765Y-27292D01*
X-13825Y-26995D01*
X-13825Y-9685D01*
X-17102Y-6408D01*
X-17265Y-6166D01*
X-17325Y-5869D01*
X-17325Y-5021D01*
X-17269Y-4735D01*
X-17102Y-4482D01*
X-15776Y-3156D01*
X-14928Y-1108D01*
X-14928Y1063D01*
X-14877Y1338D01*
X-14713Y1593D01*
X-14463Y1765D01*
X-14166Y1825D01*
X-5131Y1825D01*
X-4845Y1769D01*
X-4592Y1602D01*
X-1398Y-1592D01*
X-1235Y-1834D01*
X-1175Y-2131D01*
X-1175Y-11166D01*
X-1226Y-11441D01*
X-1390Y-11696D01*
X-1640Y-11868D01*
X-1937Y-11928D01*
X-4108Y-11928D01*
X-6156Y-12776D01*
X-7724Y-14344D01*
X-8572Y-16392D01*
X-8572Y-18608D01*
X-7724Y-20656D01*
X-7224Y-21156D01*
X-7066Y-21387D01*
X-7001Y-21683D01*
X-7056Y-21981D01*
X-7224Y-22234D01*
X-12524Y-27534D01*
X-12744Y-27687D01*
G37*
D10*
X43200Y162500D03*
X-43200Y162500D03*
X43200Y121000D03*
X-43200Y121000D03*
D11*
X128478Y-148810D03*
X91522Y-148810D03*
X18478Y-148810D03*
X-18478Y-148810D03*
X-91522Y-148810D03*
X-128478Y-148810D03*
D12*
X1000Y16000D03*
X-11000Y16000D03*
X-11000Y28000D03*
X1000Y28000D03*
X13000Y28000D03*
X25000Y28000D03*
X25000Y16000D03*
X13000Y16000D03*
X-11000Y4000D03*
X1000Y4000D03*
X13000Y4000D03*
X25000Y4000D03*
X25000Y-8000D03*
X13000Y-8000D03*
X1000Y-8000D03*
X-11000Y-8000D03*
D13*
X140970Y-60960D03*
X113220Y-100490D03*
X125730Y-83820D03*
X-6350Y-34290D03*
X-66040Y-58420D03*
X-104760Y-113540D03*
D14*
X184817Y-100003D03*
D15*
X185183Y-109997D03*
D16*
X184817Y-109630D01*
X184817Y-100003D01*
D14*
X133910Y-110090D03*
X140850Y-105500D03*
D16*
X136260Y-110090D01*
X133910Y-110090D01*
D15*
X121150Y-110500D03*
D16*
X113220Y-102570D01*
X113220Y-100490D01*
D14*
X131000Y-113000D03*
D13*
X147320Y132080D03*
X38100Y143510D03*
X-33020Y-101600D03*
X-54610Y-49530D03*
X-38100Y-25400D03*
X-20320Y129540D03*
X10160Y134620D03*
X106680Y138430D03*
X147320Y113030D03*
X12700Y125730D03*
X-38100Y38100D03*
X-38100Y-3810D03*
X24130Y49530D03*
X75900Y-141320D03*
X144780Y-147320D03*
X166430Y-101760D03*
X55880Y12700D03*
X92710Y-100840D03*
D14*
X121150Y-105500D03*
D16*
X113810Y-112840D01*
X104710Y-112840D01*
X92710Y-100840D01*
D13*
X-57150Y-16510D03*
X113030Y118110D03*
X-53340Y0D03*
X121920Y123190D03*
X125730Y-5080D03*
X205740Y-31750D03*
X-60960Y13970D03*
D14*
X-114750Y2500D03*
D16*
X-103250Y14000D01*
X-21500Y14000D01*
D14*
X-20500Y15000D03*
D16*
X-21500Y14000D01*
D13*
X-62230Y-26670D03*
X-96520Y7620D03*
D14*
X2000Y-17500D03*
D16*
X2000Y-500D01*
X-24240Y25740D01*
X-101427Y20823D01*
X-100104Y19500D02*
X-106750Y19500D01*
X-113750Y12500D01*
X-114750Y12500D01*
X-101427Y20823D02*
X-100104Y19500D01*
D14*
X-114750Y12500D03*
D13*
X-43180Y7620D03*
X195500Y-91980D03*
X-30480Y7620D03*
X143510Y-72390D03*
D15*
X149750Y-71500D03*
D16*
X149750Y-57500D01*
X87250Y5000D01*
D14*
X-20500Y5000D03*
D16*
X87250Y5000D01*
D14*
X-114750Y-7500D03*
D16*
X-111750Y-4500D02*
X-72500Y-4500D01*
X-111750Y-4500D02*
X-114750Y-7500D01*
D14*
X7000Y37500D03*
D16*
X6000Y38500D01*
X6000Y61000D01*
X-52000Y61000D01*
X-72500Y40500D01*
X-72500Y-4500D01*
D13*
X-27940Y58420D03*
X1270Y67310D03*
X-45720Y27940D03*
X-17780Y62230D03*
X-90170Y-5080D03*
X-154940Y106680D03*
D14*
X-114750Y-32500D03*
D16*
X-107500Y-32500D01*
X-105000Y-30000D01*
D14*
X-83500Y-31000D03*
D16*
X-84500Y-30000D01*
X-105000Y-30000D01*
D13*
X-76200Y-39370D03*
X-101600Y-36830D03*
X-67310Y-41910D03*
X-106680Y-44450D03*
X-20320Y43180D03*
X-30480Y43180D03*
X48260Y25400D03*
X48260Y39370D03*
X77470Y91440D03*
X-21590Y91440D03*
X39370Y22860D03*
X41910Y101600D03*
X-24130Y-17780D03*
X-6350Y-43180D03*
X-46990Y-33020D03*
X-52070Y-99060D03*
X-113300Y-129430D03*
X-63500Y-93980D03*
X-63500Y-106680D03*
D14*
X-3000Y-17500D03*
D16*
X-13000Y-79500D02*
X13000Y-105500D01*
X-3000Y-22500D02*
X-3000Y-17500D01*
X-3000Y-22500D02*
X-13000Y-32500D01*
X-13000Y-79500D01*
X13000Y-105500D02*
X13000Y-121497D01*
X-63500Y-95319D02*
X-63500Y-93980D01*
X-63500Y-95319D02*
X-37322Y-121497D01*
X13000Y-121497D01*
D13*
X100330Y-45720D03*
X62230Y-7620D03*
X81520Y-146970D03*
D14*
X-17000Y-98000D03*
D16*
X-17000Y-11000D01*
X-22000Y-6000D01*
D14*
X-20500Y0D03*
D16*
X-20500Y-4500D01*
X-22000Y-6000D01*
D13*
X-125730Y54610D03*
X-148590Y113030D03*
D16*
X-148590Y77470D02*
X-125730Y54610D01*
X-148590Y77470D02*
X-148590Y113030D01*
D13*
X80010Y17780D03*
D15*
X14050Y-56420D03*
D14*
X7000Y-17500D03*
D16*
X14050Y-24550D01*
X14050Y-56420D01*
D13*
X-1270Y48260D03*
X-30480Y19050D03*
X180340Y-91980D03*
X186690Y-50800D03*
X0Y-105410D03*
X19050Y-113460D03*
X128270Y-74930D03*
D14*
X-20500Y10000D03*
D16*
X-26000Y4500D01*
X-26000Y-112410D01*
X-7000Y-112410D02*
X0Y-105410D01*
X-7000Y-112410D02*
X-26000Y-112410D01*
D15*
X92291Y-120270D03*
D14*
X121150Y-115500D03*
D16*
X116380Y-120270D01*
X92291Y-120270D01*
D13*
X3810Y-115570D03*
X54610Y-133350D03*
X-41910Y-15240D03*
X149000Y-98760D03*
X138430Y-87630D03*
X202100Y-64960D03*
D14*
X185000Y-105000D03*
D16*
X191000Y-105000D02*
X202100Y-93900D01*
X191000Y-105000D02*
X185000Y-105000D01*
X202100Y-93900D02*
X202100Y-64960D01*
D14*
X121150Y-120500D03*
D15*
X67893Y-129350D03*
D16*
X76743Y-120500D01*
X121150Y-120500D01*
D13*
X-23460Y-126160D03*
X41910Y-148590D03*
D15*
X172510Y-140160D03*
D14*
X140850Y-110500D03*
D16*
X142850Y-112500D02*
X151850Y-112500D01*
X142850Y-112500D02*
X140850Y-110500D01*
X172510Y-133160D02*
X172510Y-140160D01*
X172510Y-133160D02*
X151850Y-112500D01*
D15*
X140850Y-115500D03*
D16*
X140850Y-110500D01*
D13*
X-26670Y-95250D03*
X21590Y-95250D03*
X-45720Y-151130D03*
X-143810Y-134510D03*
M02*
