G04 EAGLE Gerber RS-274X export*
G75*
%MOMM*%
%FSLAX34Y34*%
%LPD*%
%INCopper Layer 63*%
%IPPOS*%
%AMOC8*
5,1,8,0,0,1.08239X$1,22.5*%
G01*
G04 Define Apertures*
%ADD10C,1.158000*%
%ADD11C,1.066800*%
%ADD12C,0.808000*%
%ADD13C,0.706400*%
%ADD14C,0.606400*%
%ADD15C,0.127000*%
%ADD16C,0.756400*%
D10*
X43200Y162500D03*
X-43200Y162500D03*
X43200Y121000D03*
X-43200Y121000D03*
D11*
X128478Y-148810D03*
X91522Y-148810D03*
X18478Y-148810D03*
X-18478Y-148810D03*
X-91522Y-148810D03*
X-128478Y-148810D03*
D12*
X1000Y16000D03*
X-11000Y16000D03*
X-11000Y28000D03*
X1000Y28000D03*
X13000Y28000D03*
X25000Y28000D03*
X25000Y16000D03*
X13000Y16000D03*
X-11000Y4000D03*
X1000Y4000D03*
X13000Y4000D03*
X25000Y4000D03*
X25000Y-8000D03*
X13000Y-8000D03*
X1000Y-8000D03*
X-11000Y-8000D03*
D13*
X140970Y-60960D03*
X113220Y-100490D03*
X125730Y-83820D03*
X-6350Y-34290D03*
X-66040Y-58420D03*
X-104760Y-113540D03*
D14*
X184817Y-100003D03*
D15*
X185003Y-100003D01*
D16*
X185183Y-109997D03*
D14*
X133910Y-110090D03*
X140850Y-105500D03*
D16*
X121150Y-110500D03*
D14*
X131000Y-113000D03*
D13*
X147320Y132080D03*
X38100Y143510D03*
D15*
X-30480Y-17780D02*
X-38100Y-25400D01*
X-30480Y-17780D02*
X-30480Y-1270D01*
X-17780Y11430D01*
X-17780Y36830D01*
X-11430Y43180D01*
X-11430Y120650D01*
X-20320Y129540D01*
D13*
X-33020Y-101600D03*
X-54610Y-49530D03*
X-38100Y-25400D03*
X-20320Y129540D03*
X10160Y134620D03*
X106680Y138430D03*
X147320Y113030D03*
X12700Y125730D03*
X-38100Y38100D03*
X-38100Y-3810D03*
X24130Y49530D03*
X75900Y-141320D03*
X144780Y-147320D03*
X166430Y-101760D03*
X55880Y12700D03*
X92710Y-100840D03*
D14*
X121150Y-105500D03*
D13*
X-57150Y-16510D03*
X113030Y118110D03*
X-53340Y0D03*
X121920Y123190D03*
X125730Y-5080D03*
X205740Y-31750D03*
X-60960Y13970D03*
D14*
X-114750Y2500D03*
X-20500Y15000D03*
D13*
X-62230Y-26670D03*
X-96520Y7620D03*
D14*
X2000Y-17500D03*
X-114750Y12500D03*
D13*
X-43180Y7620D03*
X195500Y-91980D03*
X-30480Y7620D03*
X143510Y-72390D03*
D16*
X149750Y-71500D03*
D14*
X-20500Y5000D03*
X-114750Y-7500D03*
X7000Y37500D03*
D13*
X-27940Y58420D03*
X1270Y67310D03*
X-45720Y27940D03*
X-17780Y62230D03*
X-90170Y-5080D03*
X-154940Y106680D03*
D14*
X-114750Y-32500D03*
X-83500Y-31000D03*
D13*
X-76200Y-39370D03*
X-101600Y-36830D03*
X-67310Y-41910D03*
X-106680Y-44450D03*
X-20320Y43180D03*
X-30480Y43180D03*
D15*
X48260Y39370D02*
X48260Y25400D01*
D13*
X48260Y25400D03*
X48260Y39370D03*
X77470Y91440D03*
X-21590Y91440D03*
D15*
X39370Y99060D02*
X39370Y22860D01*
X39370Y99060D02*
X41910Y101600D01*
D13*
X39370Y22860D03*
X41910Y101600D03*
X-24130Y-17780D03*
X-6350Y-43180D03*
X-46990Y-33020D03*
X-52070Y-99060D03*
X-113300Y-129430D03*
X-63500Y-93980D03*
X-63500Y-106680D03*
D14*
X-3000Y-17500D03*
D15*
X81520Y-139920D02*
X81520Y-146970D01*
X81520Y-139920D02*
X100330Y-121110D01*
X100330Y-45720D01*
D13*
X100330Y-45720D03*
X62230Y-7620D03*
X81520Y-146970D03*
D14*
X-17000Y-98000D03*
X-20500Y0D03*
D13*
X-125730Y54610D03*
X-148590Y113030D03*
X80010Y17780D03*
D16*
X14050Y-56420D03*
D14*
X7000Y-17500D03*
D13*
X-1270Y48260D03*
X-30480Y19050D03*
D15*
X151670Y-91980D02*
X180340Y-91980D01*
X151670Y-91980D02*
X134620Y-74930D01*
X128270Y-74930D01*
D13*
X180340Y-91980D03*
X186690Y-50800D03*
X0Y-105410D03*
X19050Y-113460D03*
X128270Y-74930D03*
D14*
X-20500Y10000D03*
D16*
X92291Y-120270D03*
D14*
X121150Y-115500D03*
D13*
X3810Y-115570D03*
X54610Y-133350D03*
X-41910Y-15240D03*
X149000Y-98760D03*
X138430Y-87630D03*
X202100Y-64960D03*
D14*
X185000Y-105000D03*
X121150Y-120500D03*
D16*
X67893Y-129350D03*
D13*
X-23460Y-126160D03*
X41910Y-148590D03*
D16*
X172510Y-140160D03*
D14*
X140850Y-110500D03*
D16*
X140850Y-115500D03*
D13*
X-26670Y-95250D03*
X21590Y-95250D03*
X-45720Y-151130D03*
X-143810Y-134510D03*
M02*
