G04 EAGLE Gerber RS-274X export*
G75*
%MOMM*%
%FSLAX34Y34*%
%LPD*%
%IN*%
%IPPOS*%
%AMOC8*
5,1,8,0,0,1.08239X$1,22.5*%
G01*
G04 Define Apertures*
%ADD10C,0.254000*%
D10*
X-230000Y-105000D02*
X-229734Y-111101D01*
X-228937Y-117155D01*
X-227615Y-123117D01*
X-225778Y-128941D01*
X-223442Y-134583D01*
X-220622Y-140000D01*
X-217341Y-145150D01*
X-213623Y-149995D01*
X-209497Y-154497D01*
X-204995Y-158623D01*
X-200150Y-162341D01*
X-195000Y-165622D01*
X-189583Y-168442D01*
X-183941Y-170778D01*
X-178117Y-172615D01*
X-172155Y-173937D01*
X-166101Y-174734D01*
X-160000Y-175000D01*
X-134000Y-175000D01*
X-134000Y-157000D01*
X-86000Y-157000D01*
X-86000Y-175000D01*
X-24000Y-175000D01*
X-24000Y-157000D01*
X24000Y-157000D01*
X24000Y-175000D01*
X86000Y-175000D01*
X86000Y-157000D01*
X134000Y-157000D01*
X134000Y-175000D01*
X160000Y-175000D01*
X166101Y-174734D01*
X172155Y-173937D01*
X178117Y-172615D01*
X183941Y-170778D01*
X189583Y-168442D01*
X195000Y-165622D01*
X200150Y-162341D01*
X204995Y-158623D01*
X209497Y-154497D01*
X213623Y-149995D01*
X217341Y-145150D01*
X220622Y-140000D01*
X223442Y-134583D01*
X225778Y-128941D01*
X227615Y-123117D01*
X228937Y-117155D01*
X229734Y-111101D01*
X230000Y-105000D01*
X230000Y105000D01*
X229734Y111101D01*
X228937Y117155D01*
X227615Y123117D01*
X225778Y128941D01*
X223442Y134583D01*
X220622Y140000D01*
X217341Y145150D01*
X213623Y149995D01*
X209497Y154497D01*
X204995Y158623D01*
X200150Y162341D01*
X195000Y165622D01*
X189583Y168442D01*
X183941Y170778D01*
X178117Y172615D01*
X172155Y173937D01*
X166101Y174734D01*
X160000Y175000D01*
X-160000Y175000D01*
X-166101Y174734D01*
X-172155Y173937D01*
X-178117Y172615D01*
X-183941Y170778D01*
X-189583Y168442D01*
X-195000Y165622D01*
X-200150Y162341D01*
X-204995Y158623D01*
X-209497Y154497D01*
X-213623Y149995D01*
X-217341Y145150D01*
X-220622Y140000D01*
X-223442Y134583D01*
X-225778Y128941D01*
X-227615Y123117D01*
X-228937Y117155D01*
X-229734Y111101D01*
X-230000Y105000D01*
X-230000Y69000D01*
X-160000Y69000D01*
X-160000Y-69000D01*
X-230000Y-69000D01*
X-230000Y-105000D01*
X-46450Y115500D02*
X-46438Y115217D01*
X-46401Y114936D01*
X-46339Y114659D01*
X-46254Y114388D01*
X-46146Y114127D01*
X-46015Y113875D01*
X-45862Y113636D01*
X-45690Y113411D01*
X-45498Y113202D01*
X-45289Y113010D01*
X-45064Y112838D01*
X-44825Y112685D01*
X-44574Y112555D01*
X-44312Y112446D01*
X-44041Y112361D01*
X-43764Y112299D01*
X-43483Y112262D01*
X-43200Y112250D01*
X-42917Y112262D01*
X-42636Y112299D01*
X-42359Y112361D01*
X-42088Y112446D01*
X-41827Y112555D01*
X-41575Y112685D01*
X-41336Y112838D01*
X-41111Y113010D01*
X-40902Y113202D01*
X-40710Y113411D01*
X-40538Y113636D01*
X-40385Y113875D01*
X-40255Y114127D01*
X-40146Y114388D01*
X-40061Y114659D01*
X-39999Y114936D01*
X-39962Y115217D01*
X-39950Y115500D01*
X-39950Y126500D01*
X-39962Y126783D01*
X-39999Y127064D01*
X-40061Y127341D01*
X-40146Y127612D01*
X-40255Y127874D01*
X-40385Y128125D01*
X-40538Y128364D01*
X-40710Y128589D01*
X-40902Y128798D01*
X-41111Y128990D01*
X-41336Y129162D01*
X-41575Y129315D01*
X-41827Y129446D01*
X-42088Y129554D01*
X-42359Y129639D01*
X-42636Y129701D01*
X-42917Y129738D01*
X-43200Y129750D01*
X-43483Y129738D01*
X-43764Y129701D01*
X-44041Y129639D01*
X-44312Y129554D01*
X-44574Y129446D01*
X-44825Y129315D01*
X-45064Y129162D01*
X-45289Y128990D01*
X-45498Y128798D01*
X-45690Y128589D01*
X-45862Y128364D01*
X-46015Y128125D01*
X-46146Y127874D01*
X-46254Y127612D01*
X-46339Y127341D01*
X-46401Y127064D01*
X-46438Y126783D01*
X-46450Y126500D01*
X-46450Y115500D01*
X39950Y115500D02*
X39962Y115217D01*
X39999Y114936D01*
X40061Y114659D01*
X40146Y114388D01*
X40255Y114127D01*
X40385Y113875D01*
X40538Y113636D01*
X40710Y113411D01*
X40902Y113202D01*
X41111Y113010D01*
X41336Y112838D01*
X41575Y112685D01*
X41827Y112555D01*
X42088Y112446D01*
X42359Y112361D01*
X42636Y112299D01*
X42917Y112262D01*
X43200Y112250D01*
X43483Y112262D01*
X43764Y112299D01*
X44041Y112361D01*
X44312Y112446D01*
X44574Y112555D01*
X44825Y112685D01*
X45064Y112838D01*
X45289Y113010D01*
X45498Y113202D01*
X45690Y113411D01*
X45862Y113636D01*
X46015Y113875D01*
X46146Y114127D01*
X46254Y114388D01*
X46339Y114659D01*
X46401Y114936D01*
X46438Y115217D01*
X46450Y115500D01*
X46450Y126500D01*
X46438Y126783D01*
X46401Y127064D01*
X46339Y127341D01*
X46254Y127612D01*
X46146Y127874D01*
X46015Y128125D01*
X45862Y128364D01*
X45690Y128589D01*
X45498Y128798D01*
X45289Y128990D01*
X45064Y129162D01*
X44825Y129315D01*
X44574Y129446D01*
X44312Y129554D01*
X44041Y129639D01*
X43764Y129701D01*
X43483Y129738D01*
X43200Y129750D01*
X42917Y129738D01*
X42636Y129701D01*
X42359Y129639D01*
X42088Y129554D01*
X41827Y129446D01*
X41575Y129315D01*
X41336Y129162D01*
X41111Y128990D01*
X40902Y128798D01*
X40710Y128589D01*
X40538Y128364D01*
X40385Y128125D01*
X40255Y127874D01*
X40146Y127612D01*
X40061Y127341D01*
X39999Y127064D01*
X39962Y126783D01*
X39950Y126500D01*
X39950Y115500D01*
X-46450Y158500D02*
X-46438Y158217D01*
X-46401Y157936D01*
X-46339Y157659D01*
X-46254Y157388D01*
X-46146Y157127D01*
X-46015Y156875D01*
X-45862Y156636D01*
X-45690Y156411D01*
X-45498Y156202D01*
X-45289Y156010D01*
X-45064Y155838D01*
X-44825Y155685D01*
X-44574Y155555D01*
X-44312Y155446D01*
X-44041Y155361D01*
X-43764Y155299D01*
X-43483Y155262D01*
X-43200Y155250D01*
X-42917Y155262D01*
X-42636Y155299D01*
X-42359Y155361D01*
X-42088Y155446D01*
X-41827Y155555D01*
X-41575Y155685D01*
X-41336Y155838D01*
X-41111Y156010D01*
X-40902Y156202D01*
X-40710Y156411D01*
X-40538Y156636D01*
X-40385Y156875D01*
X-40255Y157127D01*
X-40146Y157388D01*
X-40061Y157659D01*
X-39999Y157936D01*
X-39962Y158217D01*
X-39950Y158500D01*
X-39950Y166500D01*
X-39962Y166783D01*
X-39999Y167064D01*
X-40061Y167341D01*
X-40146Y167612D01*
X-40255Y167874D01*
X-40385Y168125D01*
X-40538Y168364D01*
X-40710Y168589D01*
X-40902Y168798D01*
X-41111Y168990D01*
X-41336Y169162D01*
X-41575Y169315D01*
X-41827Y169446D01*
X-42088Y169554D01*
X-42359Y169639D01*
X-42636Y169701D01*
X-42917Y169738D01*
X-43200Y169750D01*
X-43483Y169738D01*
X-43764Y169701D01*
X-44041Y169639D01*
X-44312Y169554D01*
X-44574Y169446D01*
X-44825Y169315D01*
X-45064Y169162D01*
X-45289Y168990D01*
X-45498Y168798D01*
X-45690Y168589D01*
X-45862Y168364D01*
X-46015Y168125D01*
X-46146Y167874D01*
X-46254Y167612D01*
X-46339Y167341D01*
X-46401Y167064D01*
X-46438Y166783D01*
X-46450Y166500D01*
X-46450Y158500D01*
X39950Y158500D02*
X39962Y158217D01*
X39999Y157936D01*
X40061Y157659D01*
X40146Y157388D01*
X40255Y157127D01*
X40385Y156875D01*
X40538Y156636D01*
X40710Y156411D01*
X40902Y156202D01*
X41111Y156010D01*
X41336Y155838D01*
X41575Y155685D01*
X41827Y155555D01*
X42088Y155446D01*
X42359Y155361D01*
X42636Y155299D01*
X42917Y155262D01*
X43200Y155250D01*
X43483Y155262D01*
X43764Y155299D01*
X44041Y155361D01*
X44312Y155446D01*
X44574Y155555D01*
X44825Y155685D01*
X45064Y155838D01*
X45289Y156010D01*
X45498Y156202D01*
X45690Y156411D01*
X45862Y156636D01*
X46015Y156875D01*
X46146Y157127D01*
X46254Y157388D01*
X46339Y157659D01*
X46401Y157936D01*
X46438Y158217D01*
X46450Y158500D01*
X46450Y166500D01*
X46438Y166783D01*
X46401Y167064D01*
X46339Y167341D01*
X46254Y167612D01*
X46146Y167874D01*
X46015Y168125D01*
X45862Y168364D01*
X45690Y168589D01*
X45498Y168798D01*
X45289Y168990D01*
X45064Y169162D01*
X44825Y169315D01*
X44574Y169446D01*
X44312Y169554D01*
X44041Y169639D01*
X43764Y169701D01*
X43483Y169738D01*
X43200Y169750D01*
X42917Y169738D01*
X42636Y169701D01*
X42359Y169639D01*
X42088Y169554D01*
X41827Y169446D01*
X41575Y169315D01*
X41336Y169162D01*
X41111Y168990D01*
X40902Y168798D01*
X40710Y168589D01*
X40538Y168364D01*
X40385Y168125D01*
X40255Y167874D01*
X40146Y167612D01*
X40061Y167341D01*
X39999Y167064D01*
X39962Y166783D01*
X39950Y166500D01*
X39950Y158500D01*
M02*
