G04 EAGLE Gerber RS-274X export*
G75*
%MOMM*%
%FSLAX34Y34*%
%LPD*%
%INSoldermask Bottom*%
%IPPOS*%
%AMOC8*
5,1,8,0,0,1.08239X$1,22.5*%
G01*
G04 Define Apertures*
%ADD10C,2.654200*%
%ADD11C,1.270200*%
%ADD12C,0.903200*%
%ADD13C,1.373200*%
%ADD14R,1.270000X1.270000*%
%ADD15C,0.555600*%
%ADD16C,0.705600*%
G36*
X-44429Y132679D02*
X-43200Y132800D01*
X-41971Y132679D01*
X-40789Y132321D01*
X-39700Y131738D01*
X-38745Y130955D01*
X-37962Y130000D01*
X-37379Y128911D01*
X-37021Y127729D01*
X-36900Y126503D01*
X-36900Y115497D01*
X-37021Y114271D01*
X-37379Y113089D01*
X-37962Y112000D01*
X-38745Y111045D01*
X-39700Y110262D01*
X-40789Y109679D01*
X-41971Y109321D01*
X-43200Y109200D01*
X-44429Y109321D01*
X-45611Y109679D01*
X-46700Y110262D01*
X-47655Y111045D01*
X-48438Y112000D01*
X-49021Y113089D01*
X-49379Y114271D01*
X-49500Y115497D01*
X-49500Y126503D01*
X-49379Y127729D01*
X-49021Y128911D01*
X-48438Y130000D01*
X-47655Y130955D01*
X-46700Y131738D01*
X-45611Y132321D01*
X-44429Y132679D01*
G37*
G36*
X41971Y132679D02*
X43200Y132800D01*
X44429Y132679D01*
X45611Y132321D01*
X46700Y131738D01*
X47655Y130955D01*
X48438Y130000D01*
X49021Y128911D01*
X49379Y127729D01*
X49500Y126503D01*
X49500Y115497D01*
X49379Y114271D01*
X49021Y113089D01*
X48438Y112000D01*
X47655Y111045D01*
X46700Y110262D01*
X45611Y109679D01*
X44429Y109321D01*
X43200Y109200D01*
X41971Y109321D01*
X40789Y109679D01*
X39700Y110262D01*
X38745Y111045D01*
X37962Y112000D01*
X37379Y113089D01*
X37021Y114271D01*
X36900Y115497D01*
X36900Y126503D01*
X37021Y127729D01*
X37379Y128911D01*
X37962Y130000D01*
X38745Y130955D01*
X39700Y131738D01*
X40789Y132321D01*
X41971Y132679D01*
G37*
G36*
X-44429Y172679D02*
X-43200Y172800D01*
X-41971Y172679D01*
X-40789Y172321D01*
X-39700Y171738D01*
X-38745Y170955D01*
X-37962Y170000D01*
X-37379Y168911D01*
X-37021Y167729D01*
X-36900Y166503D01*
X-36900Y158497D01*
X-37021Y157271D01*
X-37379Y156089D01*
X-37962Y155000D01*
X-38745Y154045D01*
X-39700Y153262D01*
X-40789Y152679D01*
X-41971Y152321D01*
X-43200Y152200D01*
X-44429Y152321D01*
X-45611Y152679D01*
X-46700Y153262D01*
X-47655Y154045D01*
X-48438Y155000D01*
X-49021Y156089D01*
X-49379Y157271D01*
X-49500Y158497D01*
X-49500Y166503D01*
X-49379Y167729D01*
X-49021Y168911D01*
X-48438Y170000D01*
X-47655Y170955D01*
X-46700Y171738D01*
X-45611Y172321D01*
X-44429Y172679D01*
G37*
G36*
X41971Y172679D02*
X43200Y172800D01*
X44429Y172679D01*
X45611Y172321D01*
X46700Y171738D01*
X47655Y170955D01*
X48438Y170000D01*
X49021Y168911D01*
X49379Y167729D01*
X49500Y166503D01*
X49500Y158497D01*
X49379Y157271D01*
X49021Y156089D01*
X48438Y155000D01*
X47655Y154045D01*
X46700Y153262D01*
X45611Y152679D01*
X44429Y152321D01*
X43200Y152200D01*
X41971Y152321D01*
X40789Y152679D01*
X39700Y153262D01*
X38745Y154045D01*
X37962Y155000D01*
X37379Y156089D01*
X37021Y157271D01*
X36900Y158497D01*
X36900Y166503D01*
X37021Y167729D01*
X37379Y168911D01*
X37962Y170000D01*
X38745Y170955D01*
X39700Y171738D01*
X40789Y172321D01*
X41971Y172679D01*
G37*
D10*
X200400Y10770D03*
D11*
X175000Y10770D03*
D10*
X149600Y10770D03*
X200400Y42520D03*
X149600Y42520D03*
D11*
X185160Y61570D03*
X164840Y61570D03*
D12*
X28900Y126000D03*
X-28900Y126000D03*
D13*
X43200Y162500D03*
X-43200Y162500D03*
X43200Y121000D03*
X-43200Y121000D03*
D14*
X128478Y-148810D03*
X91522Y-148810D03*
X18478Y-148810D03*
X-18478Y-148810D03*
X-91522Y-148810D03*
X-128478Y-148810D03*
D15*
X184817Y-100003D03*
D16*
X185183Y-109997D03*
D15*
X133910Y-110090D03*
X140850Y-105500D03*
D16*
X121150Y-110500D03*
D15*
X131000Y-113000D03*
X121150Y-105500D03*
X-114750Y2500D03*
X-20500Y15000D03*
X2000Y-17500D03*
X-114750Y12500D03*
D16*
X149750Y-71500D03*
D15*
X-20500Y5000D03*
X-114750Y-7500D03*
X7000Y37500D03*
X-114750Y-32500D03*
X-83500Y-31000D03*
X-3000Y-17500D03*
X-17000Y-98000D03*
X-20500Y0D03*
D16*
X14050Y-56420D03*
D15*
X7000Y-17500D03*
X-20500Y10000D03*
D16*
X92291Y-120270D03*
D15*
X121150Y-115500D03*
X185000Y-105000D03*
X121150Y-120500D03*
D16*
X67893Y-129350D03*
X172510Y-140160D03*
D15*
X140850Y-110500D03*
D16*
X140850Y-115500D03*
M02*
